{
.appVersion = "1184";
DisplayStrings = (
a
);
copyright = "Copyright (c) 2010, Sebastian Kosch (sebastian@aldusleaf.org),\012with Reserved Font Name \"Crimson Text\".\012This Font Software is licensed under the SIL Open Font License, Version 1.1.\012This license is available with a FAQ at: http://scripts.sil.org/OFL";
customParameters = (
{
name = vendorID;
value = PfEd;
},
{
name = panose;
value = (
2,
0,
8,
3,
0,
0,
0,
0,
0,
0
);
},
{
name = unicodeRanges;
value = (
0,
1,
2,
3,
5,
6,
7,
31,
33,
37,
38,
60
);
},
{
name = codePageRanges;
value = (
1252,
1250,
1254,
1257
);
}
);
date = "2010-12-21 22:59:36 +0000";
disablesNiceNames = 1;
familyName = "Crimson Text";
fontMaster = (
{
ascender = 717;
capHeight = 153;
customParameters = (
{
name = typoAscender;
value = 717;
},
{
name = typoDescender;
value = -307;
},
{
name = typoLineGap;
value = 92;
},
{
name = winAscent;
value = 939;
},
{
name = winDescent;
value = 238;
},
{
name = hheaAscender;
value = 939;
},
{
name = hheaDescender;
value = -238;
},
{
name = strikeoutPosition;
value = 265;
},
{
name = strikeoutSize;
value = 51;
},
{
name = "Prep Table Assembly";

glyphs = (
{
glyphname = A;
lastChange = "2018-12-17 21:49:21 +0000";
layers = (
{
background = {
paths = (
{
closed = 1;
nodes = (
"359 213 OFFCURVE",
"395 211 QCURVE",
"401 211 OFFCURVE",
"401 207 QCURVE",
"423 78 OFFCURVE",
"423 69 QCURVE SMOOTH",
"423 62 OFFCURVE",
"418 55 QCURVE",
"411 47 OFFCURVE",
"375 30 OFFCURVE",
"359 30 OFFCURVE",
"359 3 QCURVE SMOOTH",
"359 -3 OFFCURVE",
"360 -4 QCURVE",
"479 3 OFFCURVE",
"498 3 QCURVE SMOOTH",
"522 3 OFFCURVE",
"617 -4 OFFCURVE",
"620 -4 QCURVE",
"627 5 OFFCURVE",
"627 25 QCURVE SMOOTH",
"627 30 OFFCURVE",
"625 30 QCURVE SMOOTH",
"614 30 OFFCURVE",
"568 50 OFFCURVE",
"565 66 QCURVE SMOOTH",
"555 115 OFFCURVE",
"551 141 QCURVE",
"446 659 LINE",
"443 667 OFFCURVE",
"434 667 QCURVE SMOOTH",
"428 667 OFFCURVE",
"414 656 OFFCURVE",
"397 633 OFFCURVE",
"387 618 OFFCURVE",
"369 588 OFFCURVE",
"368 586 QCURVE",
"96 134 LINE SMOOTH",
"66 84 OFFCURVE",
"57 71 QCURVE",
"48 59 OFFCURVE",
"-18 30 OFFCURVE",
"-28 30 QCURVE SMOOTH",
"-33 30 OFFCURVE",
"-33 4 QCURVE SMOOTH",
"-33 -2 OFFCURVE",
"-32 -4 QCURVE",
"-18 -3 OFFCURVE",
"61 3 OFFCURVE",
"86 3 QCURVE SMOOTH",
"110 3 OFFCURVE",
"174 -3 OFFCURVE",
"186 -4 QCURVE",
"191 6 OFFCURVE",
"191 26 QCURVE SMOOTH",
"191 30 OFFCURVE",
"189 30 QCURVE SMOOTH",
"175 30 OFFCURVE",
"124 48 OFFCURVE",
"124 82 OFFCURVE",
"157 131 QCURVE",
"202 207 LINE",
"203 208 OFFCURVE",
"216 212 OFFCURVE",
"219 212 QCURVE SMOOTH",
"252 213 OFFCURVE",
"304 213 QCURVE SMOOTH"
);
},
{
closed = 1;
nodes = (
"275 273 OFFCURVE",
"248 276 QCURVE",
"247 276 OFFCURVE",
"246 279 OFFCURVE",
"247 280 QCURVE",
"355 458 LINE",
"387 280 LINE",
"387 275 OFFCURVE",
"383 275 QCURVE",
"354 273 OFFCURVE",
"316 273 QCURVE SMOOTH"
);
}
);
};
layerId = "EE330C8E-4A1C-402A-831D-620872201BE1";
paths = (
{
closed = 1;
nodes = (
"340.667 213 OFFCURVE",
"371 212.333 OFFCURVE",
"395 211 CURVE",
"399 211 OFFCURVE",
"401 209.667 OFFCURVE",
"401 207 CURVE",
"415.667 121 OFFCURVE",
"423 75 OFFCURVE",
"423 69 CURVE SMOOTH",
"423 64.333 OFFCURVE",
"421.333 59.667 OFFCURVE",
"418 55 CURVE",
"389.753 22.717 OFFCURVE",
"359 50.253 OFFCURVE",
"359 3 CURVE SMOOTH",
"359 -1 OFFCURVE",
"359.333 -3.333 OFFCURVE",
"360 -4 CURVE",
"439.333 0.667 OFFCURVE",
"485.333 3 OFFCURVE",
"498 3 CURVE SMOOTH",
"514 3 OFFCURVE",
"537.833 1.833 OFFCURVE",
"569.5 -0.5 CURVE SMOOTH",
"601.167 -2.833 OFFCURVE",
"618 -4 OFFCURVE",
"620 -4 CURVE",
"624.667 2 OFFCURVE",
"627 11.667 OFFCURVE",
"627 25 CURVE SMOOTH",
"627 28.333 OFFCURVE",
"626.333 30 OFFCURVE",
"625 30 CURVE SMOOTH",
"610.333 30 OFFCURVE",
"569 44.667 OFFCURVE",
"565 66 CURVE SMOOTH",
"558.333 98.667 OFFCURVE",
"553.667 123.667 OFFCURVE",
"551 141 CURVE",
"446 659 LINE",
"444 664.333 OFFCURVE",
"440 667 OFFCURVE",
"434 667 CURVE SMOOTH",
"426 667 OFFCURVE",
"416.833 659.833 OFFCURVE",
"405.5 644.5 CURVE SMOOTH",
"399.833 636.833 OFFCURVE",
"395.333 630.5 OFFCURVE",
"392 625.5 CURVE SMOOTH",
"388.667 620.5 OFFCURVE",
"380.667 607.333 OFFCURVE",
"368 586 CURVE SMOOTH",
"96 134 LINE SMOOTH",
"76 100.667 OFFCURVE",
"63 79.667 OFFCURVE",
"57 71 CURVE",
"45 55 OFFCURVE",
"-14.667 30 OFFCURVE",
"-28 30 CURVE SMOOTH",
"-31.333 30 OFFCURVE",
"-33 21.333 OFFCURVE",
"-33 4 CURVE SMOOTH",
"-33 0 OFFCURVE",
"-32.667 -2.667 OFFCURVE",
"-32 -4 CURVE",
"-22.667 -3.333 OFFCURVE",
"-4.833 -2 OFFCURVE",
"21.5 0 CURVE SMOOTH",
"47.833 2 OFFCURVE",
"69.333 3 OFFCURVE",
"86 3 CURVE SMOOTH",
"102 3 OFFCURVE",
"120.667 2 OFFCURVE",
"142 0 CURVE SMOOTH",
"163.333 -2 OFFCURVE",
"178 -3.333 OFFCURVE",
"186 -4 CURVE",
"189.333 2.667 OFFCURVE",
"191 12.667 OFFCURVE",
"191 26 CURVE SMOOTH",
"191 28.667 OFFCURVE",
"190.333 30 OFFCURVE",
"189 30 CURVE SMOOTH",
"124.335 30 OFFCURVE",
"103.25 51.189 OFFCURVE",
"157 131 CURVE",
"202 207 LINE",
"203.333 208.333 OFFCURVE",
"215 212 OFFCURVE",
"219 212 CURVE SMOOTH",
"241 212.667 OFFCURVE",
"269.333 213 OFFCURVE",
"304 213 CURVE SMOOTH"
);
},
{
closed = 1;
nodes = (
"288.667 273 OFFCURVE",
"266 274 OFFCURVE",
"248 276 CURVE",
"246.667 276 OFFCURVE",
"245.667 278.667 OFFCURVE",
"247 280 CURVE",
"355 458 LINE",
"387 280 LINE",
"387 276.667 OFFCURVE",
"385.667 275 OFFCURVE",
"383 275 CURVE",
"363.667 273.667 OFFCURVE",
"341.333 273 OFFCURVE",
"316 273 CURVE SMOOTH"
);
}
);
width = 634;
}
);
note = A;
unicode = 0041;
},
{
glyphname = Aogonek;
lastChange = "2018-12-17 21:49:21 +0000";
layers = (
{
background = {
paths = (
{
closed = 1;
nodes = (
"310 273 OFFCURVE",
"283 276 QCURVE",
"282 276 OFFCURVE",
"281 279 OFFCURVE",
"282 280 QCURVE",
"390 458 OFFCURVE",
"390 458 QCURVE",
"422 280 OFFCURVE",
"422 280 QCURVE",
"422 275 OFFCURVE",
"418 275 QCURVE",
"389 273 OFFCURVE",
"351 273 QCURVE SMOOTH"
);
},
{
closed = 1;
nodes = (
"122 134 LINE SMOOTH",
"92 84 OFFCURVE",
"83 71 QCURVE",
"74 59 OFFCURVE",
"8 30 OFFCURVE",
"-2 30 QCURVE SMOOTH",
"-7 30 OFFCURVE",
"-7 4 QCURVE SMOOTH",
"-7 -2 OFFCURVE",
"-6 -4 QCURVE",
"8 -3 OFFCURVE",
"87 3 OFFCURVE",
"112 3 QCURVE SMOOTH",
"136 3 OFFCURVE",
"212 -4 OFFCURVE",
"221 -4 QCURVE",
"226 6 OFFCURVE",
"226 26 QCURVE SMOOTH",
"226 30 OFFCURVE",
"224 30 QCURVE SMOOTH",
"210 30 OFFCURVE",
"159 48 OFFCURVE",
"159 82 OFFCURVE",
"192 131 QCURVE",
"237 207 LINE SMOOTH",
"240 212 OFFCURVE",
"245 212 QCURVE SMOOTH",
"278 213 OFFCURVE",
"339 213 QCURVE SMOOTH",
"394 213 OFFCURVE",
"430 211 QCURVE",
"436 211 OFFCURVE",
"436 207 QCURVE",
"458 78 OFFCURVE",
"458 69 QCURVE SMOOTH",
"458 51 OFFCURVE",
"442 35 QCURVE SMOOTH",
"372 -32 OFFCURVE",
"302 -119 OFFCURVE",
"302 -156 QCURVE SMOOTH",
"302 -182 OFFCURVE",
"336 -216 OFFCURVE",
"359 -216 QCURVE SMOOTH",
"388 -216 OFFCURVE",
"456 -177 OFFCURVE",
"478 -152 QCURVE",
"481 -149 OFFCURVE",
"488 -118 OFFCURVE",
"483 -117 QCURVE",
"482 -117 OFFCURVE",
"462 -130 OFFCURVE",
"427 -144 OFFCURVE",
"406 -144 QCURVE SMOOTH",
"392 -144 OFFCURVE",
"378 -129 OFFCURVE",
"378 -120 QCURVE SMOOTH",
"378 -80 OFFCURVE",
"471 3 OFFCURVE",
"524 3 QCURVE SMOOTH",
"548 3 OFFCURVE",
"643 -4 OFFCURVE",
"646 -4 QCURVE",
"653 5 OFFCURVE",
"653 25 QCURVE SMOOTH",
"653 30 OFFCURVE",
"651 30 QCURVE SMOOTH",
"640 30 OFFCURVE",
"594 50 OFFCURVE",
"591 66 QCURVE SMOOTH",
"581 115 OFFCURVE",
"577 141 QCURVE",
"472 659 LINE",
"469 667 OFFCURVE",
"460 667 QCURVE SMOOTH",
"454 667 OFFCURVE",
"440 656 OFFCURVE",
"424 633 OFFCURVE",
"413 618 OFFCURVE",
"395 588 OFFCURVE",
"394 586 QCURVE"
);
}
);
};
layerId = "EE330C8E-4A1C-402A-831D-620872201BE1";
paths = (
{
closed = 1;
nodes = (
"323.667 273 OFFCURVE",
"301 274 OFFCURVE",
"283 276 CURVE",
"281.667 276 OFFCURVE",
"280.667 278.667 OFFCURVE",
"282 280 CURVE",
"354 398.667 OFFCURVE",
"390 458 OFFCURVE",
"390 458 CURVE",
"411.333 339.333 OFFCURVE",
"422 280 OFFCURVE",
"422 280 CURVE",
"422 276.667 OFFCURVE",
"420.667 275 OFFCURVE",
"418 275 CURVE",
"398.667 273.667 OFFCURVE",
"376.333 273 OFFCURVE",
"351 273 CURVE SMOOTH"
);
},
{
closed = 1;
nodes = (
"122 134 LINE SMOOTH",
"102 100.667 OFFCURVE",
"89 79.667 OFFCURVE",
"83 71 CURVE",
"71 55 OFFCURVE",
"11.333 30 OFFCURVE",
"-2 30 CURVE SMOOTH",
"-5.333 30 OFFCURVE",
"-7 21.333 OFFCURVE",
"-7 4 CURVE SMOOTH",
"-7 0 OFFCURVE",
"-6.667 -2.667 OFFCURVE",
"-6 -4 CURVE",
"3.333 -3.333 OFFCURVE",
"21.167 -2 OFFCURVE",
"47.5 0 CURVE SMOOTH",
"73.833 2 OFFCURVE",
"95.333 3 OFFCURVE",
"112 3 CURVE SMOOTH",
"128 3 OFFCURVE",
"148.667 1.833 OFFCURVE",
"174 -0.5 CURVE SMOOTH",
"199.333 -2.833 OFFCURVE",
"215 -4 OFFCURVE",
"221 -4 CURVE",
"224.333 2.667 OFFCURVE",
"226 12.667 OFFCURVE",
"226 26 CURVE SMOOTH",
"226 28.667 OFFCURVE",
"225.333 30 OFFCURVE",
"224 30 CURVE SMOOTH",
"159.335 30 OFFCURVE",
"138.25 51.189 OFFCURVE",
"192 131 CURVE",
"237 207 LINE SMOOTH",
"239 210.333 OFFCURVE",
"241.667 212 OFFCURVE",
"245 212 CURVE SMOOTH",
"267 212.667 OFFCURVE",
"298.333 213 OFFCURVE",
"339 213 CURVE SMOOTH",
"375.667 213 OFFCURVE",
"406 212.333 OFFCURVE",
"430 211 CURVE",
"434 211 OFFCURVE",
"436 209.667 OFFCURVE",
"436 207 CURVE",
"450.667 121 OFFCURVE",
"458 75 OFFCURVE",
"458 69 CURVE SMOOTH",
"458 57 OFFCURVE",
"452.667 45.667 OFFCURVE",
"442 35 CURVE SMOOTH",
"395.333 -9.667 OFFCURVE",
"360.333 -46.5 OFFCURVE",
"337 -75.5 CURVE SMOOTH",
"313.667 -104.5 OFFCURVE",
"302 -131.333 OFFCURVE",
"302 -156 CURVE SMOOTH",
"302 -190.667 OFFCURVE",
"328.333 -216 OFFCURVE",
"359 -216 CURVE SMOOTH",
"397.667 -216 OFFCURVE",
"448.667 -185.333 OFFCURVE",
"478 -152 CURVE",
"482 -148 OFFCURVE",
"489.667 -118.333 OFFCURVE",
"483 -117 CURVE",
"477.845 -117 OFFCURVE",
"431.861 -144 OFFCURVE",
"406 -144 CURVE SMOOTH",
"387.333 -144 OFFCURVE",
"378 -132 OFFCURVE",
"378 -120 CURVE SMOOTH",
"378 -66.667 OFFCURVE",
"453.333 3 OFFCURVE",
"524 3 CURVE SMOOTH",
"540 3 OFFCURVE",
"563.833 1.833 OFFCURVE",
"595.5 -0.5 CURVE SMOOTH",
"627.167 -2.833 OFFCURVE",
"644 -4 OFFCURVE",
"646 -4 CURVE",
"650.667 2 OFFCURVE",
"653 11.667 OFFCURVE",
"653 25 CURVE SMOOTH",
"653 28.333 OFFCURVE",
"652.333 30 OFFCURVE",
"651 30 CURVE SMOOTH",
"636.333 30 OFFCURVE",
"595 44.667 OFFCURVE",
"591 66 CURVE SMOOTH",
"584.333 98.667 OFFCURVE",
"579.667 123.667 OFFCURVE",
"577 141 CURVE",
"472 659 LINE",
"470 664.333 OFFCURVE",
"466 667 OFFCURVE",
"460 667 CURVE SMOOTH",
"452 667 OFFCURVE",
"442.667 659.833 OFFCURVE",
"432 644.5 CURVE SMOOTH",
"426.667 636.833 OFFCURVE",
"422.167 630.5 OFFCURVE",
"418.5 625.5 CURVE SMOOTH",
"414.833 620.5 OFFCURVE",
"406.667 607.333 OFFCURVE",
"394 586 CURVE SMOOTH"
);
}
);
width = 677;
}
);
note = Aogonek;
unicode = 0104;
},
{
glyphname = AE;
lastChange = "2018-12-17 21:49:21 +0000";
layers = (
{
background = {
paths = (
{
closed = 1;
nodes = (
"564 657 OFFCURVE",
"521 658 OFFCURVE",
"510 659 QCURVE SMOOTH",
"500 660 LINE",
"499 660 OFFCURVE",
"494 640 OFFCURVE",
"494 634 QCURVE SMOOTH",
"494 624 OFFCURVE",
"508 624 OFFCURVE",
"517 623 OFFCURVE",
"529 610 OFFCURVE",
"527 598 QCURVE",
"522 574 OFFCURVE",
"451 494 QCURVE SMOOTH",
"137 134 LINE",
"78 67 LINE SMOOTH",
"61 49 OFFCURVE",
"8 29 OFFCURVE",
"-5 29 QCURVE SMOOTH",
"-6 29 OFFCURVE",
"-11 13 OFFCURVE",
"-11 8 QCURVE SMOOTH",
"-11 -2 OFFCURVE",
"-10 -4 QCURVE",
"5 -3 OFFCURVE",
"55 0 OFFCURVE",
"96 2 OFFCURVE",
"115 2 QCURVE SMOOTH",
"139 2 OFFCURVE",
"207 -4 OFFCURVE",
"215 -4 QCURVE",
"223 16 OFFCURVE",
"223 26 QCURVE SMOOTH",
"223 30 OFFCURVE",
"221 30 QCURVE SMOOTH",
"200 30 OFFCURVE",
"169 42 QCURVE SMOOTH",
"156 47 OFFCURVE",
"156 60 QCURVE SMOOTH",
"156 65 OFFCURVE",
"162 77 OFFCURVE",
"174 93 OFFCURVE",
"184 105 OFFCURVE",
"203 126 OFFCURVE",
"207 131 QCURVE",
"275 207 LINE",
"280 212 OFFCURVE",
"284 212 QCURVE SMOOTH",
"317 213 OFFCURVE",
"378 213 QCURVE SMOOTH",
"429 213 OFFCURVE",
"463 211 QCURVE",
"470 211 OFFCURVE",
"469 207 QCURVE",
"466 157 OFFCURVE",
"463 134 QCURVE SMOOTH",
"455 68 OFFCURVE",
"451 55 QCURVE",
"448 47 OFFCURVE",
"408 32 OFFCURVE",
"398 32 QCURVE SMOOTH",
"394 32 OFFCURVE",
"392 13 QCURVE SMOOTH",
"391 3 OFFCURVE",
"394 -4 QCURVE",
"525 2 LINE",
"566 2 OFFCURVE",
"790 -2 OFFCURVE",
"842 -2 QCURVE",
"849 20 OFFCURVE",
"916 170 QCURVE",
"912 176 OFFCURVE",
"889 176 QCURVE SMOOTH",
"878 176 OFFCURVE",
"875 170 QCURVE SMOOTH",
"860 139 OFFCURVE",
"818 90 OFFCURVE",
"802 82 QCURVE SMOOTH",
"748 54 OFFCURVE",
"687 54 QCURVE SMOOTH",
"662 54 LINE SMOOTH",
"603 54 OFFCURVE",
"600 70 QCURVE SMOOTH",
"595 94 OFFCURVE",
"600 141 QCURVE SMOOTH",
"616 295 LINE SMOOTH",
"617 304 OFFCURVE",
"684 304 QCURVE SMOOTH",
"745 304 OFFCURVE",
"756 296 QCURVE",
"757 296 OFFCURVE",
"762 292 OFFCURVE",
"764 290 OFFCURVE",
"768 282 OFFCURVE",
"770 272 OFFCURVE",
"774 252 OFFCURVE",
"776 238 QCURVE",
"778 230 OFFCURVE",
"790 230 QCURVE SMOOTH",
"806 230 OFFCURVE",
"810 234 QCURVE",
"829 423 LINE",
"826 428 OFFCURVE",
"810 428 QCURVE SMOOTH",
"797 428 OFFCURVE",
"794 421 QCURVE",
"778 374 OFFCURVE",
"765 365 QCURVE SMOOTH",
"756 359 OFFCURVE",
"712 359 QCURVE SMOOTH",
"663 359 LINE SMOOTH",
"623 359 OFFCURVE",
"623 367 QCURVE SMOOTH",
"623 368 LINE",
"639 519 LINE SMOOTH",
"643 570 OFFCURVE",
"652 597 QCURVE",
"655 610 OFFCURVE",
"714 610 QCURVE SMOOTH",
"765 610 LINE SMOOTH",
"804 610 OFFCURVE",
"871 560 OFFCURVE",
"877 518 QCURVE SMOOTH",
"878 511 OFFCURVE",
"889 511 QCURVE SMOOTH",
"906 511 OFFCURVE",
"911 516 QCURVE",
"911 576 OFFCURVE",
"915 664 QCURVE",
"863 664 OFFCURVE",
"632 657 OFFCURVE",
"591 657 QCURVE SMOOTH"
);
},
{
closed = 1;
nodes = (
"481 280 LINE",
"479 275 OFFCURVE",
"476 275 QCURVE",
"446 273 OFFCURVE",
"407 273 QCURVE SMOOTH",
"362 273 OFFCURVE",
"337 276 QCURVE",
"336 277 OFFCURVE",
"337 279 OFFCURVE",
"338 280 QCURVE",
"503 469 LINE"
);
}
);
};
layerId = "EE330C8E-4A1C-402A-831D-620872201BE1";
paths = (
{
closed = 1;
nodes = (
"555 657 OFFCURVE",
"524.667 657.667 OFFCURVE",
"510 659 CURVE SMOOTH",
"500 660 LINE",
"498.667 660 OFFCURVE",
"494 642 OFFCURVE",
"494 634 CURVE SMOOTH",
"494 614.874 OFFCURVE",
"531.654 625.923 OFFCURVE",
"527 598 CURVE",
"523.667 582 OFFCURVE",
"498.333 547.333 OFFCURVE",
"451 494 CURVE SMOOTH",
"137 134 LINE",
"78 67 LINE SMOOTH",
"55.333 43 OFFCURVE",
"12.333 29 OFFCURVE",
"-5 29 CURVE SMOOTH",
"-6.333 29 OFFCURVE",
"-11 14.667 OFFCURVE",
"-11 8 CURVE SMOOTH",
"-11 1.333 OFFCURVE",
"-10.667 -2.667 OFFCURVE",
"-10 -4 CURVE",
"20.379 -1.975 OFFCURVE",
"89.975 2 OFFCURVE",
"115 2 CURVE SMOOTH",
"131 2 OFFCURVE",
"150.333 1 OFFCURVE",
"173 -1 CURVE SMOOTH",
"195.667 -3 OFFCURVE",
"209.667 -4 OFFCURVE",
"215 -4 CURVE",
"220.333 9.333 OFFCURVE",
"223 19.333 OFFCURVE",
"223 26 CURVE SMOOTH",
"223 28.667 OFFCURVE",
"222.333 30 OFFCURVE",
"221 30 CURVE SMOOTH",
"207 30 OFFCURVE",
"189.667 34 OFFCURVE",
"169 42 CURVE SMOOTH",
"160.333 45.333 OFFCURVE",
"156 51.333 OFFCURVE",
"156 60 CURVE SMOOTH",
"156 66.667 OFFCURVE",
"160 74.333 OFFCURVE",
"168 85 CURVE SMOOTH",
"172 90.333 OFFCURVE",
"175.667 95 OFFCURVE",
"179 99 CURVE SMOOTH",
"182.333 103 OFFCURVE",
"191.667 113.667 OFFCURVE",
"207 131 CURVE SMOOTH",
"275 207 LINE",
"278.333 210.333 OFFCURVE",
"281.333 212 OFFCURVE",
"284 212 CURVE SMOOTH",
"306 212.667 OFFCURVE",
"337.333 213 OFFCURVE",
"378 213 CURVE SMOOTH",
"412 213 OFFCURVE",
"440.333 212.333 OFFCURVE",
"463 211 CURVE",
"467.667 211 OFFCURVE",
"469.667 209.667 OFFCURVE",
"469 207 CURVE",
"467 173.667 OFFCURVE",
"465 149.333 OFFCURVE",
"463 134 CURVE SMOOTH",
"457.667 90 OFFCURVE",
"453.667 63.667 OFFCURVE",
"451 55 CURVE",
"447 44.333 OFFCURVE",
"411.333 32 OFFCURVE",
"398 32 CURVE SMOOTH",
"395.333 32 OFFCURVE",
"393.333 25.667 OFFCURVE",
"392 13 CURVE SMOOTH",
"391.333 6.333 OFFCURVE",
"392 0.667 OFFCURVE",
"394 -4 CURVE",
"525 2 LINE",
"552.333 2 OFFCURVE",
"603.333 1.333 OFFCURVE",
"678 0 CURVE SMOOTH",
"752.667 -1.333 OFFCURVE",
"807.333 -2 OFFCURVE",
"842 -2 CURVE",
"846.667 12.667 OFFCURVE",
"871.333 70 OFFCURVE",
"916 170 CURVE",
"913.333 174 OFFCURVE",
"904.333 176 OFFCURVE",
"889 176 CURVE SMOOTH",
"881.667 176 OFFCURVE",
"877 174 OFFCURVE",
"875 170 CURVE SMOOTH",
"855 128.667 OFFCURVE",
"823.333 92.667 OFFCURVE",
"802 82 CURVE SMOOTH",
"766 63.333 OFFCURVE",
"727.667 54 OFFCURVE",
"687 54 CURVE SMOOTH",
"662 54 LINE SMOOTH",
"622.667 54 OFFCURVE",
"602 59.333 OFFCURVE",
"600 70 CURVE SMOOTH",
"596.667 86 OFFCURVE",
"596.667 109.667 OFFCURVE",
"600 141 CURVE SMOOTH",
"616 295 LINE SMOOTH",
"616.667 301 OFFCURVE",
"639.333 304 OFFCURVE",
"684 304 CURVE SMOOTH",
"724.667 304 OFFCURVE",
"748.667 301.333 OFFCURVE",
"756 296 CURVE",
"758.626 296 OFFCURVE",
"763.628 290.743 OFFCURVE",
"766 286 CURVE SMOOTH",
"768.916 280.169 OFFCURVE",
"773.015 258.894 OFFCURVE",
"776 238 CURVE",
"777.333 232.667 OFFCURVE",
"782 230 OFFCURVE",
"790 230 CURVE SMOOTH",
"800.667 230 OFFCURVE",
"807.333 231.333 OFFCURVE",
"810 234 CURVE",
"829 423 LINE",
"827 426.333 OFFCURVE",
"820.667 428 OFFCURVE",
"810 428 CURVE SMOOTH",
"801.333 428 OFFCURVE",
"796 425.667 OFFCURVE",
"794 421 CURVE",
"783.333 389.667 OFFCURVE",
"773.667 371 OFFCURVE",
"765 365 CURVE SMOOTH",
"759 361 OFFCURVE",
"741.333 359 OFFCURVE",
"712 359 CURVE SMOOTH",
"663 359 LINE SMOOTH",
"636.333 359 OFFCURVE",
"623 361.667 OFFCURVE",
"623 367 CURVE SMOOTH",
"623 368 LINE",
"639 519 LINE SMOOTH",
"641.667 553 OFFCURVE",
"646 579 OFFCURVE",
"652 597 CURVE",
"654 605.667 OFFCURVE",
"674.667 610 OFFCURVE",
"714 610 CURVE SMOOTH",
"765 610 LINE SMOOTH",
"817 610 OFFCURVE",
"869 574 OFFCURVE",
"877 518 CURVE SMOOTH",
"877.667 513.333 OFFCURVE",
"881.667 511 OFFCURVE",
"889 511 CURVE SMOOTH",
"900.333 511 OFFCURVE",
"907.667 512.667 OFFCURVE",
"911 516 CURVE",
"911 556 OFFCURVE",
"912.333 605.333 OFFCURVE",
"915 664 CURVE",
"880.333 664 OFFCURVE",
"824.5 662.833 OFFCURVE",
"747.5 660.5 CURVE SMOOTH",
"670.5 658.167 OFFCURVE",
"618.333 657 OFFCURVE",
"591 657 CURVE SMOOTH"
);
},
{
closed = 1;
nodes = (
"481 280 LINE",
"479.667 276.667 OFFCURVE",
"478 275 OFFCURVE",
"476 275 CURVE",
"456 273.667 OFFCURVE",
"433 273 OFFCURVE",
"407 273 CURVE SMOOTH",
"377 273 OFFCURVE",
"353.667 274 OFFCURVE",
"337 276 CURVE",
"335.667 277.333 OFFCURVE",
"336.667 278.667 OFFCURVE",
"338 280 CURVE",
"503 469 LINE"
);
}
);
width = 931;
}
);
note = AE;
unicode = 00C6;
},
{
glyphname = B;
lastChange = "2018-12-17 21:49:21 +0000";
layers = (
{
background = {
paths = (
{
closed = 1;
nodes = (
"392 157 OFFCURVE",
"343 76 OFFCURVE",
"314 64 QCURVE SMOOTH",
"293 55 OFFCURVE",
"268 55 QCURVE SMOOTH",
"237 55 OFFCURVE",
"206 59 OFFCURVE",
"196 66 OFFCURVE",
"196 72 QCURVE SMOOTH",
"196 76 OFFCURVE",
"196 76 QCURVE",
"240 301 LINE",
"242 315 OFFCURVE",
"300 315 QCURVE SMOOTH",
"392 315 OFFCURVE",
"392 224 QCURVE SMOOTH"
);
},
{
closed = 1;
nodes = (
"533 277 OFFCURVE",
"483 343 OFFCURVE",
"457 348 QCURVE",
"457 348 OFFCURVE",
"464 352 OFFCURVE",
"477 360 OFFCURVE",
"494 372 OFFCURVE",
"512 389 OFFCURVE",
"531 409 OFFCURVE",
"547 435 OFFCURVE",
"560 464 OFFCURVE",
"568 499 OFFCURVE",
"568 518 QCURVE SMOOTH",
"568 555 OFFCURVE",
"535 612 OFFCURVE",
"482 645 OFFCURVE",
"422 661 OFFCURVE",
"391 661 QCURVE SMOOTH",
"385 661 OFFCURVE",
"306 659 OFFCURVE",
"247 659 QCURVE SMOOTH",
"185 659 OFFCURVE",
"116 662 QCURVE",
"109 655 OFFCURVE",
"109 635 QCURVE SMOOTH",
"109 628 OFFCURVE",
"111 628 QCURVE SMOOTH",
"120 628 OFFCURVE",
"161 607 OFFCURVE",
"162 599 QCURVE",
"163 585 OFFCURVE",
"152 521 QCURVE SMOOTH",
"79 143 LINE SMOOTH",
"66 76 OFFCURVE",
"54 55 QCURVE SMOOTH",
"49 46 OFFCURVE",
"5 30 OFFCURVE",
"-5 30 QCURVE SMOOTH",
"-6 30 OFFCURVE",
"-10 23 OFFCURVE",
"-13 11 OFFCURVE",
"-13 5 QCURVE SMOOTH",
"-13 -2 OFFCURVE",
"-11 -4 QCURVE",
"0 -4 OFFCURVE",
"74 2 OFFCURVE",
"108 2 QCURVE SMOOTH",
"110 2 OFFCURVE",
"261 0 OFFCURVE",
"262 0 QCURVE SMOOTH",
"377 0 OFFCURVE",
"533 126 OFFCURVE",
"533 226 QCURVE SMOOTH"
);
},
{
closed = 1;
nodes = (
"428 449 OFFCURVE",
"360 371 OFFCURVE",
"302 371 QCURVE SMOOTH",
"253 371 OFFCURVE",
"256 385 QCURVE SMOOTH",
"296 590 LINE",
"299 600 OFFCURVE",
"326 606 OFFCURVE",
"355 606 QCURVE SMOOTH",
"392 606 OFFCURVE",
"428 571 OFFCURVE",
"428 529 QCURVE SMOOTH"
);
}
);
};
layerId = "EE330C8E-4A1C-402A-831D-620872201BE1";
paths = (
{
closed = 1;
nodes = (
"392 134.667 OFFCURVE",
"352.667 80 OFFCURVE",
"314 64 CURVE SMOOTH",
"300 58 OFFCURVE",
"284.667 55 OFFCURVE",
"268 55 CURVE SMOOTH",
"230.963 55 OFFCURVE",
"196 55.082 OFFCURVE",
"196 72 CURVE SMOOTH",
"196 74.667 OFFCURVE",
"196 76 OFFCURVE",
"196 76 CURVE",
"240 301 LINE",
"241.333 310.333 OFFCURVE",
"261.333 315 OFFCURVE",
"300 315 CURVE SMOOTH",
"361.333 315 OFFCURVE",
"392 284.667 OFFCURVE",
"392 224 CURVE SMOOTH"
);
},
{
closed = 1;
nodes = (
"533 294 OFFCURVE",
"491.667 341.333 OFFCURVE",
"457 348 CURVE",
"-9223372036854775808 -9223372036854775808 OFFCURVE",
"463.996 351.998 OFFCURVE",
"470.5 356 CURVE SMOOTH",
"479.167 361.333 OFFCURVE",
"491 369.167 OFFCURVE",
"503 380.5 CURVE SMOOTH",
"546.541 421.622 OFFCURVE",
"557.029 443.947 OFFCURVE",
"568 518 CURVE",
"568 614.292 OFFCURVE",
"479.236 661 OFFCURVE",
"391 661 CURVE SMOOTH",
"387 661 OFFCURVE",
"371.833 660.667 OFFCURVE",
"345.5 660 CURVE SMOOTH",
"319.167 659.333 OFFCURVE",
"286.333 659 OFFCURVE",
"247 659 CURVE SMOOTH",
"205.667 659 OFFCURVE",
"162 660 OFFCURVE",
"116 662 CURVE",
"111.333 657.333 OFFCURVE",
"109 648.333 OFFCURVE",
"109 635 CURVE SMOOTH",
"109 630.333 OFFCURVE",
"109.667 628 OFFCURVE",
"111 628 CURVE SMOOTH",
"123 628 OFFCURVE",
"160.667 609.667 OFFCURVE",
"162 599 CURVE",
"162.667 589.667 OFFCURVE",
"159.333 563.667 OFFCURVE",
"152 521 CURVE SMOOTH",
"79 143 LINE SMOOTH",
"70.333 98.333 OFFCURVE",
"62 69 OFFCURVE",
"54 55 CURVE SMOOTH",
"47.333 43 OFFCURVE",
"8.333 30 OFFCURVE",
"-5 30 CURVE SMOOTH",
"-9.047 30 OFFCURVE",
"-13 12.128 OFFCURVE",
"-13 5 CURVE SMOOTH",
"-13 0.333 OFFCURVE",
"-12.333 -2.667 OFFCURVE",
"-11 -4 CURVE",
"-3.667 -4 OFFCURVE",
"12.333 -3 OFFCURVE",
"37 -1 CURVE SMOOTH",
"61.667 1 OFFCURVE",
"85.333 2 OFFCURVE",
"108 2 CURVE SMOOTH",
"109.333 2 OFFCURVE",
"135.167 1.667 OFFCURVE",
"185.5 1 CURVE SMOOTH",
"235.833 0.333 OFFCURVE",
"261.333 0 OFFCURVE",
"262 0 CURVE SMOOTH",
"415.333 0 OFFCURVE",
"533 92.667 OFFCURVE",
"533 226 CURVE SMOOTH"
);
},
{
closed = 1;
nodes = (
"428 422.333 OFFCURVE",
"379.333 371 OFFCURVE",
"302 371 CURVE SMOOTH",
"269.333 371 OFFCURVE",
"254 375.667 OFFCURVE",
"256 385 CURVE SMOOTH",
"296 590 LINE",
"298 596.667 OFFCURVE",
"303.5 601 OFFCURVE",
"312.5 603 CURVE SMOOTH",
"321.5 605 OFFCURVE",
"335.667 606 OFFCURVE",
"355 606 CURVE SMOOTH",
"404.333 606 OFFCURVE",
"428 585 OFFCURVE",
"428 529 CURVE SMOOTH"
);
}
);
width = 561;
}
);
note = B;
unicode = 0042;
},
{
glyphname = C;
lastChange = "2018-12-17 21:49:21 +0000";
layers = (
{
background = {
paths = (
{
closed = 1;
nodes = (
"325 667 OFFCURVE",
"189 602 OFFCURVE",
"80 495 OFFCURVE",
"11 341 OFFCURVE",
"11 259 QCURVE SMOOTH",
"11 144 OFFCURVE",
"167 -7 OFFCURVE",
"298 -7 QCURVE SMOOTH",
"447 -7 OFFCURVE",
"504 44 QCURVE SMOOTH",
"512 51 OFFCURVE",
"541 141 OFFCURVE",
"544 155 QCURVE",
"541 168 OFFCURVE",
"515 168 QCURVE SMOOTH",
"514 168 OFFCURVE",
"499 138 OFFCURVE",
"469 95 OFFCURVE",
"452 83 QCURVE SMOOTH",
"429 67 OFFCURVE",
"347 47 OFFCURVE",
"305 47 QCURVE SMOOTH",
"231 47 OFFCURVE",
"156 157 OFFCURVE",
"156 247 QCURVE SMOOTH",
"156 344 OFFCURVE",
"215 511 OFFCURVE",
"321 611 OFFCURVE",
"385 611 QCURVE SMOOTH",
"422 611 OFFCURVE",
"481 590 OFFCURVE",
"515 561 OFFCURVE",
"537 522 OFFCURVE",
"545 492 OFFCURVE",
"546 478 QCURVE",
"558 475 OFFCURVE",
"560 475 QCURVE SMOOTH",
"569 475 OFFCURVE",
"586 483 OFFCURVE",
"588 490 QCURVE",
"589 497 OFFCURVE",
"598 626 OFFCURVE",
"598 638 QCURVE",
"493 667 OFFCURVE",
"391 667 QCURVE SMOOTH"
);
}
);
};
layerId = "EE330C8E-4A1C-402A-831D-620872201BE1";
paths = (
{
closed = 1;
nodes = (
"303 667 OFFCURVE",
"207.167 619.833 OFFCURVE",
"134.5 548.5 CURVE SMOOTH",
"61.833 477.167 OFFCURVE",
"11 368.333 OFFCURVE",
"11 259 CURVE SMOOTH",
"11 105.667 OFFCURVE",
"123.333 -7 OFFCURVE",
"298 -7 CURVE SMOOTH",
"397.333 -7 OFFCURVE",
"466 10 OFFCURVE",
"504 44 CURVE SMOOTH",
"514.667 53.333 OFFCURVE",
"540 136.333 OFFCURVE",
"544 155 CURVE",
"542 163.667 OFFCURVE",
"532.333 168 OFFCURVE",
"515 168 CURVE SMOOTH",
"513.411 168 OFFCURVE",
"466.133 92.976 OFFCURVE",
"452 83 CURVE SMOOTH",
"421.333 61.667 OFFCURVE",
"361 47 OFFCURVE",
"305 47 CURVE SMOOTH",
"206.333 47 OFFCURVE",
"156 127 OFFCURVE",
"156 247 CURVE SMOOTH",
"156 376.333 OFFCURVE",
"197.333 494.333 OFFCURVE",
"268 561 CURVE SMOOTH",
"303.333 594.333 OFFCURVE",
"342.333 611 OFFCURVE",
"385 611 CURVE SMOOTH",
"434.333 611 OFFCURVE",
"475.333 594.833 OFFCURVE",
"498 575.5 CURVE SMOOTH",
"520.667 556.167 OFFCURVE",
"534 536.667 OFFCURVE",
"546 478 CURVE",
"554 476 OFFCURVE",
"558.667 475 OFFCURVE",
"560 475 CURVE SMOOTH",
"572 475 OFFCURVE",
"585.333 480.667 OFFCURVE",
"588 490 CURVE",
"589.333 499.333 OFFCURVE",
"598 622 OFFCURVE",
"598 638 CURVE",
"528 657.333 OFFCURVE",
"459 667 OFFCURVE",
"391 667 CURVE SMOOTH"
);
}
);
width = 587;
}
);
note = C;
unicode = 0043;
},
{
glyphname = D;
lastChange = "2018-12-17 21:49:21 +0000";
layers = (
{
background = {
paths = (
{
closed = 1;
nodes = (
"142 2 OFFCURVE",
"261 -3 OFFCURVE",
"279 -3 QCURVE SMOOTH",
"351 -3 OFFCURVE",
"479 46 OFFCURVE",
"572 128 OFFCURVE",
"641 233 OFFCURVE",
"675 348 OFFCURVE",
"675 404 QCURVE SMOOTH",
"675 457 OFFCURVE",
"643 547 OFFCURVE",
"580 618 OFFCURVE",
"476 659 OFFCURVE",
"409 659 QCURVE SMOOTH",
"247 659 LINE SMOOTH",
"185 659 OFFCURVE",
"116 662 QCURVE",
"109 655 OFFCURVE",
"109 635 QCURVE SMOOTH",
"109 628 OFFCURVE",
"111 628 QCURVE SMOOTH",
"120 628 OFFCURVE",
"161 607 OFFCURVE",
"162 599 QCURVE",
"163 585 OFFCURVE",
"152 521 QCURVE SMOOTH",
"79 143 LINE SMOOTH",
"66 76 OFFCURVE",
"54 55 QCURVE SMOOTH",
"49 46 OFFCURVE",
"5 30 OFFCURVE",
"-5 30 QCURVE SMOOTH",
"-6 30 OFFCURVE",
"-10 23 OFFCURVE",
"-13 11 OFFCURVE",
"-13 5 QCURVE SMOOTH",
"-13 -2 OFFCURVE",
"-11 -4 QCURVE",
"0 -4 OFFCURVE",
"74 2 OFFCURVE",
"108 2 QCURVE SMOOTH"
);
},
{
closed = 1;
nodes = (
"444 603 OFFCURVE",
"503 560 OFFCURVE",
"529 487 OFFCURVE",
"535 392 OFFCURVE",
"524 340 QCURVE SMOOTH",
"496 197 OFFCURVE",
"383 53 OFFCURVE",
"305 53 QCURVE SMOOTH",
"219 53 OFFCURVE",
"202 66 QCURVE SMOOTH",
"195 71 OFFCURVE",
"208 136 QCURVE SMOOTH",
"283 524 LINE SMOOTH",
"290 568 OFFCURVE",
"307 587 QCURVE SMOOTH",
"321 603 OFFCURVE",
"403 603 QCURVE SMOOTH"
);
}
);
};
layerId = "EE330C8E-4A1C-402A-831D-620872201BE1";
paths = (
{
closed = 1;
nodes = (
"130.667 2 OFFCURVE",
"161.833 1.167 OFFCURVE",
"201.5 -0.5 CURVE SMOOTH",
"241.167 -2.167 OFFCURVE",
"267 -3 OFFCURVE",
"279 -3 CURVE SMOOTH",
"375 -3 OFFCURVE",
"463.5 32.333 OFFCURVE",
"525.5 87 CURVE SMOOTH",
"556.5 114.333 OFFCURVE",
"583.5 145.5 OFFCURVE",
"606.5 180.5 CURVE SMOOTH",
"629.5 215.5 OFFCURVE",
"652.333 290 OFFCURVE",
"675 404 CURVE",
"675 474.667 OFFCURVE",
"653.5 535.167 OFFCURVE",
"611.5 582.5 CURVE SMOOTH",
"569.5 629.833 OFFCURVE",
"498.333 659 OFFCURVE",
"409 659 CURVE SMOOTH",
"247 659 LINE SMOOTH",
"205.667 659 OFFCURVE",
"162 660 OFFCURVE",
"116 662 CURVE",
"111.333 657.333 OFFCURVE",
"109 648.333 OFFCURVE",
"109 635 CURVE SMOOTH",
"109 630.333 OFFCURVE",
"109.667 628 OFFCURVE",
"111 628 CURVE SMOOTH",
"123 628 OFFCURVE",
"160.667 609.667 OFFCURVE",
"162 599 CURVE",
"162.667 589.667 OFFCURVE",
"159.333 563.667 OFFCURVE",
"152 521 CURVE SMOOTH",
"79 143 LINE SMOOTH",
"70.333 98.333 OFFCURVE",
"62 69 OFFCURVE",
"54 55 CURVE SMOOTH",
"47.333 43 OFFCURVE",
"8.333 30 OFFCURVE",
"-5 30 CURVE SMOOTH",
"-9.047 30 OFFCURVE",
"-13 12.128 OFFCURVE",
"-13 5 CURVE SMOOTH",
"-13 0.333 OFFCURVE",
"-12.333 -2.667 OFFCURVE",
"-11 -4 CURVE",
"-3.667 -4 OFFCURVE",
"12.333 -3 OFFCURVE",
"37 -1 CURVE SMOOTH",
"61.667 1 OFFCURVE",
"85.333 2 OFFCURVE",
"108 2 CURVE SMOOTH"
);
},
{
closed = 1;
nodes = (
"513.143 603 OFFCURVE",
"553.4 478.982 OFFCURVE",
"524 340 CURVE SMOOTH",
"486.667 149.333 OFFCURVE",
"409 53 OFFCURVE",
"305 53 CURVE SMOOTH",
"247.667 53 OFFCURVE",
"213.333 57.333 OFFCURVE",
"202 66 CURVE SMOOTH",
"197.333 69.333 OFFCURVE",
"199.333 92.667 OFFCURVE",
"208 136 CURVE SMOOTH",
"283 524 LINE SMOOTH",
"287.667 553.333 OFFCURVE",
"295.667 574.333 OFFCURVE",
"307 587 CURVE SMOOTH",
"316.333 597.667 OFFCURVE",
"348.333 603 OFFCURVE",
"403 603 CURVE SMOOTH"
);
}
);
width = 678;
}
);
note = D;
unicode = 0044;
},
{
glyphname = Eth;
lastChange = "2018-12-17 21:49:21 +0000";
layers = (
{
background = {
paths = (
{
closed = 1;
nodes = (
"253 351 LINE",
"287 524 LINE",
"294 568 OFFCURVE",
"311 587 QCURVE SMOOTH",
"325 603 OFFCURVE",
"405 603 QCURVE SMOOTH",
"409 603 LINE SMOOTH",
"489 603 OFFCURVE",
"551 450 OFFCURVE",
"530 340 QCURVE SMOOTH",
"502 197 OFFCURVE",
"387 53 OFFCURVE",
"309 53 QCURVE SMOOTH",
"223 53 OFFCURVE",
"206 66 QCURVE SMOOTH",
"199 71 OFFCURVE",
"212 136 QCURVE SMOOTH",
"239 279 LINE",
"361 279 LINE",
"362 279 LINE SMOOTH",
"364 279 OFFCURVE",
"368 282 OFFCURVE",
"369 285 QCURVE",
"384 319 OFFCURVE",
"390 344 QCURVE",
"391 351 OFFCURVE",
"384 351 QCURVE SMOOTH"
);
},
{
closed = 1;
nodes = (
"75 351 LINE",
"74 351 LINE SMOOTH",
"72 351 OFFCURVE",
"68 349 OFFCURVE",
"67 346 QCURVE",
"59 328 OFFCURVE",
"49 289 QCURVE",
"52 279 LINE",
"109 279 LINE",
"81 135 LINE SMOOTH",
"71 80 OFFCURVE",
"60 54 QCURVE",
"55 46 OFFCURVE",
"11 32 OFFCURVE",
"0 32 QCURVE SMOOTH",
"-3 32 OFFCURVE",
"-8 13 QCURVE",
"-10 3 OFFCURVE",
"-7 -4 QCURVE",
"125 2 LINE",
"159 2 OFFCURVE",
"265 -3 OFFCURVE",
"283 -3 QCURVE SMOOTH",
"433 -3 OFFCURVE",
"643 191 OFFCURVE",
"671 336 QCURVE",
"678 385 OFFCURVE",
"675 477 OFFCURVE",
"636 560 OFFCURVE",
"575 623 OFFCURVE",
"476 659 OFFCURVE",
"413 659 QCURVE SMOOTH",
"251 659 LINE SMOOTH",
"189 659 OFFCURVE",
"124 664 QCURVE",
"119 659 OFFCURVE",
"117 643 QCURVE SMOOTH",
"115 628 OFFCURVE",
"117 628 QCURVE SMOOTH",
"126 628 OFFCURVE",
"165 607 OFFCURVE",
"166 599 QCURVE",
"167 582 OFFCURVE",
"156 521 QCURVE SMOOTH",
"123 351 LINE"
);
}
);
};
layerId = "EE330C8E-4A1C-402A-831D-620872201BE1";
paths = (
{
closed = 1;
nodes = (
"253 351 LINE",
"287 524 LINE",
"291.667 553.333 OFFCURVE",
"299.667 574.333 OFFCURVE",
"311 587 CURVE SMOOTH",
"320.333 597.667 OFFCURVE",
"351.667 603 OFFCURVE",
"405 603 CURVE SMOOTH",
"409 603 LINE SMOOTH",
"515.667 603 OFFCURVE",
"558 486.667 OFFCURVE",
"530 340 CURVE SMOOTH",
"492.667 149.333 OFFCURVE",
"413 53 OFFCURVE",
"309 53 CURVE SMOOTH",
"251.667 53 OFFCURVE",
"217.333 57.333 OFFCURVE",
"206 66 CURVE SMOOTH",
"201.333 69.333 OFFCURVE",
"203.333 92.667 OFFCURVE",
"212 136 CURVE SMOOTH",
"239 279 LINE",
"361 279 LINE",
"362 279 LINE SMOOTH",
"364.667 279 OFFCURVE",
"367.667 281 OFFCURVE",
"369 285 CURVE",
"379 307.667 OFFCURVE",
"386 327.333 OFFCURVE",
"390 344 CURVE",
"390.667 348.667 OFFCURVE",
"388.667 351 OFFCURVE",
"384 351 CURVE SMOOTH"
);
},
{
closed = 1;
nodes = (
"75 351 LINE",
"74 351 LINE SMOOTH",
"71.333 351 OFFCURVE",
"68.333 350 OFFCURVE",
"67 346 CURVE",
"61.667 334 OFFCURVE",
"55.667 315 OFFCURVE",
"49 289 CURVE",
"52 279 LINE",
"109 279 LINE",
"81 135 LINE SMOOTH",
"74.333 98.333 OFFCURVE",
"67.333 71.333 OFFCURVE",
"60 54 CURVE",
"53.333 43.333 OFFCURVE",
"14.667 32 OFFCURVE",
"0 32 CURVE SMOOTH",
"-2 32 OFFCURVE",
"-4.667 25.667 OFFCURVE",
"-8 13 CURVE",
"-9.333 6.333 OFFCURVE",
"-9 0.667 OFFCURVE",
"-7 -4 CURVE",
"125 2 LINE",
"147.667 2 OFFCURVE",
"176.667 1.167 OFFCURVE",
"212 -0.5 CURVE SMOOTH",
"247.333 -2.167 OFFCURVE",
"271 -3 OFFCURVE",
"283 -3 CURVE SMOOTH",
"483 -3 OFFCURVE",
"633.667 142.667 OFFCURVE",
"671 336 CURVE",
"680.333 401.333 OFFCURVE",
"681.5 463.167 OFFCURVE",
"655.5 518.5 CURVE SMOOTH",
"642.5 546.167 OFFCURVE",
"625.833 570.5 OFFCURVE",
"605.5 591.5 CURVE SMOOTH",
"585.167 612.5 OFFCURVE",
"521 635 OFFCURVE",
"413 659 CURVE",
"251 659 LINE SMOOTH",
"209.667 659 OFFCURVE",
"167.333 660.667 OFFCURVE",
"124 664 CURVE",
"120.667 660.667 OFFCURVE",
"118.333 653.667 OFFCURVE",
"117 643 CURVE SMOOTH",
"115.667 633 OFFCURVE",
"115.667 628 OFFCURVE",
"117 628 CURVE SMOOTH",
"129 628 OFFCURVE",
"164.667 609.667 OFFCURVE",
"166 599 CURVE",
"166.667 587.667 OFFCURVE",
"163.333 561.667 OFFCURVE",
"156 521 CURVE SMOOTH",
"123 351 LINE"
);
}
);
width = 689;
}
);
note = Eth;
unicode = 00D0;
},
{
glyphname = E;
lastChange = "2018-12-17 21:49:21 +0000";
layers = (
{
background = {
paths = (
{
closed = 1;
nodes = (
"148 2 OFFCURVE",
"384 -2 OFFCURVE",
"437 -2 QCURVE",
"442 13 OFFCURVE",
"465 62 OFFCURVE",
"481 95 OFFCURVE",
"517 162 OFFCURVE",
"521 170 QCURVE",
"517 176 OFFCURVE",
"494 176 QCURVE SMOOTH",
"483 176 OFFCURVE",
"480 170 QCURVE",
"463 139 OFFCURVE",
"413 89 OFFCURVE",
"396 80 QCURVE SMOOTH",
"344 54 OFFCURVE",
"286 54 QCURVE SMOOTH",
"262 54 LINE SMOOTH",
"220 54 OFFCURVE",
"201 64 OFFCURVE",
"201 82 QCURVE SMOOTH",
"201 101 OFFCURVE",
"209 141 QCURVE SMOOTH",
"238 295 LINE SMOOTH",
"240 304 OFFCURVE",
"307 304 QCURVE SMOOTH",
"370 304 OFFCURVE",
"382 292 QCURVE SMOOTH",
"391 283 OFFCURVE",
"393 238 QCURVE",
"395 230 OFFCURVE",
"406 230 QCURVE SMOOTH",
"423 230 OFFCURVE",
"427 234 QCURVE",
"463 423 LINE",
"460 428 OFFCURVE",
"444 428 QCURVE SMOOTH",
"431 428 OFFCURVE",
"428 421 QCURVE SMOOTH",
"408 376 OFFCURVE",
"392 359 OFFCURVE",
"370 359 QCURVE SMOOTH",
"291 359 LINE SMOOTH",
"273 359 OFFCURVE",
"251 362 OFFCURVE",
"252 365 QCURVE",
"282 519 LINE SMOOTH",
"290 564 OFFCURVE",
"302 597 QCURVE SMOOTH",
"305 605 OFFCURVE",
"333 610 OFFCURVE",
"365 610 QCURVE SMOOTH",
"400 610 LINE SMOOTH",
"436 610 OFFCURVE",
"501 556 OFFCURVE",
"512 518 QCURVE",
"513 511 OFFCURVE",
"524 511 QCURVE SMOOTH",
"541 511 OFFCURVE",
"546 516 QCURVE",
"546 573 LINE SMOOTH",
"546 634 OFFCURVE",
"548 664 QCURVE",
"494 664 OFFCURVE",
"300 659 OFFCURVE",
"247 659 QCURVE SMOOTH",
"196 659 OFFCURVE",
"116 662 QCURVE",
"109 655 OFFCURVE",
"109 635 QCURVE SMOOTH",
"109 628 OFFCURVE",
"111 628 QCURVE SMOOTH",
"120 628 OFFCURVE",
"161 607 OFFCURVE",
"162 599 QCURVE",
"163 585 OFFCURVE",
"152 521 QCURVE SMOOTH",
"79 143 LINE SMOOTH",
"66 76 OFFCURVE",
"54 55 QCURVE SMOOTH",
"49 46 OFFCURVE",
"5 30 OFFCURVE",
"-5 30 QCURVE SMOOTH",
"-6 30 OFFCURVE",
"-10 23 OFFCURVE",
"-13 11 OFFCURVE",
"-13 5 QCURVE SMOOTH",
"-13 -2 OFFCURVE",
"-11 -4 QCURVE",
"0 -4 OFFCURVE",
"74 2 OFFCURVE",
"108 2 QCURVE SMOOTH"
);
}
);
};
layerId = "EE330C8E-4A1C-402A-831D-620872201BE1";
paths = (
{
closed = 1;
nodes = (
"134.667 2 OFFCURVE",
"187.333 1.333 OFFCURVE",
"266 0 CURVE SMOOTH",
"344.667 -1.333 OFFCURVE",
"401.667 -2 OFFCURVE",
"437 -2 CURVE",
"450.939 39.817 OFFCURVE",
"503.032 134.065 OFFCURVE",
"521 170 CURVE",
"518.333 174 OFFCURVE",
"509.333 176 OFFCURVE",
"494 176 CURVE SMOOTH",
"486.667 176 OFFCURVE",
"482 174 OFFCURVE",
"480 170 CURVE",
"457.333 128.667 OFFCURVE",
"418.667 92 OFFCURVE",
"396 80 CURVE SMOOTH",
"361.333 62.667 OFFCURVE",
"324.667 54 OFFCURVE",
"286 54 CURVE SMOOTH",
"262 54 LINE SMOOTH",
"234 54 OFFCURVE",
"216.833 55.667 OFFCURVE",
"210.5 59 CURVE SMOOTH",
"204.167 62.333 OFFCURVE",
"201 70 OFFCURVE",
"201 82 CURVE SMOOTH",
"201 94.667 OFFCURVE",
"203.667 114.333 OFFCURVE",
"209 141 CURVE SMOOTH",
"238 295 LINE SMOOTH",
"239.333 301 OFFCURVE",
"262.333 304 OFFCURVE",
"307 304 CURVE SMOOTH",
"349 304 OFFCURVE",
"374 300 OFFCURVE",
"382 292 CURVE SMOOTH",
"388 286 OFFCURVE",
"391.667 268 OFFCURVE",
"393 238 CURVE",
"394.333 232.667 OFFCURVE",
"398.667 230 OFFCURVE",
"406 230 CURVE SMOOTH",
"417.333 230 OFFCURVE",
"424.333 231.333 OFFCURVE",
"427 234 CURVE",
"463 423 LINE",
"461 426.333 OFFCURVE",
"454.667 428 OFFCURVE",
"444 428 CURVE SMOOTH",
"435.333 428 OFFCURVE",
"430 425.667 OFFCURVE",
"428 421 CURVE SMOOTH",
"414.667 391 OFFCURVE",
"405.333 373.167 OFFCURVE",
"400 367.5 CURVE SMOOTH",
"394.667 361.833 OFFCURVE",
"384.667 359 OFFCURVE",
"370 359 CURVE SMOOTH",
"291 359 LINE SMOOTH",
"279 359 OFFCURVE",
"269.333 359.5 OFFCURVE",
"262 360.5 CURVE SMOOTH",
"254.667 361.5 OFFCURVE",
"251.333 363 OFFCURVE",
"252 365 CURVE",
"282 519 LINE SMOOTH",
"287.333 549 OFFCURVE",
"294 575 OFFCURVE",
"302 597 CURVE SMOOTH",
"304 602.333 OFFCURVE",
"309.667 605.833 OFFCURVE",
"319 607.5 CURVE SMOOTH",
"328.333 609.167 OFFCURVE",
"343.667 610 OFFCURVE",
"365 610 CURVE SMOOTH",
"400 610 LINE SMOOTH",
"448 610 OFFCURVE",
"497.333 568.667 OFFCURVE",
"512 518 CURVE",
"512.667 513.333 OFFCURVE",
"516.667 511 OFFCURVE",
"524 511 CURVE SMOOTH",
"535.333 511 OFFCURVE",
"542.667 512.667 OFFCURVE",
"546 516 CURVE",
"546 573 LINE SMOOTH",
"546 613.667 OFFCURVE",
"546.667 644 OFFCURVE",
"548 664 CURVE",
"512 664 OFFCURVE",
"461.667 663.167 OFFCURVE",
"397 661.5 CURVE SMOOTH",
"332.333 659.833 OFFCURVE",
"282.333 659 OFFCURVE",
"247 659 CURVE SMOOTH",
"213 659 OFFCURVE",
"169.333 660 OFFCURVE",
"116 662 CURVE",
"111.333 657.333 OFFCURVE",
"109 648.333 OFFCURVE",
"109 635 CURVE SMOOTH",
"109 630.333 OFFCURVE",
"109.667 628 OFFCURVE",
"111 628 CURVE SMOOTH",
"123 628 OFFCURVE",
"160.667 609.667 OFFCURVE",
"162 599 CURVE",
"162.667 589.667 OFFCURVE",
"159.333 563.667 OFFCURVE",
"152 521 CURVE SMOOTH",
"79 143 LINE SMOOTH",
"70.333 98.333 OFFCURVE",
"62 69 OFFCURVE",
"54 55 CURVE SMOOTH",
"47.333 43 OFFCURVE",
"8.333 30 OFFCURVE",
"-5 30 CURVE SMOOTH",
"-9.047 30 OFFCURVE",
"-13 12.128 OFFCURVE",
"-13 5 CURVE SMOOTH",
"-13 0.333 OFFCURVE",
"-12.333 -2.667 OFFCURVE",
"-11 -4 CURVE",
"-3.667 -4 OFFCURVE",
"12.333 -3 OFFCURVE",
"37 -1 CURVE SMOOTH",
"61.667 1 OFFCURVE",
"85.333 2 OFFCURVE",
"108 2 CURVE SMOOTH"
);
}
);
width = 542;
}
);
note = E;
unicode = 0045;
},
{
glyphname = Eogonek;
lastChange = "2018-12-17 21:49:21 +0000";
layers = (
{
background = {
paths = (
{
closed = 1;
nodes = (
"453 27 OFFCURVE",
"527 170 QCURVE",
"523 176 OFFCURVE",
"500 176 QCURVE SMOOTH",
"489 176 OFFCURVE",
"486 170 QCURVE",
"469 139 OFFCURVE",
"419 89 OFFCURVE",
"402 80 QCURVE SMOOTH",
"350 54 OFFCURVE",
"292 54 QCURVE SMOOTH",
"268 54 LINE SMOOTH",
"226 54 OFFCURVE",
"207 64 OFFCURVE",
"207 82 QCURVE SMOOTH",
"207 101 OFFCURVE",
"215 141 QCURVE SMOOTH",
"244 295 LINE SMOOTH",
"246 304 OFFCURVE",
"313 304 QCURVE SMOOTH",
"376 304 OFFCURVE",
"388 292 QCURVE SMOOTH",
"397 283 OFFCURVE",
"399 238 QCURVE",
"401 230 OFFCURVE",
"412 230 QCURVE SMOOTH",
"429 230 OFFCURVE",
"433 234 QCURVE",
"469 423 LINE",
"466 428 OFFCURVE",
"450 428 QCURVE SMOOTH",
"437 428 OFFCURVE",
"434 421 QCURVE SMOOTH",
"414 376 OFFCURVE",
"398 359 OFFCURVE",
"376 359 QCURVE SMOOTH",
"297 359 LINE SMOOTH",
"289 359 OFFCURVE",
"276 359 OFFCURVE",
"264 361 OFFCURVE",
"258 363 OFFCURVE",
"258 365 QCURVE",
"288 519 LINE SMOOTH",
"296 564 OFFCURVE",
"308 597 QCURVE",
"312 610 OFFCURVE",
"371 610 QCURVE SMOOTH",
"406 610 LINE SMOOTH",
"442 610 OFFCURVE",
"507 556 OFFCURVE",
"518 518 QCURVE",
"519 511 OFFCURVE",
"530 511 QCURVE SMOOTH",
"547 511 OFFCURVE",
"552 516 QCURVE",
"552 573 LINE SMOOTH",
"552 634 OFFCURVE",
"554 664 QCURVE",
"500 664 OFFCURVE",
"306 659 OFFCURVE",
"253 659 QCURVE SMOOTH",
"202 659 OFFCURVE",
"122 662 QCURVE",
"115 655 OFFCURVE",
"115 635 QCURVE SMOOTH",
"115 628 OFFCURVE",
"117 628 QCURVE SMOOTH",
"127 628 OFFCURVE",
"167 607 OFFCURVE",
"168 599 QCURVE",
"169 585 OFFCURVE",
"158 521 QCURVE SMOOTH",
"85 143 LINE SMOOTH",
"72 76 OFFCURVE",
"60 55 QCURVE SMOOTH",
"55 46 OFFCURVE",
"11 30 OFFCURVE",
"1 30 QCURVE SMOOTH",
"0 30 OFFCURVE",
"-4 23 OFFCURVE",
"-7 11 OFFCURVE",
"-7 5 QCURVE SMOOTH",
"-7 -2 OFFCURVE",
"-5 -4 QCURVE",
"6 -4 OFFCURVE",
"80 2 OFFCURVE",
"148 2 OFFCURVE",
"319 -1 OFFCURVE",
"337 -1 QCURVE",
"303 -20 OFFCURVE",
"223 -119 OFFCURVE",
"223 -156 QCURVE SMOOTH",
"223 -182 OFFCURVE",
"257 -216 OFFCURVE",
"280 -216 QCURVE SMOOTH",
"309 -216 OFFCURVE",
"377 -177 OFFCURVE",
"399 -152 QCURVE",
"402 -149 OFFCURVE",
"409 -118 OFFCURVE",
"404 -117 QCURVE",
"403 -117 OFFCURVE",
"383 -130 OFFCURVE",
"348 -144 OFFCURVE",
"327 -144 QCURVE SMOOTH",
"313 -144 OFFCURVE",
"299 -129 OFFCURVE",
"299 -120 QCURVE SMOOTH",
"299 -80 OFFCURVE",
"389 -2 OFFCURVE",
"443 -2 QCURVE"
);
}
);
};
layerId = "EE330C8E-4A1C-402A-831D-620872201BE1";
paths = (
{
closed = 1;
nodes = (
"449.667 17.333 OFFCURVE",
"477.667 74.667 OFFCURVE",
"527 170 CURVE",
"524.333 174 OFFCURVE",
"515.333 176 OFFCURVE",
"500 176 CURVE SMOOTH",
"492.667 176 OFFCURVE",
"488 174 OFFCURVE",
"486 170 CURVE",
"463.333 128.667 OFFCURVE",
"424.667 92 OFFCURVE",
"402 80 CURVE SMOOTH",
"367.333 62.667 OFFCURVE",
"330.667 54 OFFCURVE",
"292 54 CURVE SMOOTH",
"268 54 LINE SMOOTH",
"240 54 OFFCURVE",
"222.833 55.667 OFFCURVE",
"216.5 59 CURVE SMOOTH",
"210.167 62.333 OFFCURVE",
"207 70 OFFCURVE",
"207 82 CURVE SMOOTH",
"207 94.667 OFFCURVE",
"209.667 114.333 OFFCURVE",
"215 141 CURVE SMOOTH",
"244 295 LINE SMOOTH",
"245.333 301 OFFCURVE",
"268.333 304 OFFCURVE",
"313 304 CURVE SMOOTH",
"355 304 OFFCURVE",
"380 300 OFFCURVE",
"388 292 CURVE SMOOTH",
"394 286 OFFCURVE",
"397.667 268 OFFCURVE",
"399 238 CURVE",
"400.333 232.667 OFFCURVE",
"404.667 230 OFFCURVE",
"412 230 CURVE SMOOTH",
"423.333 230 OFFCURVE",
"430.333 231.333 OFFCURVE",
"433 234 CURVE",
"469 423 LINE",
"467 426.333 OFFCURVE",
"460.667 428 OFFCURVE",
"450 428 CURVE SMOOTH",
"441.333 428 OFFCURVE",
"436 425.667 OFFCURVE",
"434 421 CURVE SMOOTH",
"420.667 391 OFFCURVE",
"411.333 373.167 OFFCURVE",
"406 367.5 CURVE SMOOTH",
"400.667 361.833 OFFCURVE",
"390.667 359 OFFCURVE",
"376 359 CURVE SMOOTH",
"297 359 LINE SMOOTH",
"283.467 359 OFFCURVE",
"258 359.168 OFFCURVE",
"258 365 CURVE",
"288 519 LINE SMOOTH",
"293.333 549 OFFCURVE",
"300 575 OFFCURVE",
"308 597 CURVE",
"310.667 605.667 OFFCURVE",
"331.667 610 OFFCURVE",
"371 610 CURVE SMOOTH",
"406 610 LINE SMOOTH",
"454 610 OFFCURVE",
"503.333 568.667 OFFCURVE",
"518 518 CURVE",
"518.667 513.333 OFFCURVE",
"522.667 511 OFFCURVE",
"530 511 CURVE SMOOTH",
"541.333 511 OFFCURVE",
"548.667 512.667 OFFCURVE",
"552 516 CURVE",
"552 573 LINE SMOOTH",
"552 613.667 OFFCURVE",
"552.667 644 OFFCURVE",
"554 664 CURVE",
"518 664 OFFCURVE",
"467.667 663.167 OFFCURVE",
"403 661.5 CURVE SMOOTH",
"338.333 659.833 OFFCURVE",
"288.333 659 OFFCURVE",
"253 659 CURVE SMOOTH",
"219 659 OFFCURVE",
"175.333 660 OFFCURVE",
"122 662 CURVE",
"117.333 657.333 OFFCURVE",
"115 648.333 OFFCURVE",
"115 635 CURVE SMOOTH",
"115 630.333 OFFCURVE",
"115.667 628 OFFCURVE",
"117 628 CURVE SMOOTH",
"130.333 628 OFFCURVE",
"166.667 609.667 OFFCURVE",
"168 599 CURVE",
"168.667 589.667 OFFCURVE",
"165.333 563.667 OFFCURVE",
"158 521 CURVE SMOOTH",
"85 143 LINE SMOOTH",
"76.333 98.333 OFFCURVE",
"68 69 OFFCURVE",
"60 55 CURVE SMOOTH",
"53.333 43 OFFCURVE",
"14.333 30 OFFCURVE",
"1 30 CURVE SMOOTH",
"-3.047 30 OFFCURVE",
"-7 12.128 OFFCURVE",
"-7 5 CURVE SMOOTH",
"-7 0.333 OFFCURVE",
"-6.333 -2.667 OFFCURVE",
"-5 -4 CURVE",
"18.061 -4 OFFCURVE",
"69.044 2 OFFCURVE",
"114 2 CURVE SMOOTH",
"187.306 2 OFFCURVE",
"280.687 -1 OFFCURVE",
"337 -1 CURVE",
"291.667 -26.333 OFFCURVE",
"223 -106.667 OFFCURVE",
"223 -156 CURVE SMOOTH",
"223 -190.667 OFFCURVE",
"249.333 -216 OFFCURVE",
"280 -216 CURVE SMOOTH",
"318.667 -216 OFFCURVE",
"369.667 -185.333 OFFCURVE",
"399 -152 CURVE",
"403 -148 OFFCURVE",
"410.667 -118.333 OFFCURVE",
"404 -117 CURVE",
"398.845 -117 OFFCURVE",
"352.861 -144 OFFCURVE",
"327 -144 CURVE SMOOTH",
"308.333 -144 OFFCURVE",
"299 -132 OFFCURVE",
"299 -120 CURVE SMOOTH",
"299 -66.667 OFFCURVE",
"371 -2 OFFCURVE",
"443 -2 CURVE"
);
}
);
width = 578;
}
);
note = Eogonek;
unicode = 0118;
},
{
glyphname = F;
lastChange = "2018-12-17 21:49:21 +0000";
layers = (
{
background = {
paths = (
{
closed = 1;
nodes = (
"148 3 OFFCURVE",
"278 -4 QCURVE",
"280 -1 OFFCURVE",
"283 14 QCURVE SMOOTH",
"286 30 OFFCURVE",
"282 30 QCURVE SMOOTH",
"275 30 OFFCURVE",
"256 32 OFFCURVE",
"221 39 OFFCURVE",
"199 59 OFFCURVE",
"199 74 QCURVE SMOOTH",
"199 96 OFFCURVE",
"208 141 QCURVE SMOOTH",
"237 295 LINE SMOOTH",
"239 304 OFFCURVE",
"306 304 QCURVE SMOOTH",
"369 304 OFFCURVE",
"381 292 QCURVE SMOOTH",
"390 283 OFFCURVE",
"392 238 QCURVE",
"394 230 OFFCURVE",
"405 230 QCURVE SMOOTH",
"422 230 OFFCURVE",
"426 234 QCURVE",
"462 423 LINE",
"459 428 OFFCURVE",
"443 428 QCURVE SMOOTH",
"430 428 OFFCURVE",
"427 421 QCURVE SMOOTH",
"407 376 OFFCURVE",
"391 359 OFFCURVE",
"369 359 QCURVE SMOOTH",
"290 359 LINE SMOOTH",
"272 359 OFFCURVE",
"250 362 OFFCURVE",
"251 365 QCURVE",
"281 519 LINE SMOOTH",
"289 564 OFFCURVE",
"301 597 QCURVE SMOOTH",
"304 605 OFFCURVE",
"332 610 OFFCURVE",
"364 610 QCURVE SMOOTH",
"399 610 LINE SMOOTH",
"435 610 OFFCURVE",
"500 556 OFFCURVE",
"511 518 QCURVE",
"512 511 OFFCURVE",
"523 511 QCURVE SMOOTH",
"540 511 OFFCURVE",
"545 516 QCURVE",
"545 573 LINE SMOOTH",
"545 634 OFFCURVE",
"547 664 QCURVE",
"493 664 OFFCURVE",
"300 659 OFFCURVE",
"247 659 QCURVE SMOOTH",
"196 659 OFFCURVE",
"116 662 QCURVE",
"109 655 OFFCURVE",
"109 635 QCURVE SMOOTH",
"109 628 OFFCURVE",
"111 628 QCURVE SMOOTH",
"120 628 OFFCURVE",
"161 607 OFFCURVE",
"162 599 QCURVE",
"163 585 OFFCURVE",
"152 521 QCURVE SMOOTH",
"79 143 LINE SMOOTH",
"66 76 OFFCURVE",
"54 55 QCURVE SMOOTH",
"49 46 OFFCURVE",
"5 30 OFFCURVE",
"-5 30 QCURVE SMOOTH",
"-6 30 OFFCURVE",
"-10 23 OFFCURVE",
"-13 11 OFFCURVE",
"-13 5 QCURVE SMOOTH",
"-13 -2 OFFCURVE",
"-11 -4 QCURVE",
"6 -3 OFFCURVE",
"54 1 OFFCURVE",
"93 3 OFFCURVE",
"119 3 QCURVE SMOOTH"
);
}
);
};
layerId = "EE330C8E-4A1C-402A-831D-620872201BE1";
paths = (
{
closed = 1;
nodes = (
"138.333 3 OFFCURVE",
"191.333 0.667 OFFCURVE",
"278 -4 CURVE",
"279.333 -2 OFFCURVE",
"281 4 OFFCURVE",
"283 14 CURVE SMOOTH",
"285 24.667 OFFCURVE",
"284.667 30 OFFCURVE",
"282 30 CURVE SMOOTH",
"258.961 30 OFFCURVE",
"199 34.871 OFFCURVE",
"199 74 CURVE SMOOTH",
"199 88.667 OFFCURVE",
"202 111 OFFCURVE",
"208 141 CURVE SMOOTH",
"237 295 LINE SMOOTH",
"238.333 301 OFFCURVE",
"261.333 304 OFFCURVE",
"306 304 CURVE SMOOTH",
"348 304 OFFCURVE",
"373 300 OFFCURVE",
"381 292 CURVE SMOOTH",
"387 286 OFFCURVE",
"390.667 268 OFFCURVE",
"392 238 CURVE",
"393.333 232.667 OFFCURVE",
"397.667 230 OFFCURVE",
"405 230 CURVE SMOOTH",
"416.333 230 OFFCURVE",
"423.333 231.333 OFFCURVE",
"426 234 CURVE",
"462 423 LINE",
"460 426.333 OFFCURVE",
"453.667 428 OFFCURVE",
"443 428 CURVE SMOOTH",
"434.333 428 OFFCURVE",
"429 425.667 OFFCURVE",
"427 421 CURVE SMOOTH",
"413.667 391 OFFCURVE",
"404.333 373.167 OFFCURVE",
"399 367.5 CURVE SMOOTH",
"393.667 361.833 OFFCURVE",
"383.667 359 OFFCURVE",
"369 359 CURVE SMOOTH",
"290 359 LINE SMOOTH",
"278 359 OFFCURVE",
"268.333 359.5 OFFCURVE",
"261 360.5 CURVE SMOOTH",
"253.667 361.5 OFFCURVE",
"250.333 363 OFFCURVE",
"251 365 CURVE",
"281 519 LINE SMOOTH",
"286.333 549 OFFCURVE",
"293 575 OFFCURVE",
"301 597 CURVE SMOOTH",
"303 602.333 OFFCURVE",
"308.667 605.833 OFFCURVE",
"318 607.5 CURVE SMOOTH",
"327.333 609.167 OFFCURVE",
"342.667 610 OFFCURVE",
"364 610 CURVE SMOOTH",
"399 610 LINE SMOOTH",
"447 610 OFFCURVE",
"496.333 568.667 OFFCURVE",
"511 518 CURVE",
"511.667 513.333 OFFCURVE",
"515.667 511 OFFCURVE",
"523 511 CURVE SMOOTH",
"534.333 511 OFFCURVE",
"541.667 512.667 OFFCURVE",
"545 516 CURVE",
"545 573 LINE SMOOTH",
"545 613.667 OFFCURVE",
"545.667 644 OFFCURVE",
"547 664 CURVE",
"511 664 OFFCURVE",
"460.833 663.167 OFFCURVE",
"396.5 661.5 CURVE SMOOTH",
"332.167 659.833 OFFCURVE",
"282.333 659 OFFCURVE",
"247 659 CURVE SMOOTH",
"213 659 OFFCURVE",
"169.333 660 OFFCURVE",
"116 662 CURVE",
"111.333 657.333 OFFCURVE",
"109 648.333 OFFCURVE",
"109 635 CURVE SMOOTH",
"109 630.333 OFFCURVE",
"109.667 628 OFFCURVE",
"111 628 CURVE SMOOTH",
"123 628 OFFCURVE",
"160.667 609.667 OFFCURVE",
"162 599 CURVE",
"162.667 589.667 OFFCURVE",
"159.333 563.667 OFFCURVE",
"152 521 CURVE SMOOTH",
"79 143 LINE SMOOTH",
"70.333 98.333 OFFCURVE",
"62 69 OFFCURVE",
"54 55 CURVE SMOOTH",
"47.333 43 OFFCURVE",
"8.333 30 OFFCURVE",
"-5 30 CURVE SMOOTH",
"-9.047 30 OFFCURVE",
"-13 12.128 OFFCURVE",
"-13 5 CURVE SMOOTH",
"-13 0.333 OFFCURVE",
"-12.333 -2.667 OFFCURVE",
"-11 -4 CURVE",
"22.608 -2.023 OFFCURVE",
"85.299 3 OFFCURVE",
"119 3 CURVE SMOOTH"
);
}
);
width = 537;
}
);
note = F;
unicode = 0046;
},
{
glyphname = G;
lastChange = "2018-12-17 21:49:21 +0000";
layers = (
{
background = {
paths = (
{
closed = 1;
nodes = (
"505 42 OFFCURVE",
"530 65 OFFCURVE",
"530 72 QCURVE SMOOTH",
"530 88 OFFCURVE",
"536 112 QCURVE SMOOTH",
"560 223 LINE SMOOTH",
"564 241 OFFCURVE",
"581 251 QCURVE",
"590 255 OFFCURVE",
"633 267 OFFCURVE",
"645 267 OFFCURVE",
"645 301 QCURVE",
"531 295 OFFCURVE",
"514 295 QCURVE SMOOTH",
"505 295 OFFCURVE",
"364 301 QCURVE",
"357 296 OFFCURVE",
"357 274 QCURVE SMOOTH",
"357 267 OFFCURVE",
"359 267 QCURVE SMOOTH",
"373 267 OFFCURVE",
"430 253 OFFCURVE",
"430 239 QCURVE SMOOTH",
"430 217 OFFCURVE",
"424 188 QCURVE SMOOTH",
"397 59 LINE",
"354 47 OFFCURVE",
"311 47 QCURVE SMOOTH",
"233 47 OFFCURVE",
"155 161 OFFCURVE",
"155 247 QCURVE SMOOTH",
"155 305 OFFCURVE",
"183 427 OFFCURVE",
"237 539 OFFCURVE",
"329 611 OFFCURVE",
"385 611 QCURVE SMOOTH",
"422 611 OFFCURVE",
"481 590 OFFCURVE",
"515 561 OFFCURVE",
"537 522 OFFCURVE",
"545 492 OFFCURVE",
"546 478 QCURVE",
"555 475 OFFCURVE",
"559 475 QCURVE SMOOTH",
"585 475 OFFCURVE",
"588 490 QCURVE",
"590 498 OFFCURVE",
"598 622 OFFCURVE",
"598 638 QCURVE",
"493 667 OFFCURVE",
"391 667 QCURVE SMOOTH",
"325 667 OFFCURVE",
"189 603 OFFCURVE",
"80 495 OFFCURVE",
"11 339 OFFCURVE",
"11 254 QCURVE SMOOTH",
"11 142 OFFCURVE",
"172 -8 OFFCURVE",
"299 -8 QCURVE SMOOTH",
"406 -8 OFFCURVE",
"490 34 QCURVE SMOOTH"
);
}
);
};
layerId = "EE330C8E-4A1C-402A-831D-620872201BE1";
paths = (
{
closed = 1;
nodes = (
"510 44.667 OFFCURVE",
"530 62.667 OFFCURVE",
"530 72 CURVE SMOOTH",
"530 82.667 OFFCURVE",
"532 96 OFFCURVE",
"536 112 CURVE SMOOTH",
"560 223 LINE SMOOTH",
"562.667 235 OFFCURVE",
"569.667 244.333 OFFCURVE",
"581 251 CURVE",
"629.696 272.643 OFFCURVE",
"645 244.334 OFFCURVE",
"645 301 CURVE",
"569 297 OFFCURVE",
"525.333 295 OFFCURVE",
"514 295 CURVE SMOOTH",
"508 295 OFFCURVE",
"458 297 OFFCURVE",
"364 301 CURVE",
"359.333 297.667 OFFCURVE",
"357 288.667 OFFCURVE",
"357 274 CURVE SMOOTH",
"357 269.333 OFFCURVE",
"357.667 267 OFFCURVE",
"359 267 CURVE SMOOTH",
"377.667 267 OFFCURVE",
"430 257.667 OFFCURVE",
"430 239 CURVE SMOOTH",
"430 224.333 OFFCURVE",
"428 207.333 OFFCURVE",
"424 188 CURVE SMOOTH",
"397 59 LINE",
"368.333 51 OFFCURVE",
"339.667 47 OFFCURVE",
"311 47 CURVE SMOOTH",
"207 47 OFFCURVE",
"155 132.333 OFFCURVE",
"155 247 CURVE SMOOTH",
"155 405.358 OFFCURVE",
"233.25 611 OFFCURVE",
"385 611 CURVE SMOOTH",
"434.333 611 OFFCURVE",
"475.333 594.833 OFFCURVE",
"498 575.5 CURVE SMOOTH",
"520.667 556.167 OFFCURVE",
"534 536.667 OFFCURVE",
"546 478 CURVE",
"552 476 OFFCURVE",
"556.333 475 OFFCURVE",
"559 475 CURVE SMOOTH",
"576.333 475 OFFCURVE",
"586 480 OFFCURVE",
"588 490 CURVE",
"590.667 500.667 OFFCURVE",
"598 616.667 OFFCURVE",
"598 638 CURVE",
"528 657.333 OFFCURVE",
"459 667 OFFCURVE",
"391 667 CURVE SMOOTH",
"303 667 OFFCURVE",
"207.167 621 OFFCURVE",
"134.5 549 CURVE SMOOTH",
"61.833 477 OFFCURVE",
"11 367.333 OFFCURVE",
"11 254 CURVE SMOOTH",
"11 104.667 OFFCURVE",
"129.667 -8 OFFCURVE",
"299 -8 CURVE SMOOTH",
"370.333 -8 OFFCURVE",
"434 6 OFFCURVE",
"490 34 CURVE SMOOTH"
);
}
);
width = 616;
}
);
note = G;
unicode = 0047;
},
{
glyphname = H;
lastChange = "2018-12-17 21:49:21 +0000";
layers = (
{
background = {
paths = (
{
closed = 1;
nodes = (
"340 369 OFFCURVE",
"304 369 OFFCURVE",
"279 370 OFFCURVE",
"264 371 OFFCURVE",
"256 373 OFFCURVE",
"254 375 OFFCURVE",
"254 376 QCURVE SMOOTH",
"254 378 LINE",
"281 519 LINE SMOOTH",
"283 530 OFFCURVE",
"299 594 OFFCURVE",
"305 604 QCURVE SMOOTH",
"309 611 OFFCURVE",
"356 628 OFFCURVE",
"364 628 QCURVE SMOOTH",
"367 628 OFFCURVE",
"372 649 OFFCURVE",
"372 657 QCURVE SMOOTH",
"372 662 LINE",
"258 656 OFFCURVE",
"240 656 QCURVE SMOOTH",
"221 656 OFFCURVE",
"181 658 OFFCURVE",
"132 661 OFFCURVE",
"118 662 QCURVE",
"112 656 OFFCURVE",
"112 632 QCURVE SMOOTH",
"112 628 OFFCURVE",
"113 628 QCURVE SMOOTH",
"124 628 OFFCURVE",
"161 611 OFFCURVE",
"161 596 QCURVE SMOOTH",
"161 571 OFFCURVE",
"152 523 QCURVE SMOOTH",
"77 135 LINE SMOOTH",
"68 78 OFFCURVE",
"52 52 QCURVE",
"47 43 OFFCURVE",
"4 30 OFFCURVE",
"-7 30 QCURVE SMOOTH",
"-9 30 OFFCURVE",
"-13 9 OFFCURVE",
"-13 2 QCURVE SMOOTH",
"-13 -3 OFFCURVE",
"-12 -4 QCURVE",
"0 -3 OFFCURVE",
"89 3 OFFCURVE",
"114 3 QCURVE SMOOTH",
"132 3 OFFCURVE",
"177 1 OFFCURVE",
"229 -3 OFFCURVE",
"241 -4 QCURVE",
"248 6 OFFCURVE",
"248 25 QCURVE SMOOTH",
"248 30 OFFCURVE",
"246 30 QCURVE SMOOTH",
"237 30 OFFCURVE",
"198 49 OFFCURVE",
"198 59 QCURVE SMOOTH",
"198 87 OFFCURVE",
"208 139 QCURVE SMOOTH",
"240 303 LINE",
"242 311 OFFCURVE",
"354 311 QCURVE SMOOTH",
"464 311 OFFCURVE",
"464 305 QCURVE SMOOTH",
"464 304 LINE",
"430 135 LINE SMOOTH",
"415 69 OFFCURVE",
"406 53 QCURVE SMOOTH",
"401 44 OFFCURVE",
"357 30 OFFCURVE",
"346 30 QCURVE SMOOTH",
"344 30 OFFCURVE",
"341 10 OFFCURVE",
"341 2 QCURVE SMOOTH",
"341 -3 OFFCURVE",
"342 -4 QCURVE",
"353 -3 OFFCURVE",
"446 3 OFFCURVE",
"471 3 QCURVE SMOOTH",
"495 3 OFFCURVE",
"592 -4 OFFCURVE",
"594 -4 QCURVE",
"602 8 OFFCURVE",
"602 25 QCURVE SMOOTH",
"602 30 OFFCURVE",
"600 30 QCURVE SMOOTH",
"591 30 OFFCURVE",
"551 49 OFFCURVE",
"551 59 QCURVE SMOOTH",
"551 82 OFFCURVE",
"562 139 QCURVE SMOOTH",
"636 519 LINE SMOOTH",
"648 582 OFFCURVE",
"660 604 QCURVE SMOOTH",
"664 611 OFFCURVE",
"710 628 OFFCURVE",
"717 628 QCURVE SMOOTH",
"718 628 OFFCURVE",
"722 632 OFFCURVE",
"726 646 OFFCURVE",
"726 656 QCURVE SMOOTH",
"726 662 OFFCURVE",
"726 662 QCURVE",
"612 656 OFFCURVE",
"605 656 QCURVE SMOOTH",
"599 656 OFFCURVE",
"473 662 QCURVE",
"465 654 OFFCURVE",
"465 634 QCURVE SMOOTH",
"465 628 OFFCURVE",
"467 628 QCURVE SMOOTH",
"515 628 OFFCURVE",
"515 600 QCURVE SMOOTH",
"515 577 OFFCURVE",
"506 523 QCURVE SMOOTH",
"478 375 LINE SMOOTH",
"477 369 OFFCURVE",
"366 369 QCURVE SMOOTH"
);
}
);
};
layerId = "EE330C8E-4A1C-402A-831D-620872201BE1";
paths = (
{
closed = 1;
nodes = (
"333.606 369 OFFCURVE",
"282.205 369.786 OFFCURVE",
"271.5 370.5 CURVE SMOOTH",
"262.921 371.072 OFFCURVE",
"254 372.682 OFFCURVE",
"254 376 CURVE SMOOTH",
"254 378 LINE",
"281 519 LINE SMOOTH",
"283.667 533.667 OFFCURVE",
"297 590.667 OFFCURVE",
"305 604 CURVE SMOOTH",
"310.333 613.333 OFFCURVE",
"353.333 628 OFFCURVE",
"364 628 CURVE SMOOTH",
"368 628 OFFCURVE",
"372 646.333 OFFCURVE",
"372 657 CURVE SMOOTH",
"372 662 LINE",
"296 658 OFFCURVE",
"252 656 OFFCURVE",
"240 656 CURVE SMOOTH",
"215.461 656 OFFCURVE",
"147.034 659.926 OFFCURVE",
"118 662 CURVE",
"114 658 OFFCURVE",
"112 648 OFFCURVE",
"112 632 CURVE SMOOTH",
"112 629.333 OFFCURVE",
"112.333 628 OFFCURVE",
"113 628 CURVE SMOOTH",
"127.667 628 OFFCURVE",
"161 616 OFFCURVE",
"161 596 CURVE SMOOTH",
"161 579.333 OFFCURVE",
"158 555 OFFCURVE",
"152 523 CURVE SMOOTH",
"77 135 LINE SMOOTH",
"71 97 OFFCURVE",
"62.667 69.333 OFFCURVE",
"52 52 CURVE",
"45.333 40 OFFCURVE",
"7.667 30 OFFCURVE",
"-7 30 CURVE SMOOTH",
"-9.667 30 OFFCURVE",
"-13 11.333 OFFCURVE",
"-13 2 CURVE SMOOTH",
"-13 -1.333 OFFCURVE",
"-12.667 -3.333 OFFCURVE",
"-12 -4 CURVE",
"4 -2.667 OFFCURVE",
"80.667 3 OFFCURVE",
"114 3 CURVE SMOOTH",
"139.237 3 OFFCURVE",
"213.324 -1.694 OFFCURVE",
"241 -4 CURVE",
"245.667 2.667 OFFCURVE",
"248 12.333 OFFCURVE",
"248 25 CURVE SMOOTH",
"248 28.333 OFFCURVE",
"247.333 30 OFFCURVE",
"246 30 CURVE SMOOTH",
"234 30 OFFCURVE",
"198 45.667 OFFCURVE",
"198 59 CURVE SMOOTH",
"198 77.667 OFFCURVE",
"201.333 104.333 OFFCURVE",
"208 139 CURVE SMOOTH",
"240 303 LINE",
"241.333 308.333 OFFCURVE",
"279.333 311 OFFCURVE",
"354 311 CURVE SMOOTH",
"427.333 311 OFFCURVE",
"464 309 OFFCURVE",
"464 305 CURVE SMOOTH",
"464 304 LINE",
"430 135 LINE SMOOTH",
"420 91 OFFCURVE",
"412 63.667 OFFCURVE",
"406 53 CURVE SMOOTH",
"399.333 41 OFFCURVE",
"360.667 30 OFFCURVE",
"346 30 CURVE SMOOTH",
"343.333 30 OFFCURVE",
"341 12.667 OFFCURVE",
"341 2 CURVE SMOOTH",
"341 -1.333 OFFCURVE",
"341.333 -3.333 OFFCURVE",
"342 -4 CURVE",
"356.667 -2.667 OFFCURVE",
"437.667 3 OFFCURVE",
"471 3 CURVE SMOOTH",
"487 3 OFFCURVE",
"511.167 1.833 OFFCURVE",
"543.5 -0.5 CURVE SMOOTH",
"575.833 -2.833 OFFCURVE",
"592.667 -4 OFFCURVE",
"594 -4 CURVE",
"599.333 4 OFFCURVE",
"602 13.667 OFFCURVE",
"602 25 CURVE SMOOTH",
"602 28.333 OFFCURVE",
"601.333 30 OFFCURVE",
"600 30 CURVE SMOOTH",
"588 30 OFFCURVE",
"551 45.667 OFFCURVE",
"551 59 CURVE SMOOTH",
"551 74.333 OFFCURVE",
"554.667 101 OFFCURVE",
"562 139 CURVE SMOOTH",
"636 519 LINE SMOOTH",
"644 561 OFFCURVE",
"652 589.333 OFFCURVE",
"660 604 CURVE SMOOTH",
"665.333 613.333 OFFCURVE",
"707.667 628 OFFCURVE",
"717 628 CURVE SMOOTH",
"721.733 628 OFFCURVE",
"726 644.235 OFFCURVE",
"726 656 CURVE SMOOTH",
"726 660 OFFCURVE",
"726 662 OFFCURVE",
"726 662 CURVE",
"650 658 OFFCURVE",
"609.667 656 OFFCURVE",
"605 656 CURVE SMOOTH",
"601 656 OFFCURVE",
"557 658 OFFCURVE",
"473 662 CURVE",
"467.667 656.667 OFFCURVE",
"465 647.333 OFFCURVE",
"465 634 CURVE SMOOTH",
"465 630 OFFCURVE",
"465.667 628 OFFCURVE",
"467 628 CURVE SMOOTH",
"499 628 OFFCURVE",
"515 618.667 OFFCURVE",
"515 600 CURVE SMOOTH",
"515 584.667 OFFCURVE",
"512 559 OFFCURVE",
"506 523 CURVE SMOOTH",
"478 375 LINE SMOOTH",
"477.333 371 OFFCURVE",
"440 369 OFFCURVE",
"366 369 CURVE SMOOTH"
);
}
);
width = 714;
}
);
note = H;
unicode = 0048;
},
{
glyphname = Hbar;
lastChange = "2018-12-17 21:49:21 +0000";
layers = (
{
background = {
paths = (
{
closed = 1;
nodes = (
"434 468 OFFCURVE",
"503 467 QCURVE",
"481 356 LINE SMOOTH",
"480 350 OFFCURVE",
"369 350 QCURVE SMOOTH",
"257 350 OFFCURVE",
"257 357 QCURVE SMOOTH",
"257 359 OFFCURVE",
"257 359 QCURVE",
"278 467 LINE",
"390 468 OFFCURVE",
"390 468 QCURVE"
);
},
{
closed = 1;
nodes = (
"228 656 OFFCURVE",
"188 658 OFFCURVE",
"140 661 OFFCURVE",
"125 662 QCURVE",
"119 656 OFFCURVE",
"119 632 QCURVE SMOOTH",
"119 628 OFFCURVE",
"120 628 QCURVE SMOOTH",
"131 628 OFFCURVE",
"168 611 OFFCURVE",
"168 596 QCURVE SMOOTH",
"168 569 OFFCURVE",
"159 524 QCURVE",
"112 525 LINE",
"101 521 LINE",
"91 511 OFFCURVE",
"81 472 QCURVE SMOOTH",
"80 468 OFFCURVE",
"84 465 OFFCURVE",
"87 465 OFFCURVE",
"88 465 QCURVE SMOOTH",
"150 466 LINE",
"84 135 LINE SMOOTH",
"70 70 OFFCURVE",
"59 52 QCURVE",
"54 43 OFFCURVE",
"11 30 OFFCURVE",
"0 30 QCURVE SMOOTH",
"-2 30 OFFCURVE",
"-6 9 OFFCURVE",
"-6 2 QCURVE SMOOTH",
"-6 -3 OFFCURVE",
"-5 -4 QCURVE",
"7 -3 OFFCURVE",
"96 3 OFFCURVE",
"121 3 QCURVE SMOOTH",
"139 3 OFFCURVE",
"184 1 OFFCURVE",
"236 -3 OFFCURVE",
"248 -4 QCURVE",
"255 6 OFFCURVE",
"255 25 QCURVE SMOOTH",
"255 30 OFFCURVE",
"253 30 QCURVE SMOOTH",
"244 30 OFFCURVE",
"205 49 OFFCURVE",
"205 59 QCURVE SMOOTH",
"205 87 OFFCURVE",
"215 139 QCURVE SMOOTH",
"243 284 LINE",
"245 292 OFFCURVE",
"357 292 QCURVE SMOOTH",
"467 292 OFFCURVE",
"467 286 QCURVE SMOOTH",
"467 285 LINE",
"437 135 LINE SMOOTH",
"422 69 OFFCURVE",
"413 53 QCURVE SMOOTH",
"408 44 OFFCURVE",
"364 30 OFFCURVE",
"353 30 QCURVE SMOOTH",
"348 30 OFFCURVE",
"348 2 QCURVE SMOOTH",
"348 -3 OFFCURVE",
"349 -4 QCURVE",
"360 -3 OFFCURVE",
"453 3 OFFCURVE",
"478 3 QCURVE SMOOTH",
"502 3 OFFCURVE",
"599 -4 OFFCURVE",
"601 -4 QCURVE",
"609 8 OFFCURVE",
"609 25 QCURVE SMOOTH",
"609 30 OFFCURVE",
"607 30 QCURVE SMOOTH",
"598 30 OFFCURVE",
"558 49 OFFCURVE",
"558 59 QCURVE SMOOTH",
"558 82 OFFCURVE",
"569 139 QCURVE SMOOTH",
"633 466 LINE",
"680 465 LINE",
"691 469 LINE",
"703 481 OFFCURVE",
"712 518 QCURVE SMOOTH",
"713 522 OFFCURVE",
"709 525 OFFCURVE",
"706 525 OFFCURVE",
"705 525 QCURVE SMOOTH",
"644 524 LINE",
"656 585 OFFCURVE",
"667 604 QCURVE SMOOTH",
"671 611 OFFCURVE",
"717 628 OFFCURVE",
"724 628 QCURVE SMOOTH",
"733 628 OFFCURVE",
"733 656 QCURVE SMOOTH",
"733 662 LINE",
"619 656 OFFCURVE",
"612 656 QCURVE SMOOTH",
"606 656 OFFCURVE",
"480 662 QCURVE",
"472 654 OFFCURVE",
"472 634 QCURVE SMOOTH",
"472 628 OFFCURVE",
"474 628 QCURVE SMOOTH",
"522 628 OFFCURVE",
"522 600 QCURVE SMOOTH",
"522 586 OFFCURVE",
"512 523 QCURVE",
"398 522 LINE SMOOTH",
"355 522 OFFCURVE",
"289 523 QCURVE",
"302 586 OFFCURVE",
"312 604 QCURVE SMOOTH",
"316 611 OFFCURVE",
"363 628 OFFCURVE",
"371 628 QCURVE SMOOTH",
"374 628 OFFCURVE",
"379 649 OFFCURVE",
"379 657 QCURVE SMOOTH",
"379 662 OFFCURVE",
"379 662 QCURVE",
"265 656 OFFCURVE",
"247 656 QCURVE SMOOTH"
);
}
);
};
layerId = "EE330C8E-4A1C-402A-831D-620872201BE1";
paths = (
{
closed = 1;
nodes = (
"419.333 468 OFFCURVE",
"457 467.667 OFFCURVE",
"503 467 CURVE",
"481 356 LINE SMOOTH",
"480.333 352 OFFCURVE",
"443 350 OFFCURVE",
"369 350 CURVE SMOOTH",
"294.333 350 OFFCURVE",
"257 352.333 OFFCURVE",
"257 357 CURVE SMOOTH",
"257 358.333 OFFCURVE",
"257 359 OFFCURVE",
"257 359 CURVE",
"278 467 LINE",
"352.667 467.667 OFFCURVE",
"390 468 OFFCURVE",
"390 468 CURVE"
);
},
{
closed = 1;
nodes = (
"221.689 656 OFFCURVE",
"154.792 660.014 OFFCURVE",
"125 662 CURVE",
"121 658 OFFCURVE",
"119 648 OFFCURVE",
"119 632 CURVE SMOOTH",
"119 629.333 OFFCURVE",
"119.333 628 OFFCURVE",
"120 628 CURVE SMOOTH",
"134.667 628 OFFCURVE",
"168 616 OFFCURVE",
"168 596 CURVE SMOOTH",
"168 578 OFFCURVE",
"165 554 OFFCURVE",
"159 524 CURVE",
"112 525 LINE",
"101 521 LINE",
"94.333 514.333 OFFCURVE",
"87.667 498 OFFCURVE",
"81 472 CURVE SMOOTH",
"79.473 465.89 OFFCURVE",
"84.83 465 OFFCURVE",
"88 465 CURVE SMOOTH",
"150 466 LINE",
"84 135 LINE SMOOTH",
"74.667 91.667 OFFCURVE",
"66.333 64 OFFCURVE",
"59 52 CURVE",
"52.333 40 OFFCURVE",
"14.667 30 OFFCURVE",
"0 30 CURVE SMOOTH",
"-2.667 30 OFFCURVE",
"-6 11.333 OFFCURVE",
"-6 2 CURVE SMOOTH",
"-6 -1.333 OFFCURVE",
"-5.667 -3.333 OFFCURVE",
"-5 -4 CURVE",
"11 -2.667 OFFCURVE",
"87.667 3 OFFCURVE",
"121 3 CURVE SMOOTH",
"146.237 3 OFFCURVE",
"220.324 -1.694 OFFCURVE",
"248 -4 CURVE",
"252.667 2.667 OFFCURVE",
"255 12.333 OFFCURVE",
"255 25 CURVE SMOOTH",
"255 28.333 OFFCURVE",
"254.333 30 OFFCURVE",
"253 30 CURVE SMOOTH",
"241 30 OFFCURVE",
"205 45.667 OFFCURVE",
"205 59 CURVE SMOOTH",
"205 77.667 OFFCURVE",
"208.333 104.333 OFFCURVE",
"215 139 CURVE SMOOTH",
"243 284 LINE",
"244.333 289.333 OFFCURVE",
"282.333 292 OFFCURVE",
"357 292 CURVE SMOOTH",
"430.333 292 OFFCURVE",
"467 290 OFFCURVE",
"467 286 CURVE SMOOTH",
"467 285 LINE",
"437 135 LINE SMOOTH",
"427 91 OFFCURVE",
"419 63.667 OFFCURVE",
"413 53 CURVE SMOOTH",
"406.333 41 OFFCURVE",
"367.667 30 OFFCURVE",
"353 30 CURVE SMOOTH",
"349.667 30 OFFCURVE",
"348 20.667 OFFCURVE",
"348 2 CURVE SMOOTH",
"348 -1.333 OFFCURVE",
"348.333 -3.333 OFFCURVE",
"349 -4 CURVE",
"363.667 -2.667 OFFCURVE",
"444.667 3 OFFCURVE",
"478 3 CURVE SMOOTH",
"494 3 OFFCURVE",
"518.167 1.833 OFFCURVE",
"550.5 -0.5 CURVE SMOOTH",
"582.833 -2.833 OFFCURVE",
"599.667 -4 OFFCURVE",
"601 -4 CURVE",
"606.333 4 OFFCURVE",
"609 13.667 OFFCURVE",
"609 25 CURVE SMOOTH",
"609 28.333 OFFCURVE",
"608.333 30 OFFCURVE",
"607 30 CURVE SMOOTH",
"595 30 OFFCURVE",
"558 45.667 OFFCURVE",
"558 59 CURVE SMOOTH",
"558 74.333 OFFCURVE",
"561.667 101 OFFCURVE",
"569 139 CURVE SMOOTH",
"633 466 LINE",
"680 465 LINE",
"691 469 LINE",
"699 477 OFFCURVE",
"706 493.333 OFFCURVE",
"712 518 CURVE SMOOTH",
"713.527 524.11 OFFCURVE",
"708.17 525 OFFCURVE",
"705 525 CURVE SMOOTH",
"644 524 LINE",
"652 564.667 OFFCURVE",
"659.667 591.333 OFFCURVE",
"667 604 CURVE SMOOTH",
"672.333 613.333 OFFCURVE",
"714.667 628 OFFCURVE",
"724 628 CURVE SMOOTH",
"730 628 OFFCURVE",
"733 637.333 OFFCURVE",
"733 656 CURVE SMOOTH",
"733 662 LINE",
"657 658 OFFCURVE",
"616.667 656 OFFCURVE",
"612 656 CURVE SMOOTH",
"608 656 OFFCURVE",
"564 658 OFFCURVE",
"480 662 CURVE",
"474.667 656.667 OFFCURVE",
"472 647.333 OFFCURVE",
"472 634 CURVE SMOOTH",
"472 630 OFFCURVE",
"472.667 628 OFFCURVE",
"474 628 CURVE SMOOTH",
"506 628 OFFCURVE",
"522 618.667 OFFCURVE",
"522 600 CURVE SMOOTH",
"522 590.667 OFFCURVE",
"518.667 565 OFFCURVE",
"512 523 CURVE",
"398 522 LINE SMOOTH",
"369.333 522 OFFCURVE",
"333 522.333 OFFCURVE",
"289 523 CURVE",
"297.667 565 OFFCURVE",
"305.333 592 OFFCURVE",
"312 604 CURVE SMOOTH",
"317.333 613.333 OFFCURVE",
"360.333 628 OFFCURVE",
"371 628 CURVE SMOOTH",
"375 628 OFFCURVE",
"379 646.333 OFFCURVE",
"379 657 CURVE SMOOTH",
"379 660.333 OFFCURVE",
"379 662 OFFCURVE",
"379 662 CURVE",
"303 658 OFFCURVE",
"259 656 OFFCURVE",
"247 656 CURVE SMOOTH"
);
}
);
width = 729;
}
);
note = Hbar;
unicode = 0126;
},
{
glyphname = I;
lastChange = "2018-12-17 21:49:21 +0000";
layers = (
{
background = {
paths = (
{
closed = 1;
nodes = (
"283 530 OFFCURVE",
"299 594 OFFCURVE",
"305 604 QCURVE SMOOTH",
"309 611 OFFCURVE",
"356 628 OFFCURVE",
"364 628 QCURVE SMOOTH",
"367 628 OFFCURVE",
"372 649 OFFCURVE",
"372 657 QCURVE SMOOTH",
"372 662 LINE",
"258 656 OFFCURVE",
"240 656 QCURVE SMOOTH",
"221 656 OFFCURVE",
"181 658 OFFCURVE",
"132 661 OFFCURVE",
"118 662 QCURVE",
"112 656 OFFCURVE",
"112 632 QCURVE SMOOTH",
"112 628 OFFCURVE",
"113 628 QCURVE SMOOTH",
"124 628 OFFCURVE",
"161 611 OFFCURVE",
"161 596 QCURVE SMOOTH",
"161 571 OFFCURVE",
"152 523 QCURVE SMOOTH",
"77 135 LINE SMOOTH",
"68 78 OFFCURVE",
"52 52 QCURVE",
"47 43 OFFCURVE",
"4 30 OFFCURVE",
"-7 30 QCURVE SMOOTH",
"-9 30 OFFCURVE",
"-13 9 OFFCURVE",
"-13 2 QCURVE SMOOTH",
"-13 -3 OFFCURVE",
"-12 -4 QCURVE",
"-3 -4 OFFCURVE",
"96 3 OFFCURVE",
"121 3 QCURVE SMOOTH",
"145 3 OFFCURVE",
"237 -4 OFFCURVE",
"241 -4 QCURVE",
"248 6 OFFCURVE",
"248 25 QCURVE SMOOTH",
"248 30 OFFCURVE",
"246 30 QCURVE SMOOTH",
"237 30 OFFCURVE",
"198 49 OFFCURVE",
"198 59 QCURVE SMOOTH",
"198 87 OFFCURVE",
"208 139 QCURVE SMOOTH",
"281 519 LINE SMOOTH"
);
}
);
};
layerId = "EE330C8E-4A1C-402A-831D-620872201BE1";
paths = (
{
closed = 1;
nodes = (
"283.667 533.667 OFFCURVE",
"297 590.667 OFFCURVE",
"305 604 CURVE SMOOTH",
"310.333 613.333 OFFCURVE",
"353.333 628 OFFCURVE",
"364 628 CURVE SMOOTH",
"368 628 OFFCURVE",
"372 646.333 OFFCURVE",
"372 657 CURVE SMOOTH",
"372 662 LINE",
"296 658 OFFCURVE",
"252 656 OFFCURVE",
"240 656 CURVE SMOOTH",
"215.461 656 OFFCURVE",
"147.034 659.926 OFFCURVE",
"118 662 CURVE",
"114 658 OFFCURVE",
"112 648 OFFCURVE",
"112 632 CURVE SMOOTH",
"112 629.333 OFFCURVE",
"112.333 628 OFFCURVE",
"113 628 CURVE SMOOTH",
"127.667 628 OFFCURVE",
"161 616 OFFCURVE",
"161 596 CURVE SMOOTH",
"161 579.333 OFFCURVE",
"158 555 OFFCURVE",
"152 523 CURVE SMOOTH",
"77 135 LINE SMOOTH",
"71 97 OFFCURVE",
"62.667 69.333 OFFCURVE",
"52 52 CURVE",
"45.333 40 OFFCURVE",
"7.667 30 OFFCURVE",
"-7 30 CURVE SMOOTH",
"-9.667 30 OFFCURVE",
"-13 11.333 OFFCURVE",
"-13 2 CURVE SMOOTH",
"-13 -1.333 OFFCURVE",
"-12.667 -3.333 OFFCURVE",
"-12 -4 CURVE",
"-6 -4 OFFCURVE",
"13.5 -2.833 OFFCURVE",
"46.5 -0.5 CURVE SMOOTH",
"79.5 1.833 OFFCURVE",
"104.333 3 OFFCURVE",
"121 3 CURVE SMOOTH",
"137 3 OFFCURVE",
"160.333 1.833 OFFCURVE",
"191 -0.5 CURVE SMOOTH",
"221.667 -2.833 OFFCURVE",
"238.333 -4 OFFCURVE",
"241 -4 CURVE",
"245.667 2.667 OFFCURVE",
"248 12.333 OFFCURVE",
"248 25 CURVE SMOOTH",
"248 28.333 OFFCURVE",
"247.333 30 OFFCURVE",
"246 30 CURVE SMOOTH",
"234 30 OFFCURVE",
"198 45.667 OFFCURVE",
"198 59 CURVE SMOOTH",
"198 77.667 OFFCURVE",
"201.333 104.333 OFFCURVE",
"208 139 CURVE SMOOTH",
"281 519 LINE SMOOTH"
);
}
);
width = 360;
}
);
note = I;
unicode = 0049;
},
{
glyphname = Iogonek;
lastChange = "2018-12-17 21:49:21 +0000";
layers = (
{
background = {
paths = (
{
closed = 1;
nodes = (
"298 579 OFFCURVE",
"312 604 QCURVE SMOOTH",
"316 611 OFFCURVE",
"363 628 OFFCURVE",
"371 628 QCURVE SMOOTH",
"374 628 OFFCURVE",
"379 649 OFFCURVE",
"379 657 QCURVE SMOOTH",
"379 662 LINE",
"265 656 OFFCURVE",
"247 656 QCURVE SMOOTH",
"228 656 OFFCURVE",
"188 658 OFFCURVE",
"140 661 OFFCURVE",
"125 662 QCURVE",
"119 656 OFFCURVE",
"119 632 QCURVE SMOOTH",
"119 628 OFFCURVE",
"120 628 QCURVE SMOOTH",
"131 628 OFFCURVE",
"168 611 OFFCURVE",
"168 596 QCURVE SMOOTH",
"168 571 OFFCURVE",
"159 523 QCURVE SMOOTH",
"84 135 LINE SMOOTH",
"75 78 OFFCURVE",
"59 52 QCURVE",
"54 43 OFFCURVE",
"11 30 OFFCURVE",
"0 30 QCURVE SMOOTH",
"-2 30 OFFCURVE",
"-6 9 OFFCURVE",
"-6 2 QCURVE SMOOTH",
"-6 -3 OFFCURVE",
"-5 -4 QCURVE",
"103 2 OFFCURVE",
"113 2 QCURVE",
"80 -8 OFFCURVE",
"-10 -117 OFFCURVE",
"-10 -156 QCURVE SMOOTH",
"-10 -182 OFFCURVE",
"24 -216 OFFCURVE",
"47 -216 QCURVE SMOOTH",
"76 -216 OFFCURVE",
"144 -177 OFFCURVE",
"166 -152 QCURVE",
"169 -149 OFFCURVE",
"176 -118 OFFCURVE",
"171 -117 QCURVE",
"170 -117 OFFCURVE",
"150 -130 OFFCURVE",
"115 -144 OFFCURVE",
"94 -144 QCURVE SMOOTH",
"80 -144 OFFCURVE",
"66 -129 OFFCURVE",
"66 -120 QCURVE SMOOTH",
"66 -85 OFFCURVE",
"164 -2 OFFCURVE",
"202 -2 QCURVE SMOOTH",
"224 -2 OFFCURVE",
"248 -4 QCURVE",
"255 6 OFFCURVE",
"255 25 QCURVE SMOOTH",
"255 30 OFFCURVE",
"253 30 QCURVE SMOOTH",
"244 30 OFFCURVE",
"205 49 OFFCURVE",
"205 59 QCURVE SMOOTH",
"205 87 OFFCURVE",
"215 139 QCURVE SMOOTH",
"288 519 LINE SMOOTH"
);
}
);
};
layerId = "EE330C8E-4A1C-402A-831D-620872201BE1";
paths = (
{
closed = 1;
nodes = (
"294.667 559 OFFCURVE",
"302.667 587.333 OFFCURVE",
"312 604 CURVE SMOOTH",
"317.333 613.333 OFFCURVE",
"360.333 628 OFFCURVE",
"371 628 CURVE SMOOTH",
"375 628 OFFCURVE",
"379 646.333 OFFCURVE",
"379 657 CURVE SMOOTH",
"379 662 LINE",
"303 658 OFFCURVE",
"259 656 OFFCURVE",
"247 656 CURVE SMOOTH",
"221.689 656 OFFCURVE",
"154.792 660.014 OFFCURVE",
"125 662 CURVE",
"121 658 OFFCURVE",
"119 648 OFFCURVE",
"119 632 CURVE SMOOTH",
"119 629.333 OFFCURVE",
"119.333 628 OFFCURVE",
"120 628 CURVE SMOOTH",
"134.667 628 OFFCURVE",
"168 616 OFFCURVE",
"168 596 CURVE SMOOTH",
"168 579.333 OFFCURVE",
"165 555 OFFCURVE",
"159 523 CURVE SMOOTH",
"84 135 LINE SMOOTH",
"78 97 OFFCURVE",
"69.667 69.333 OFFCURVE",
"59 52 CURVE",
"52.333 40 OFFCURVE",
"14.667 30 OFFCURVE",
"0 30 CURVE SMOOTH",
"-2.667 30 OFFCURVE",
"-6 11.333 OFFCURVE",
"-6 2 CURVE SMOOTH",
"-6 -1.333 OFFCURVE",
"-5.667 -3.333 OFFCURVE",
"-5 -4 CURVE",
"67 0 OFFCURVE",
"106.333 2 OFFCURVE",
"113 2 CURVE",
"69 -11.333 OFFCURVE",
"-10 -104 OFFCURVE",
"-10 -156 CURVE SMOOTH",
"-10 -190.667 OFFCURVE",
"16.333 -216 OFFCURVE",
"47 -216 CURVE SMOOTH",
"85.667 -216 OFFCURVE",
"136.667 -185.333 OFFCURVE",
"166 -152 CURVE",
"170 -148 OFFCURVE",
"177.667 -118.333 OFFCURVE",
"171 -117 CURVE",
"165.845 -117 OFFCURVE",
"119.861 -144 OFFCURVE",
"94 -144 CURVE SMOOTH",
"75.333 -144 OFFCURVE",
"66 -132 OFFCURVE",
"66 -120 CURVE SMOOTH",
"66 -73.333 OFFCURVE",
"151.333 -2 OFFCURVE",
"202 -2 CURVE SMOOTH",
"216.667 -2 OFFCURVE",
"232 -2.667 OFFCURVE",
"248 -4 CURVE",
"252.667 2.667 OFFCURVE",
"255 12.333 OFFCURVE",
"255 25 CURVE SMOOTH",
"255 28.333 OFFCURVE",
"254.333 30 OFFCURVE",
"253 30 CURVE SMOOTH",
"241 30 OFFCURVE",
"205 45.667 OFFCURVE",
"205 59 CURVE SMOOTH",
"205 77.667 OFFCURVE",
"208.333 104.333 OFFCURVE",
"215 139 CURVE SMOOTH",
"288 519 LINE SMOOTH"
);
}
);
width = 375;
}
);
note = Iogonek;
unicode = 012E;
},
{
glyphname = J;
lastChange = "2018-12-17 21:49:21 +0000";
layers = (
{
background = {
paths = (
{
closed = 1;
nodes = (
"114 13 OFFCURVE",
"45 -128 OFFCURVE",
"-13 -176 QCURVE",
"-15 -180 OFFCURVE",
"-15 -194 QCURVE SMOOTH",
"-15 -212 OFFCURVE",
"-1 -218 QCURVE",
"45 -199 OFFCURVE",
"120 -148 OFFCURVE",
"196 -66 OFFCURVE",
"253 61 OFFCURVE",
"269 143 QCURVE SMOOTH",
"342 519 LINE SMOOTH",
"344 530 OFFCURVE",
"360 594 OFFCURVE",
"366 604 QCURVE SMOOTH",
"370 611 OFFCURVE",
"417 628 OFFCURVE",
"425 628 QCURVE SMOOTH",
"428 628 OFFCURVE",
"433 649 OFFCURVE",
"433 657 QCURVE SMOOTH",
"433 662 LINE",
"319 656 OFFCURVE",
"301 656 QCURVE SMOOTH",
"282 656 OFFCURVE",
"241 658 OFFCURVE",
"193 661 OFFCURVE",
"179 662 QCURVE",
"173 656 OFFCURVE",
"173 632 QCURVE SMOOTH",
"173 628 OFFCURVE",
"174 628 QCURVE SMOOTH",
"185 628 OFFCURVE",
"222 611 OFFCURVE",
"222 596 QCURVE SMOOTH",
"222 571 OFFCURVE",
"213 523 QCURVE SMOOTH",
"138 135 LINE SMOOTH"
);
}
);
};
layerId = "EE330C8E-4A1C-402A-831D-620872201BE1";
paths = (
{
closed = 1;
nodes = (
"106 -27.667 OFFCURVE",
"64.333 -112 OFFCURVE",
"-13 -176 CURVE",
"-14.333 -178.667 OFFCURVE",
"-15 -184.667 OFFCURVE",
"-15 -194 CURVE SMOOTH",
"-15 -206 OFFCURVE",
"-10.333 -214 OFFCURVE",
"-1 -218 CURVE",
"60.333 -192.667 OFFCURVE",
"107.333 -161.667 OFFCURVE",
"158 -107 CURVE SMOOTH",
"208.667 -52.333 OFFCURVE",
"247.667 33.667 OFFCURVE",
"269 143 CURVE SMOOTH",
"342 519 LINE SMOOTH",
"344.667 533.667 OFFCURVE",
"358 590.667 OFFCURVE",
"366 604 CURVE SMOOTH",
"371.333 613.333 OFFCURVE",
"414.333 628 OFFCURVE",
"425 628 CURVE SMOOTH",
"429 628 OFFCURVE",
"433 646.333 OFFCURVE",
"433 657 CURVE SMOOTH",
"433 662 LINE",
"357 658 OFFCURVE",
"313 656 OFFCURVE",
"301 656 CURVE SMOOTH",
"275.305 656 OFFCURVE",
"207.667 659.952 OFFCURVE",
"179 662 CURVE",
"175 658 OFFCURVE",
"173 648 OFFCURVE",
"173 632 CURVE SMOOTH",
"173 629.333 OFFCURVE",
"173.333 628 OFFCURVE",
"174 628 CURVE SMOOTH",
"188.667 628 OFFCURVE",
"222 616 OFFCURVE",
"222 596 CURVE SMOOTH",
"222 579.333 OFFCURVE",
"219 555 OFFCURVE",
"213 523 CURVE SMOOTH",
"138 135 LINE SMOOTH"
);
}
);
width = 421;
}
);
note = J;
unicode = 004A;
},
{
glyphname = K;
lastChange = "2018-12-17 21:49:21 +0000";
layers = (
{
background = {
paths = (
{
closed = 1;
nodes = (
"283 530 OFFCURVE",
"299 594 OFFCURVE",
"305 604 QCURVE SMOOTH",
"309 611 OFFCURVE",
"356 628 OFFCURVE",
"364 628 QCURVE SMOOTH",
"367 628 OFFCURVE",
"372 649 OFFCURVE",
"372 657 QCURVE SMOOTH",
"372 662 LINE",
"258 656 OFFCURVE",
"240 656 QCURVE SMOOTH",
"221 656 OFFCURVE",
"181 658 OFFCURVE",
"132 661 OFFCURVE",
"118 662 QCURVE",
"112 656 OFFCURVE",
"112 632 QCURVE SMOOTH",
"112 628 OFFCURVE",
"113 628 QCURVE SMOOTH",
"124 628 OFFCURVE",
"161 611 OFFCURVE",
"161 596 QCURVE SMOOTH",
"161 571 OFFCURVE",
"152 523 QCURVE SMOOTH",
"77 135 LINE SMOOTH",
"68 78 OFFCURVE",
"52 52 QCURVE",
"47 43 OFFCURVE",
"4 30 OFFCURVE",
"-7 30 QCURVE SMOOTH",
"-9 30 OFFCURVE",
"-13 9 OFFCURVE",
"-13 2 QCURVE SMOOTH",
"-13 -3 OFFCURVE",
"-12 -4 QCURVE",
"0 -3 OFFCURVE",
"89 3 OFFCURVE",
"114 3 QCURVE SMOOTH",
"132 3 OFFCURVE",
"177 1 OFFCURVE",
"229 -3 OFFCURVE",
"241 -4 QCURVE",
"248 6 OFFCURVE",
"248 25 QCURVE SMOOTH",
"248 30 OFFCURVE",
"246 30 QCURVE SMOOTH",
"237 30 OFFCURVE",
"198 49 OFFCURVE",
"198 59 QCURVE SMOOTH",
"198 87 OFFCURVE",
"208 139 QCURVE SMOOTH",
"281 519 LINE SMOOTH"
);
},
{
closed = 1;
nodes = (
"409 76 LINE SMOOTH",
"424 53 OFFCURVE",
"457 22 OFFCURVE",
"487 6 OFFCURVE",
"531 -2 OFFCURVE",
"563 -4 OFFCURVE",
"592 -4 QCURVE SMOOTH",
"636 -4 OFFCURVE",
"652 0 QCURVE",
"659 10 OFFCURVE",
"659 22 QCURVE SMOOTH",
"659 30 OFFCURVE",
"656 30 QCURVE SMOOTH",
"625 30 OFFCURVE",
"572 65 OFFCURVE",
"539 112 QCURVE SMOOTH",
"384 334 LINE SMOOTH",
"381 338 OFFCURVE",
"381 343 QCURVE SMOOTH",
"381 353 OFFCURVE",
"391 363 QCURVE SMOOTH",
"604 585 LINE SMOOTH",
"640 622 OFFCURVE",
"715 630 QCURVE",
"718 630 OFFCURVE",
"723 653 OFFCURVE",
"723 662 QCURVE",
"609 656 OFFCURVE",
"605 656 QCURVE SMOOTH",
"583 656 OFFCURVE",
"481 662 QCURVE",
"477 655 OFFCURVE",
"477 641 QCURVE SMOOTH",
"477 630 OFFCURVE",
"480 630 QCURVE SMOOTH",
"491 630 OFFCURVE",
"532 619 OFFCURVE",
"532 610 QCURVE SMOOTH",
"532 598 OFFCURVE",
"520 586 QCURVE SMOOTH",
"391 457 OFFCURVE",
"287 360 OFFCURVE",
"245 333 QCURVE"
);
}
);
};
layerId = "EE330C8E-4A1C-402A-831D-620872201BE1";
paths = (
{
closed = 1;
nodes = (
"283.667 533.667 OFFCURVE",
"297 590.667 OFFCURVE",
"305 604 CURVE SMOOTH",
"310.333 613.333 OFFCURVE",
"353.333 628 OFFCURVE",
"364 628 CURVE SMOOTH",
"368 628 OFFCURVE",
"372 646.333 OFFCURVE",
"372 657 CURVE SMOOTH",
"372 662 LINE",
"296 658 OFFCURVE",
"252 656 OFFCURVE",
"240 656 CURVE SMOOTH",
"215.461 656 OFFCURVE",
"147.034 659.926 OFFCURVE",
"118 662 CURVE",
"114 658 OFFCURVE",
"112 648 OFFCURVE",
"112 632 CURVE SMOOTH",
"112 629.333 OFFCURVE",
"112.333 628 OFFCURVE",
"113 628 CURVE SMOOTH",
"127.667 628 OFFCURVE",
"161 616 OFFCURVE",
"161 596 CURVE SMOOTH",
"161 579.333 OFFCURVE",
"158 555 OFFCURVE",
"152 523 CURVE SMOOTH",
"77 135 LINE SMOOTH",
"71 97 OFFCURVE",
"62.667 69.333 OFFCURVE",
"52 52 CURVE",
"45.333 40 OFFCURVE",
"7.667 30 OFFCURVE",
"-7 30 CURVE SMOOTH",
"-9.667 30 OFFCURVE",
"-13 11.333 OFFCURVE",
"-13 2 CURVE SMOOTH",
"-13 -1.333 OFFCURVE",
"-12.667 -3.333 OFFCURVE",
"-12 -4 CURVE",
"4 -2.667 OFFCURVE",
"80.667 3 OFFCURVE",
"114 3 CURVE SMOOTH",
"139.237 3 OFFCURVE",
"213.324 -1.694 OFFCURVE",
"241 -4 CURVE",
"245.667 2.667 OFFCURVE",
"248 12.333 OFFCURVE",
"248 25 CURVE SMOOTH",
"248 28.333 OFFCURVE",
"247.333 30 OFFCURVE",
"246 30 CURVE SMOOTH",
"234 30 OFFCURVE",
"198 45.667 OFFCURVE",
"198 59 CURVE SMOOTH",
"198 77.667 OFFCURVE",
"201.333 104.333 OFFCURVE",
"208 139 CURVE SMOOTH",
"281 519 LINE SMOOTH"
);
},
{
closed = 1;
nodes = (
"409 76 LINE SMOOTH",
"429 45.333 OFFCURVE",
"452 24.667 OFFCURVE",
"472 14 CURVE SMOOTH",
"482 8.667 OFFCURVE",
"494.333 4.667 OFFCURVE",
"509 2 CURVE SMOOTH",
"523.667 -0.667 OFFCURVE",
"551.333 -2.667 OFFCURVE",
"592 -4 CURVE SMOOTH",
"621.333 -4 OFFCURVE",
"641.333 -2.667 OFFCURVE",
"652 0 CURVE",
"656.667 6.667 OFFCURVE",
"659 14 OFFCURVE",
"659 22 CURVE SMOOTH",
"659 27.333 OFFCURVE",
"658 30 OFFCURVE",
"656 30 CURVE SMOOTH",
"614.667 30 OFFCURVE",
"583 49.333 OFFCURVE",
"539 112 CURVE SMOOTH",
"384 334 LINE SMOOTH",
"382 336.667 OFFCURVE",
"381 339.667 OFFCURVE",
"381 343 CURVE SMOOTH",
"381 349.667 OFFCURVE",
"384.333 356.333 OFFCURVE",
"391 363 CURVE SMOOTH",
"604 585 LINE SMOOTH",
"628 609.667 OFFCURVE",
"665 624.667 OFFCURVE",
"715 630 CURVE",
"719 630 OFFCURVE",
"723 650 OFFCURVE",
"723 662 CURVE",
"647 658 OFFCURVE",
"607.667 656 OFFCURVE",
"605 656 CURVE SMOOTH",
"590.333 656 OFFCURVE",
"549 658 OFFCURVE",
"481 662 CURVE",
"478.333 657.333 OFFCURVE",
"477 650.333 OFFCURVE",
"477 641 CURVE SMOOTH",
"477 633.667 OFFCURVE",
"478 630 OFFCURVE",
"480 630 CURVE SMOOTH",
"494.667 630 OFFCURVE",
"532 622 OFFCURVE",
"532 610 CURVE SMOOTH",
"532 602 OFFCURVE",
"528 594 OFFCURVE",
"520 586 CURVE SMOOTH",
"434 500 OFFCURVE",
"373.667 440.833 OFFCURVE",
"339 408.5 CURVE SMOOTH",
"304.333 376.167 OFFCURVE",
"273 351 OFFCURVE",
"245 333 CURVE"
);
}
);
width = 711;
}
);
note = K;
unicode = 004B;
},
{
glyphname = L;
lastChange = "2018-12-17 21:49:21 +0000";
layers = (
{
background = {
paths = (
{
closed = 1;
nodes = (
"281 519 LINE SMOOTH",
"283 530 OFFCURVE",
"299 594 OFFCURVE",
"305 604 QCURVE SMOOTH",
"309 611 OFFCURVE",
"356 628 OFFCURVE",
"364 628 QCURVE SMOOTH",
"367 628 OFFCURVE",
"372 649 OFFCURVE",
"372 657 QCURVE SMOOTH",
"372 662 LINE",
"258 656 OFFCURVE",
"240 656 QCURVE SMOOTH",
"221 656 OFFCURVE",
"181 658 OFFCURVE",
"132 661 OFFCURVE",
"118 662 QCURVE",
"112 656 OFFCURVE",
"112 632 QCURVE SMOOTH",
"112 628 OFFCURVE",
"113 628 QCURVE SMOOTH",
"124 628 OFFCURVE",
"161 611 OFFCURVE",
"161 596 QCURVE SMOOTH",
"161 571 OFFCURVE",
"152 523 QCURVE SMOOTH",
"77 135 LINE SMOOTH",
"67 79 OFFCURVE",
"56 56 QCURVE SMOOTH",
"52 48 OFFCURVE",
"4 30 OFFCURVE",
"-6 30 QCURVE SMOOTH",
"-7 30 OFFCURVE",
"-10 23 OFFCURVE",
"-13 11 OFFCURVE",
"-13 5 QCURVE SMOOTH",
"-13 0 OFFCURVE",
"-11 -4 QCURVE",
"10 -2 LINE",
"31 -1 OFFCURVE",
"96 2 OFFCURVE",
"120 2 QCURVE SMOOTH",
"160 2 OFFCURVE",
"384 -2 OFFCURVE",
"437 -2 QCURVE",
"442 13 OFFCURVE",
"465 62 OFFCURVE",
"481 95 OFFCURVE",
"517 162 OFFCURVE",
"521 170 QCURVE",
"517 176 OFFCURVE",
"494 176 QCURVE SMOOTH",
"483 176 OFFCURVE",
"480 170 QCURVE",
"463 139 OFFCURVE",
"413 89 OFFCURVE",
"396 80 QCURVE SMOOTH",
"344 54 OFFCURVE",
"286 54 QCURVE SMOOTH",
"262 54 LINE SMOOTH",
"220 54 OFFCURVE",
"201 65 OFFCURVE",
"201 82 QCURVE SMOOTH",
"201 97 OFFCURVE",
"208 139 QCURVE SMOOTH"
);
}
);
};
layerId = "EE330C8E-4A1C-402A-831D-620872201BE1";
paths = (
{
closed = 1;
nodes = (
"281 519 LINE SMOOTH",
"283.667 533.667 OFFCURVE",
"297 590.667 OFFCURVE",
"305 604 CURVE SMOOTH",
"310.333 613.333 OFFCURVE",
"353.333 628 OFFCURVE",
"364 628 CURVE SMOOTH",
"368 628 OFFCURVE",
"372 646.333 OFFCURVE",
"372 657 CURVE SMOOTH",
"372 662 LINE",
"296 658 OFFCURVE",
"252 656 OFFCURVE",
"240 656 CURVE SMOOTH",
"215.461 656 OFFCURVE",
"147.034 659.926 OFFCURVE",
"118 662 CURVE",
"114 658 OFFCURVE",
"112 648 OFFCURVE",
"112 632 CURVE SMOOTH",
"112 629.333 OFFCURVE",
"112.333 628 OFFCURVE",
"113 628 CURVE SMOOTH",
"127.667 628 OFFCURVE",
"161 616 OFFCURVE",
"161 596 CURVE SMOOTH",
"161 579.333 OFFCURVE",
"158 555 OFFCURVE",
"152 523 CURVE SMOOTH",
"77 135 LINE SMOOTH",
"70.333 97.667 OFFCURVE",
"63.333 71.333 OFFCURVE",
"56 56 CURVE SMOOTH",
"50.667 45.333 OFFCURVE",
"7.333 30 OFFCURVE",
"-6 30 CURVE SMOOTH",
"-8.836 30 OFFCURVE",
"-13 12.581 OFFCURVE",
"-13 5 CURVE SMOOTH",
"-13 1.667 OFFCURVE",
"-12.333 -1.333 OFFCURVE",
"-11 -4 CURVE",
"10 -2 LINE",
"38 -0.667 OFFCURVE",
"88 2 OFFCURVE",
"120 2 CURVE SMOOTH",
"146.667 2 OFFCURVE",
"197.333 1.333 OFFCURVE",
"272 0 CURVE SMOOTH",
"346.667 -1.333 OFFCURVE",
"401.667 -2 OFFCURVE",
"437 -2 CURVE",
"450.939 39.817 OFFCURVE",
"503.032 134.065 OFFCURVE",
"521 170 CURVE",
"518.333 174 OFFCURVE",
"509.333 176 OFFCURVE",
"494 176 CURVE SMOOTH",
"486.667 176 OFFCURVE",
"482 174 OFFCURVE",
"480 170 CURVE",
"457.333 128.667 OFFCURVE",
"418.667 92 OFFCURVE",
"396 80 CURVE SMOOTH",
"361.333 62.667 OFFCURVE",
"324.667 54 OFFCURVE",
"286 54 CURVE SMOOTH",
"262 54 LINE SMOOTH",
"234 54 OFFCURVE",
"216.833 55.833 OFFCURVE",
"210.5 59.5 CURVE SMOOTH",
"204.167 63.167 OFFCURVE",
"201 70.667 OFFCURVE",
"201 82 CURVE SMOOTH",
"201 92 OFFCURVE",
"203.333 111 OFFCURVE",
"208 139 CURVE SMOOTH"
);
}
);
width = 522;
}
);
note = L;
unicode = 004C;
},
{
glyphname = Lslash;
lastChange = "2018-12-17 21:49:21 +0000";
layers = (
{
background = {
paths = (
{
closed = 1;
nodes = (
"267 656 OFFCURVE",
"141 662 QCURVE",
"138 659 OFFCURVE",
"135 642 QCURVE SMOOTH",
"133 628 OFFCURVE",
"135 628 QCURVE SMOOTH",
"144 628 OFFCURVE",
"185 608 OFFCURVE",
"188 600 QCURVE SMOOTH",
"192 589 OFFCURVE",
"181 525 QCURVE SMOOTH",
"132 271 LINE",
"60 224 LINE",
"56 221 OFFCURVE",
"54 214 QCURVE",
"53 206 OFFCURVE",
"68 171 OFFCURVE",
"73 171 QCURVE",
"118 200 LINE",
"107 143 LINE SMOOTH",
"95 81 OFFCURVE",
"84 55 QCURVE",
"79 47 OFFCURVE",
"28 30 OFFCURVE",
"17 30 QCURVE SMOOTH",
"14 30 OFFCURVE",
"11 13 QCURVE",
"8 -1 OFFCURVE",
"11 -4 QCURVE",
"148 2 LINE",
"188 2 OFFCURVE",
"412 -2 OFFCURVE",
"465 -2 QCURVE",
"475 27 OFFCURVE",
"549 170 QCURVE",
"545 176 OFFCURVE",
"522 176 QCURVE SMOOTH",
"511 176 OFFCURVE",
"508 170 QCURVE",
"491 139 OFFCURVE",
"441 89 OFFCURVE",
"424 80 QCURVE SMOOTH",
"372 54 OFFCURVE",
"314 54 QCURVE SMOOTH",
"290 54 LINE SMOOTH",
"231 54 OFFCURVE",
"230 70 QCURVE",
"227 88 OFFCURVE",
"237 142 QCURVE SMOOTH",
"266 295 LINE",
"442 408 LINE SMOOTH",
"447 411 OFFCURVE",
"449 419 QCURVE SMOOTH",
"451 426 OFFCURVE",
"440 451 QCURVE",
"432 466 OFFCURVE",
"429 466 QCURVE",
"281 369 LINE",
"310 521 LINE SMOOTH",
"319 570 OFFCURVE",
"333 601 QCURVE SMOOTH",
"336 608 OFFCURVE",
"390 628 OFFCURVE",
"398 628 QCURVE SMOOTH",
"402 628 OFFCURVE",
"405 644 QCURVE SMOOTH",
"406 649 OFFCURVE",
"406 662 QCURVE",
"292 656 OFFCURVE",
"274 656 QCURVE SMOOTH"
);
}
);
};
layerId = "EE330C8E-4A1C-402A-831D-620872201BE1";
paths = (
{
closed = 1;
nodes = (
"269.333 656 OFFCURVE",
"225 658 OFFCURVE",
"141 662 CURVE",
"139 660 OFFCURVE",
"137 653.333 OFFCURVE",
"135 642 CURVE SMOOTH",
"133.667 632.667 OFFCURVE",
"133.667 628 OFFCURVE",
"135 628 CURVE SMOOTH",
"147 628 OFFCURVE",
"184 610.667 OFFCURVE",
"188 600 CURVE SMOOTH",
"190.667 592.667 OFFCURVE",
"188.333 567.667 OFFCURVE",
"181 525 CURVE SMOOTH",
"132 271 LINE",
"60 224 LINE",
"57.333 222 OFFCURVE",
"55.333 218.667 OFFCURVE",
"54 214 CURVE",
"52.667 203.333 OFFCURVE",
"66.333 171 OFFCURVE",
"73 171 CURVE",
"118 200 LINE",
"107 143 LINE SMOOTH",
"99 101.667 OFFCURVE",
"91.333 72.333 OFFCURVE",
"84 55 CURVE",
"77.333 44.333 OFFCURVE",
"31.667 30 OFFCURVE",
"17 30 CURVE SMOOTH",
"15 30 OFFCURVE",
"13 24.333 OFFCURVE",
"11 13 CURVE",
"9 3.667 OFFCURVE",
"9 -2 OFFCURVE",
"11 -4 CURVE",
"148 2 LINE",
"174.667 2 OFFCURVE",
"225.333 1.333 OFFCURVE",
"300 0 CURVE SMOOTH",
"374.667 -1.333 OFFCURVE",
"429.667 -2 OFFCURVE",
"465 -2 CURVE",
"471.667 17.333 OFFCURVE",
"499.667 74.667 OFFCURVE",
"549 170 CURVE",
"546.333 174 OFFCURVE",
"537.333 176 OFFCURVE",
"522 176 CURVE SMOOTH",
"514.667 176 OFFCURVE",
"510 174 OFFCURVE",
"508 170 CURVE",
"485.333 128.667 OFFCURVE",
"446.667 92 OFFCURVE",
"424 80 CURVE SMOOTH",
"389.333 62.667 OFFCURVE",
"352.667 54 OFFCURVE",
"314 54 CURVE SMOOTH",
"290 54 LINE SMOOTH",
"250.667 54 OFFCURVE",
"230.667 59.333 OFFCURVE",
"230 70 CURVE",
"228 82 OFFCURVE",
"230.333 106 OFFCURVE",
"237 142 CURVE SMOOTH",
"266 295 LINE",
"442 408 LINE SMOOTH",
"445.333 410 OFFCURVE",
"447.667 413.667 OFFCURVE",
"449 419 CURVE SMOOTH",
"450.333 423.667 OFFCURVE",
"447.333 434.333 OFFCURVE",
"440 451 CURVE",
"434.667 461 OFFCURVE",
"431 466 OFFCURVE",
"429 466 CURVE",
"281 369 LINE",
"310 521 LINE SMOOTH",
"316 553.667 OFFCURVE",
"323.667 580.333 OFFCURVE",
"333 601 CURVE SMOOTH",
"337 610.333 OFFCURVE",
"387.333 628 OFFCURVE",
"398 628 CURVE SMOOTH",
"400.667 628 OFFCURVE",
"403 633.333 OFFCURVE",
"405 644 CURVE SMOOTH",
"405.667 647.333 OFFCURVE",
"406 653.333 OFFCURVE",
"406 662 CURVE",
"330 658 OFFCURVE",
"286 656 OFFCURVE",
"274 656 CURVE SMOOTH"
);
}
);
width = 533;
}
);
note = Lslash;
unicode = 0141;
},
{
glyphname = M;
lastChange = "2018-12-17 21:49:21 +0000";
layers = (
{
background = {
paths = (
{
closed = 1;
nodes = (
"460 231 LINE",
"460 229 OFFCURVE",
"456 229 OFFCURVE",
"456 230 QCURVE",
"445 287 OFFCURVE",
"404 506 OFFCURVE",
"381 633 OFFCURVE",
"378 662 QCURVE",
"302 658 OFFCURVE",
"279 658 QCURVE SMOOTH",
"257 658 OFFCURVE",
"173 662 QCURVE",
"165 654 OFFCURVE",
"165 635 QCURVE SMOOTH",
"165 628 OFFCURVE",
"166 628 QCURVE SMOOTH",
"182 628 OFFCURVE",
"232 615 OFFCURVE",
"232 602 QCURVE SMOOTH",
"232 598 OFFCURVE",
"225 566 QCURVE",
"104 101 LINE",
"100 88 OFFCURVE",
"98 80 QCURVE SMOOTH",
"92 59 OFFCURVE",
"11 30 OFFCURVE",
"-6 30 QCURVE SMOOTH",
"-7 30 OFFCURVE",
"-10 22 OFFCURVE",
"-13 10 OFFCURVE",
"-13 0 OFFCURVE",
"-11 -4 QCURVE",
"1 -3 OFFCURVE",
"89 3 OFFCURVE",
"114 3 QCURVE SMOOTH",
"132 3 OFFCURVE",
"177 1 OFFCURVE",
"230 -3 OFFCURVE",
"242 -4 QCURVE",
"248 5 OFFCURVE",
"248 24 QCURVE SMOOTH",
"248 30 OFFCURVE",
"246 30 QCURVE SMOOTH",
"235 30 OFFCURVE",
"163 57 OFFCURVE",
"163 70 QCURVE SMOOTH",
"163 78 OFFCURVE",
"166 93 QCURVE SMOOTH",
"179 156 OFFCURVE",
"269 479 QCURVE",
"271 484 OFFCURVE",
"273 484 QCURVE SMOOTH",
"275 484 OFFCURVE",
"276 480 QCURVE",
"369 0 LINE",
"375 -2 OFFCURVE",
"377 -2 QCURVE SMOOTH",
"388 -2 OFFCURVE",
"415 22 OFFCURVE",
"420 31 QCURVE SMOOTH",
"650 454 LINE SMOOTH",
"654 461 OFFCURVE",
"656 461 QCURVE SMOOTH",
"660 461 OFFCURVE",
"660 450 QCURVE SMOOTH",
"660 420 OFFCURVE",
"658 402 QCURVE SMOOTH",
"631 145 LINE SMOOTH",
"628 111 OFFCURVE",
"622 77 OFFCURVE",
"617 67 OFFCURVE",
"612 58 QCURVE",
"605 48 OFFCURVE",
"559 30 OFFCURVE",
"549 30 QCURVE SMOOTH",
"548 30 OFFCURVE",
"545 24 OFFCURVE",
"542 12 OFFCURVE",
"542 7 QCURVE SMOOTH",
"542 0 OFFCURVE",
"544 -4 QCURVE",
"552 -4 OFFCURVE",
"654 3 OFFCURVE",
"679 3 QCURVE SMOOTH",
"703 3 OFFCURVE",
"792 -4 OFFCURVE",
"797 -4 QCURVE",
"804 5 OFFCURVE",
"804 25 QCURVE SMOOTH",
"804 30 OFFCURVE",
"802 30 QCURVE SMOOTH",
"795 30 OFFCURVE",
"774 35 OFFCURVE",
"749 54 OFFCURVE",
"749 68 QCURVE SMOOTH",
"749 79 OFFCURVE",
"753 116 OFFCURVE",
"753 116 QCURVE",
"760 215 OFFCURVE",
"794 524 QCURVE SMOOTH",
"801 591 OFFCURVE",
"818 611 QCURVE SMOOTH",
"833 628 OFFCURVE",
"866 628 QCURVE SMOOTH",
"873 628 OFFCURVE",
"873 662 QCURVE",
"797 658 OFFCURVE",
"776 658 QCURVE SMOOTH",
"713 658 OFFCURVE",
"681 662 QCURVE",
"627 546 LINE"
);
}
);
};
layerId = "EE330C8E-4A1C-402A-831D-620872201BE1";
paths = (
{
closed = 1;
nodes = (
"460 231 LINE",
"460 229.667 OFFCURVE",
"459.333 229 OFFCURVE",
"458 229 CURVE SMOOTH",
"456.667 229 OFFCURVE",
"456 229.333 OFFCURVE",
"456 230 CURVE",
"441.333 306 OFFCURVE",
"407.833 484.833 OFFCURVE",
"392.5 569.5 CURVE SMOOTH",
"384.833 611.833 OFFCURVE",
"380 642.667 OFFCURVE",
"378 662 CURVE",
"327.333 659.333 OFFCURVE",
"294.333 658 OFFCURVE",
"279 658 CURVE SMOOTH",
"264.333 658 OFFCURVE",
"229 659.333 OFFCURVE",
"173 662 CURVE",
"167.667 656.667 OFFCURVE",
"165 647.667 OFFCURVE",
"165 635 CURVE SMOOTH",
"165 630.333 OFFCURVE",
"165.333 628 OFFCURVE",
"166 628 CURVE SMOOTH",
"187.333 628 OFFCURVE",
"232 619.333 OFFCURVE",
"232 602 CURVE SMOOTH",
"232 599.333 OFFCURVE",
"229.667 587.333 OFFCURVE",
"225 566 CURVE",
"104 101 LINE",
"101.333 92.333 OFFCURVE",
"99.333 85.333 OFFCURVE",
"98 80 CURVE SMOOTH",
"90 52 OFFCURVE",
"16.667 30 OFFCURVE",
"-6 30 CURVE SMOOTH",
"-9.553 30 OFFCURVE",
"-15.219 4.438 OFFCURVE",
"-11 -4 CURVE",
"5 -2.667 OFFCURVE",
"80.667 3 OFFCURVE",
"114 3 CURVE SMOOTH",
"138.862 3 OFFCURVE",
"214.005 -1.667 OFFCURVE",
"242 -4 CURVE",
"246 2 OFFCURVE",
"248 11.333 OFFCURVE",
"248 24 CURVE SMOOTH",
"248 28 OFFCURVE",
"247.333 30 OFFCURVE",
"246 30 CURVE SMOOTH",
"231.333 30 OFFCURVE",
"163 52.667 OFFCURVE",
"163 70 CURVE SMOOTH",
"163 75.333 OFFCURVE",
"164 83 OFFCURVE",
"166 93 CURVE SMOOTH",
"174.667 135 OFFCURVE",
"209 263.667 OFFCURVE",
"269 479 CURVE",
"270.333 482.333 OFFCURVE",
"271.667 484 OFFCURVE",
"273 484 CURVE SMOOTH",
"274.333 484 OFFCURVE",
"275.333 482.667 OFFCURVE",
"276 480 CURVE",
"369 0 LINE",
"373 -1.333 OFFCURVE",
"375.667 -2 OFFCURVE",
"377 -2 CURVE SMOOTH",
"391.667 -2 OFFCURVE",
"413.333 19 OFFCURVE",
"420 31 CURVE SMOOTH",
"650 454 LINE SMOOTH",
"652.667 458.667 OFFCURVE",
"654.667 461 OFFCURVE",
"656 461 CURVE SMOOTH",
"658.667 461 OFFCURVE",
"660 457.333 OFFCURVE",
"660 450 CURVE SMOOTH",
"660 430 OFFCURVE",
"659.333 414 OFFCURVE",
"658 402 CURVE SMOOTH",
"631 145 LINE SMOOTH",
"626.692 96.178 OFFCURVE",
"624.786 81.014 OFFCURVE",
"612 58 CURVE",
"602.667 44.667 OFFCURVE",
"562.333 30 OFFCURVE",
"549 30 CURVE SMOOTH",
"546.105 30 OFFCURVE",
"542 14.46 OFFCURVE",
"542 7 CURVE SMOOTH",
"542 2.333 OFFCURVE",
"542.667 -1.333 OFFCURVE",
"544 -4 CURVE",
"549.333 -4 OFFCURVE",
"569 -2.833 OFFCURVE",
"603 -0.5 CURVE SMOOTH",
"637 1.833 OFFCURVE",
"662.333 3 OFFCURVE",
"679 3 CURVE SMOOTH",
"695 3 OFFCURVE",
"717.833 1.833 OFFCURVE",
"747.5 -0.5 CURVE SMOOTH",
"777.167 -2.833 OFFCURVE",
"793.667 -4 OFFCURVE",
"797 -4 CURVE",
"801.667 2 OFFCURVE",
"804 11.667 OFFCURVE",
"804 25 CURVE SMOOTH",
"804 28.333 OFFCURVE",
"803.333 30 OFFCURVE",
"802 30 CURVE SMOOTH",
"786.023 30 OFFCURVE",
"749 41.758 OFFCURVE",
"749 68 CURVE SMOOTH",
"749 82.667 OFFCURVE",
"753 116 OFFCURVE",
"753 116 CURVE",
"757.667 182 OFFCURVE",
"771.333 318 OFFCURVE",
"794 524 CURVE SMOOTH",
"798.667 568.667 OFFCURVE",
"806.667 597.667 OFFCURVE",
"818 611 CURVE SMOOTH",
"828 622.333 OFFCURVE",
"844 628 OFFCURVE",
"866 628 CURVE SMOOTH",
"870.667 628 OFFCURVE",
"873 639.333 OFFCURVE",
"873 662 CURVE",
"822.333 659.333 OFFCURVE",
"790 658 OFFCURVE",
"776 658 CURVE SMOOTH",
"734 658 OFFCURVE",
"702.333 659.333 OFFCURVE",
"681 662 CURVE",
"627 546 LINE"
);
}
);
width = 861;
}
);
note = M;
unicode = 004D;
},
{
glyphname = N;
lastChange = "2018-12-17 21:49:21 +0000";
layers = (
{
background = {
paths = (
{
closed = 1;
nodes = (
"233 657 OFFCURVE",
"128 662 QCURVE",
"121 657 OFFCURVE",
"121 636 QCURVE SMOOTH",
"121 628 OFFCURVE",
"124 628 QCURVE SMOOTH",
"141 628 OFFCURVE",
"197 611 OFFCURVE",
"197 596 QCURVE SMOOTH",
"197 569 OFFCURVE",
"191 537 QCURVE SMOOTH",
"115 144 LINE SMOOTH",
"105 88 OFFCURVE",
"92 71 QCURVE SMOOTH",
"75 49 OFFCURVE",
"11 30 OFFCURVE",
"-7 30 QCURVE SMOOTH",
"-8 30 OFFCURVE",
"-10 22 OFFCURVE",
"-13 10 OFFCURVE",
"-13 0 OFFCURVE",
"-11 -4 QCURVE",
"1 -3 OFFCURVE",
"90 3 OFFCURVE",
"115 3 QCURVE SMOOTH",
"133 3 OFFCURVE",
"178 1 OFFCURVE",
"230 -3 OFFCURVE",
"242 -4 QCURVE",
"248 8 OFFCURVE",
"248 25 QCURVE SMOOTH",
"248 30 OFFCURVE",
"246 30 QCURVE SMOOTH",
"241 30 OFFCURVE",
"219 35 OFFCURVE",
"188 46 OFFCURVE",
"166 70 OFFCURVE",
"166 86 QCURVE SMOOTH",
"166 101 OFFCURVE",
"174 141 QCURVE SMOOTH",
"248 524 LINE",
"525 18 LINE",
"539 -5 OFFCURVE",
"550 -5 QCURVE SMOOTH",
"570 -5 OFFCURVE",
"574 -1 QCURVE",
"589 98 OFFCURVE",
"597 139 QCURVE SMOOTH",
"671 519 LINE SMOOTH",
"682 576 OFFCURVE",
"698 592 QCURVE",
"711 606 OFFCURVE",
"756 624 OFFCURVE",
"782 628 OFFCURVE",
"789 628 QCURVE SMOOTH",
"797 628 OFFCURVE",
"797 662 QCURVE",
"704 657 OFFCURVE",
"673 657 QCURVE SMOOTH",
"648 657 OFFCURVE",
"543 662 QCURVE",
"537 656 OFFCURVE",
"537 635 QCURVE SMOOTH",
"537 628 OFFCURVE",
"539 628 QCURVE SMOOTH",
"556 628 OFFCURVE",
"619 599 OFFCURVE",
"619 557 OFFCURVE",
"613 524 QCURVE SMOOTH",
"569 292 LINE",
"561 257 OFFCURVE",
"559 251 QCURVE",
"528 312 OFFCURVE",
"421 500 OFFCURVE",
"354 628 OFFCURVE",
"345 662 QCURVE",
"306 657 OFFCURVE",
"252 657 QCURVE SMOOTH"
);
}
);
};
layerId = "EE330C8E-4A1C-402A-831D-620872201BE1";
paths = (
{
closed = 1;
nodes = (
"239.333 657 OFFCURVE",
"198 658.667 OFFCURVE",
"128 662 CURVE",
"123.333 658.667 OFFCURVE",
"121 650 OFFCURVE",
"121 636 CURVE SMOOTH",
"121 630.667 OFFCURVE",
"122 628 OFFCURVE",
"124 628 CURVE SMOOTH",
"146.667 628 OFFCURVE",
"197 616 OFFCURVE",
"197 596 CURVE SMOOTH",
"197 578 OFFCURVE",
"195 558.333 OFFCURVE",
"191 537 CURVE SMOOTH",
"115 144 LINE SMOOTH",
"108.333 106.667 OFFCURVE",
"100.667 82.333 OFFCURVE",
"92 71 CURVE SMOOTH",
"69.333 41.667 OFFCURVE",
"17 30 OFFCURVE",
"-7 30 CURVE SMOOTH",
"-9.795 30 OFFCURVE",
"-14.948 3.897 OFFCURVE",
"-11 -4 CURVE",
"5 -2.667 OFFCURVE",
"81.667 3 OFFCURVE",
"115 3 CURVE SMOOTH",
"140.237 3 OFFCURVE",
"214.324 -1.694 OFFCURVE",
"242 -4 CURVE",
"246 4 OFFCURVE",
"248 13.667 OFFCURVE",
"248 25 CURVE SMOOTH",
"248 28.333 OFFCURVE",
"247.333 30 OFFCURVE",
"246 30 CURVE SMOOTH",
"225.543 30 OFFCURVE",
"166 45.227 OFFCURVE",
"166 86 CURVE SMOOTH",
"166 96 OFFCURVE",
"168.667 114.333 OFFCURVE",
"174 141 CURVE SMOOTH",
"248 524 LINE",
"525 18 LINE",
"534.333 2.667 OFFCURVE",
"542.667 -5 OFFCURVE",
"550 -5 CURVE SMOOTH",
"563.333 -5 OFFCURVE",
"571.333 -3.667 OFFCURVE",
"574 -1 CURVE",
"584 65 OFFCURVE",
"591.667 111.667 OFFCURVE",
"597 139 CURVE SMOOTH",
"671 519 LINE SMOOTH",
"678.333 557 OFFCURVE",
"687.333 581.333 OFFCURVE",
"698 592 CURVE",
"719.767 615.441 OFFCURVE",
"768.663 628 OFFCURVE",
"789 628 CURVE SMOOTH",
"794.333 628 OFFCURVE",
"797 639.333 OFFCURVE",
"797 662 CURVE",
"735 658.667 OFFCURVE",
"693.667 657 OFFCURVE",
"673 657 CURVE SMOOTH",
"656.333 657 OFFCURVE",
"613 658.667 OFFCURVE",
"543 662 CURVE",
"539 658 OFFCURVE",
"537 649 OFFCURVE",
"537 635 CURVE SMOOTH",
"537 630.333 OFFCURVE",
"537.667 628 OFFCURVE",
"539 628 CURVE SMOOTH",
"598.416 628 OFFCURVE",
"626.404 597.724 OFFCURVE",
"613 524 CURVE SMOOTH",
"569 292 LINE",
"563.667 268.667 OFFCURVE",
"560.333 255 OFFCURVE",
"559 251 CURVE",
"514.379 338.803 OFFCURVE",
"435.376 472.535 OFFCURVE",
"387.5 564 CURVE SMOOTH",
"365.167 606.667 OFFCURVE",
"351 639.333 OFFCURVE",
"345 662 CURVE",
"319 658.667 OFFCURVE",
"288 657 OFFCURVE",
"252 657 CURVE SMOOTH"
);
}
);
width = 675;
}
);
note = N;
unicode = 004E;
},
{
glyphname = Eng;
lastChange = "2018-12-17 21:49:21 +0000";
layers = (
{
background = {
paths = (
{
closed = 1;
nodes = (
"487 4 OFFCURVE",
"372 -157 OFFCURVE",
"328 -178 QCURVE",
"322 -190 OFFCURVE",
"322 -198 QCURVE SMOOTH",
"322 -215 OFFCURVE",
"330 -218 QCURVE",
"416 -205 OFFCURVE",
"572 -21 OFFCURVE",
"603 139 QCURVE SMOOTH",
"677 519 LINE SMOOTH",
"688 576 OFFCURVE",
"704 592 QCURVE",
"717 606 OFFCURVE",
"762 624 OFFCURVE",
"788 628 OFFCURVE",
"795 628 QCURVE SMOOTH",
"803 628 OFFCURVE",
"803 662 QCURVE",
"710 657 OFFCURVE",
"679 657 QCURVE SMOOTH",
"654 657 OFFCURVE",
"549 662 QCURVE",
"543 656 OFFCURVE",
"543 635 QCURVE SMOOTH",
"543 628 OFFCURVE",
"545 628 QCURVE SMOOTH",
"562 628 OFFCURVE",
"625 599 OFFCURVE",
"625 557 OFFCURVE",
"619 524 QCURVE SMOOTH",
"575 292 LINE",
"567 257 OFFCURVE",
"565 251 QCURVE",
"534 312 OFFCURVE",
"427 500 OFFCURVE",
"360 628 OFFCURVE",
"351 662 QCURVE",
"312 657 OFFCURVE",
"258 657 QCURVE SMOOTH",
"239 657 OFFCURVE",
"134 662 QCURVE",
"127 657 OFFCURVE",
"127 636 QCURVE SMOOTH",
"127 628 OFFCURVE",
"130 628 QCURVE SMOOTH",
"147 628 OFFCURVE",
"203 611 OFFCURVE",
"203 596 QCURVE SMOOTH",
"203 569 OFFCURVE",
"197 537 QCURVE SMOOTH",
"121 144 LINE SMOOTH",
"111 88 OFFCURVE",
"98 71 QCURVE SMOOTH",
"81 49 OFFCURVE",
"17 30 OFFCURVE",
"-1 30 QCURVE SMOOTH",
"-2 30 OFFCURVE",
"-4 22 OFFCURVE",
"-7 10 OFFCURVE",
"-7 0 OFFCURVE",
"-5 -4 QCURVE",
"7 -3 OFFCURVE",
"96 3 OFFCURVE",
"121 3 QCURVE SMOOTH",
"139 3 OFFCURVE",
"184 1 OFFCURVE",
"236 -3 OFFCURVE",
"248 -4 QCURVE",
"254 8 OFFCURVE",
"254 25 QCURVE SMOOTH",
"254 30 OFFCURVE",
"252 30 QCURVE SMOOTH",
"244 30 OFFCURVE",
"211 38 OFFCURVE",
"172 65 OFFCURVE",
"172 86 QCURVE SMOOTH",
"172 101 OFFCURVE",
"180 141 QCURVE SMOOTH",
"254 524 LINE",
"501 78 LINE"
);
}
);
};
layerId = "EE330C8E-4A1C-402A-831D-620872201BE1";
paths = (
{
closed = 1;
nodes = (
"482.333 -20.667 OFFCURVE",
"386.667 -150 OFFCURVE",
"328 -178 CURVE",
"324 -186 OFFCURVE",
"322 -192.667 OFFCURVE",
"322 -198 CURVE SMOOTH",
"322 -209.333 OFFCURVE",
"324.667 -216 OFFCURVE",
"330 -218 CURVE",
"444.667 -200.667 OFFCURVE",
"561.667 -74.333 OFFCURVE",
"603 139 CURVE SMOOTH",
"677 519 LINE SMOOTH",
"684.333 557 OFFCURVE",
"693.333 581.333 OFFCURVE",
"704 592 CURVE",
"725.767 615.441 OFFCURVE",
"774.663 628 OFFCURVE",
"795 628 CURVE SMOOTH",
"800.333 628 OFFCURVE",
"803 639.333 OFFCURVE",
"803 662 CURVE",
"741 658.667 OFFCURVE",
"699.667 657 OFFCURVE",
"679 657 CURVE SMOOTH",
"662.333 657 OFFCURVE",
"619 658.667 OFFCURVE",
"549 662 CURVE",
"545 658 OFFCURVE",
"543 649 OFFCURVE",
"543 635 CURVE SMOOTH",
"543 630.333 OFFCURVE",
"543.667 628 OFFCURVE",
"545 628 CURVE SMOOTH",
"604.416 628 OFFCURVE",
"632.404 597.724 OFFCURVE",
"619 524 CURVE SMOOTH",
"575 292 LINE",
"569.667 268.667 OFFCURVE",
"566.333 255 OFFCURVE",
"565 251 CURVE",
"520.379 338.803 OFFCURVE",
"441.376 472.535 OFFCURVE",
"393.5 564 CURVE SMOOTH",
"371.167 606.667 OFFCURVE",
"357 639.333 OFFCURVE",
"351 662 CURVE",
"325 658.667 OFFCURVE",
"294 657 OFFCURVE",
"258 657 CURVE SMOOTH",
"245.333 657 OFFCURVE",
"204 658.667 OFFCURVE",
"134 662 CURVE",
"129.333 658.667 OFFCURVE",
"127 650 OFFCURVE",
"127 636 CURVE SMOOTH",
"127 630.667 OFFCURVE",
"128 628 OFFCURVE",
"130 628 CURVE SMOOTH",
"152.667 628 OFFCURVE",
"203 616 OFFCURVE",
"203 596 CURVE SMOOTH",
"203 578 OFFCURVE",
"201 558.333 OFFCURVE",
"197 537 CURVE SMOOTH",
"121 144 LINE SMOOTH",
"114.333 106.667 OFFCURVE",
"106.667 82.333 OFFCURVE",
"98 71 CURVE SMOOTH",
"75.333 41.667 OFFCURVE",
"23 30 OFFCURVE",
"-1 30 CURVE SMOOTH",
"-3.795 30 OFFCURVE",
"-8.948 3.897 OFFCURVE",
"-5 -4 CURVE",
"11 -2.667 OFFCURVE",
"87.667 3 OFFCURVE",
"121 3 CURVE SMOOTH",
"146.237 3 OFFCURVE",
"220.324 -1.694 OFFCURVE",
"248 -4 CURVE",
"252 4 OFFCURVE",
"254 13.667 OFFCURVE",
"254 25 CURVE SMOOTH",
"254 28.333 OFFCURVE",
"253.333 30 OFFCURVE",
"252 30 CURVE SMOOTH",
"231.563 30 OFFCURVE",
"172 47.534 OFFCURVE",
"172 86 CURVE SMOOTH",
"172 96 OFFCURVE",
"174.667 114.333 OFFCURVE",
"180 141 CURVE SMOOTH",
"254 524 LINE",
"501 78 LINE"
);
}
);
width = 774;
}
);
note = Eng;
unicode = 014A;
},
{
glyphname = O;
lastChange = "2018-12-17 21:49:21 +0000";
layers = (
{
background = {
paths = (
{
closed = 1;
nodes = (
"481 611 OFFCURVE",
"481 435 QCURVE SMOOTH",
"481 395 OFFCURVE",
"467 298 OFFCURVE",
"436 190 OFFCURVE",
"391 103 OFFCURVE",
"320 46 OFFCURVE",
"278 46 QCURVE SMOOTH",
"245 46 OFFCURVE",
"196 77 OFFCURVE",
"169 133 OFFCURVE",
"157 199 OFFCURVE",
"157 238 QCURVE SMOOTH",
"157 397 OFFCURVE",
"278 611 OFFCURVE",
"359 611 QCURVE SMOOTH"
);
},
{
closed = 1;
nodes = (
"314 667 OFFCURVE",
"178 598 OFFCURVE",
"76 486 OFFCURVE",
"12 334 OFFCURVE",
"12 256 QCURVE SMOOTH",
"12 141 OFFCURVE",
"146 -10 OFFCURVE",
"252 -10 QCURVE SMOOTH",
"321 -10 OFFCURVE",
"457 59 OFFCURVE",
"560 171 OFFCURVE",
"624 322 OFFCURVE",
"624 400 QCURVE SMOOTH",
"624 516 OFFCURVE",
"489 667 OFFCURVE",
"383 667 QCURVE SMOOTH"
);
}
);
};
layerId = "EE330C8E-4A1C-402A-831D-620872201BE1";
paths = (
{
closed = 1;
nodes = (
"440.333 611 OFFCURVE",
"481 552.333 OFFCURVE",
"481 435 CURVE SMOOTH",
"481 381.667 OFFCURVE",
"472.167 316 OFFCURVE",
"451.5 244 CURVE SMOOTH",
"430.833 172 OFFCURVE",
"428.667 122 OFFCURVE",
"278 46 CURVE",
"187.798 46 OFFCURVE",
"157 134.053 OFFCURVE",
"157 238 CURVE SMOOTH",
"157 450 OFFCURVE",
"251 611 OFFCURVE",
"359 611 CURVE SMOOTH"
);
},
{
closed = 1;
nodes = (
"291 667 OFFCURVE",
"195 616.667 OFFCURVE",
"127 542 CURVE SMOOTH",
"59 467.333 OFFCURVE",
"12 360 OFFCURVE",
"12 256 CURVE SMOOTH",
"12 102.667 OFFCURVE",
"110.667 -10 OFFCURVE",
"252 -10 CURVE SMOOTH",
"344 -10 OFFCURVE",
"439.833 40.333 OFFCURVE",
"508.5 115 CURVE SMOOTH",
"577.167 189.667 OFFCURVE",
"624 296 OFFCURVE",
"624 400 CURVE SMOOTH",
"624 554.667 OFFCURVE",
"524.333 667 OFFCURVE",
"383 667 CURVE SMOOTH"
);
}
);
width = 626;
}
);
note = O;
unicode = 004F;
},
{
glyphname = Oslash;
lastChange = "2018-12-17 21:49:21 +0000";
layers = (
{
background = {
paths = (
{
closed = 1;
nodes = (
"438 611 OFFCURVE",
"469 560 QCURVE",
"182 149 LINE",
"172 188 OFFCURVE",
"172 238 QCURVE SMOOTH",
"172 397 OFFCURVE",
"294 611 OFFCURVE",
"374 611 QCURVE SMOOTH"
);
},
{
closed = 1;
nodes = (
"306 667 OFFCURVE",
"134 552 OFFCURVE",
"27 360 OFFCURVE",
"27 256 QCURVE SMOOTH",
"27 125 OFFCURVE",
"111 49 QCURVE",
"95 26 LINE",
"93 24 OFFCURVE",
"93 19 QCURVE SMOOTH",
"93 12 OFFCURVE",
"121 -1 OFFCURVE",
"129 0 QCURVE",
"145 23 LINE",
"200 -10 OFFCURVE",
"267 -10 QCURVE SMOOTH",
"359 -10 OFFCURVE",
"532 105 OFFCURVE",
"639 296 OFFCURVE",
"639 400 QCURVE SMOOTH",
"639 530 OFFCURVE",
"557 606 QCURVE",
"581 640 LINE",
"582 642 OFFCURVE",
"582 646 QCURVE SMOOTH",
"582 654 OFFCURVE",
"552 671 OFFCURVE",
"545 669 QCURVE",
"521 634 LINE",
"466 667 OFFCURVE",
"398 667 QCURVE SMOOTH"
);
},
{
closed = 1;
nodes = (
"232 46 OFFCURVE",
"200 101 QCURVE",
"489 510 LINE",
"496 478 OFFCURVE",
"496 435 QCURVE SMOOTH",
"496 383 OFFCURVE",
"473 258 OFFCURVE",
"428 131 OFFCURVE",
"345 46 OFFCURVE",
"293 46 QCURVE SMOOTH"
);
}
);
};
layerId = "EE330C8E-4A1C-402A-831D-620872201BE1";
paths = (
{
closed = 1;
nodes = (
"416.667 611 OFFCURVE",
"448.333 594 OFFCURVE",
"469 560 CURVE",
"182 149 LINE",
"175.333 175 OFFCURVE",
"172 204.667 OFFCURVE",
"172 238 CURVE SMOOTH",
"172 450 OFFCURVE",
"267.333 611 OFFCURVE",
"374 611 CURVE SMOOTH"
);
},
{
closed = 1;
nodes = (
"275.333 667 OFFCURVE",
"151.833 584 OFFCURVE",
"80.5 456 CURVE SMOOTH",
"44.833 392 OFFCURVE",
"27 325.333 OFFCURVE",
"27 256 CURVE SMOOTH",
"27 168.667 OFFCURVE",
"55 99.667 OFFCURVE",
"111 49 CURVE",
"95 26 LINE",
"93.667 24.667 OFFCURVE",
"93 22.333 OFFCURVE",
"93 19 CURVE SMOOTH",
"93 9.667 OFFCURVE",
"118.333 -1.333 OFFCURVE",
"129 0 CURVE",
"145 23 LINE",
"181.667 1 OFFCURVE",
"222.333 -10 OFFCURVE",
"267 -10 CURVE SMOOTH",
"389.667 -10 OFFCURVE",
"514.167 73.167 OFFCURVE",
"585.5 200.5 CURVE SMOOTH",
"621.167 264.167 OFFCURVE",
"639 330.667 OFFCURVE",
"639 400 CURVE SMOOTH",
"639 486.667 OFFCURVE",
"611.667 555.333 OFFCURVE",
"557 606 CURVE",
"581 640 LINE",
"581.667 641.333 OFFCURVE",
"582 643.333 OFFCURVE",
"582 646 CURVE SMOOTH",
"582 656.667 OFFCURVE",
"554.333 671.667 OFFCURVE",
"545 669 CURVE",
"521 634 LINE",
"484.333 656 OFFCURVE",
"443.333 667 OFFCURVE",
"398 667 CURVE SMOOTH"
);
},
{
closed = 1;
nodes = (
"252.333 46 OFFCURVE",
"221.333 64.333 OFFCURVE",
"200 101 CURVE",
"489 510 LINE",
"493.667 488.667 OFFCURVE",
"496 463.667 OFFCURVE",
"496 435 CURVE SMOOTH",
"496 291.461 OFFCURVE",
"433.618 46 OFFCURVE",
"293 46 CURVE SMOOTH"
);
}
);
width = 650;
}
);
note = Oslash;
unicode = 00D8;
},
{
glyphname = OE;
lastChange = "2018-12-17 21:49:21 +0000";
layers = (
{
background = {
paths = (
{
closed = 1;
nodes = (
"534 2 OFFCURVE",
"770 -2 OFFCURVE",
"822 -2 QCURVE",
"832 27 OFFCURVE",
"906 170 QCURVE",
"902 176 OFFCURVE",
"879 176 QCURVE SMOOTH",
"868 176 OFFCURVE",
"865 170 QCURVE",
"848 139 OFFCURVE",
"798 89 OFFCURVE",
"781 80 QCURVE SMOOTH",
"729 54 OFFCURVE",
"671 54 QCURVE SMOOTH",
"647 54 LINE SMOOTH",
"605 54 OFFCURVE",
"586 64 OFFCURVE",
"586 82 QCURVE SMOOTH",
"586 101 OFFCURVE",
"594 141 QCURVE SMOOTH",
"623 295 LINE SMOOTH",
"625 304 OFFCURVE",
"692 304 QCURVE SMOOTH",
"755 304 OFFCURVE",
"767 292 QCURVE SMOOTH",
"776 283 OFFCURVE",
"778 238 QCURVE",
"780 230 OFFCURVE",
"791 230 QCURVE SMOOTH",
"808 230 OFFCURVE",
"812 234 QCURVE",
"848 423 LINE",
"845 428 OFFCURVE",
"829 428 QCURVE SMOOTH",
"816 428 OFFCURVE",
"813 421 QCURVE SMOOTH",
"793 376 OFFCURVE",
"777 359 OFFCURVE",
"755 359 QCURVE SMOOTH",
"676 359 LINE SMOOTH",
"668 359 OFFCURVE",
"655 359 OFFCURVE",
"643 361 OFFCURVE",
"637 363 OFFCURVE",
"637 365 QCURVE",
"667 519 LINE SMOOTH",
"675 564 OFFCURVE",
"687 597 QCURVE",
"691 610 OFFCURVE",
"750 610 QCURVE SMOOTH",
"785 610 LINE SMOOTH",
"821 610 OFFCURVE",
"886 556 OFFCURVE",
"897 518 QCURVE",
"898 511 OFFCURVE",
"909 511 QCURVE SMOOTH",
"926 511 OFFCURVE",
"931 516 QCURVE",
"931 573 LINE SMOOTH",
"931 634 OFFCURVE",
"933 664 QCURVE",
"889 664 OFFCURVE",
"695 658 OFFCURVE",
"632 659 QCURVE SMOOTH",
"590 659 OFFCURVE",
"453 670 OFFCURVE",
"398 670 QCURVE SMOOTH",
"305 670 OFFCURVE",
"132 553 OFFCURVE",
"26 360 OFFCURVE",
"26 256 QCURVE SMOOTH",
"26 141 OFFCURVE",
"160 -10 OFFCURVE",
"266 -10 QCURVE SMOOTH",
"293 -10 OFFCURVE",
"368 -1 OFFCURVE",
"390 0 QCURVE SMOOTH",
"430 2 OFFCURVE",
"493 2 QCURVE SMOOTH"
);
},
{
closed = 1;
nodes = (
"453 89 OFFCURVE",
"422 70 QCURVE SMOOTH",
"383 46 OFFCURVE",
"292 46 QCURVE SMOOTH",
"228 46 OFFCURVE",
"171 154 OFFCURVE",
"171 238 QCURVE SMOOTH",
"171 397 OFFCURVE",
"293 611 OFFCURVE",
"373 611 QCURVE SMOOTH",
"467 611 OFFCURVE",
"510 588 QCURVE SMOOTH",
"528 578 OFFCURVE",
"540 538 OFFCURVE",
"537 521 QCURVE SMOOTH",
"464 143 LINE SMOOTH"
);
}
);
};
layerId = "EE330C8E-4A1C-402A-831D-620872201BE1";
paths = (
{
closed = 1;
nodes = (
"520.333 2 OFFCURVE",
"573.333 1.333 OFFCURVE",
"652 0 CURVE SMOOTH",
"730.667 -1.333 OFFCURVE",
"787.333 -2 OFFCURVE",
"822 -2 CURVE",
"828.667 17.333 OFFCURVE",
"856.667 74.667 OFFCURVE",
"906 170 CURVE",
"903.333 174 OFFCURVE",
"894.333 176 OFFCURVE",
"879 176 CURVE SMOOTH",
"871.667 176 OFFCURVE",
"867 174 OFFCURVE",
"865 170 CURVE",
"842.333 128.667 OFFCURVE",
"803.667 92 OFFCURVE",
"781 80 CURVE SMOOTH",
"746.333 62.667 OFFCURVE",
"709.667 54 OFFCURVE",
"671 54 CURVE SMOOTH",
"647 54 LINE SMOOTH",
"619 54 OFFCURVE",
"601.833 55.667 OFFCURVE",
"595.5 59 CURVE SMOOTH",
"589.167 62.333 OFFCURVE",
"586 70 OFFCURVE",
"586 82 CURVE SMOOTH",
"586 94.667 OFFCURVE",
"588.667 114.333 OFFCURVE",
"594 141 CURVE SMOOTH",
"623 295 LINE SMOOTH",
"624.333 301 OFFCURVE",
"647.333 304 OFFCURVE",
"692 304 CURVE SMOOTH",
"734 304 OFFCURVE",
"759 300 OFFCURVE",
"767 292 CURVE SMOOTH",
"773 286 OFFCURVE",
"776.667 268 OFFCURVE",
"778 238 CURVE",
"779.333 232.667 OFFCURVE",
"783.667 230 OFFCURVE",
"791 230 CURVE SMOOTH",
"802.333 230 OFFCURVE",
"809.333 231.333 OFFCURVE",
"812 234 CURVE",
"848 423 LINE",
"846 426.333 OFFCURVE",
"839.667 428 OFFCURVE",
"829 428 CURVE SMOOTH",
"820.333 428 OFFCURVE",
"815 425.667 OFFCURVE",
"813 421 CURVE SMOOTH",
"799.667 391 OFFCURVE",
"790.333 373.167 OFFCURVE",
"785 367.5 CURVE SMOOTH",
"779.667 361.833 OFFCURVE",
"769.667 359 OFFCURVE",
"755 359 CURVE SMOOTH",
"676 359 LINE SMOOTH",
"662.467 359 OFFCURVE",
"637 359.168 OFFCURVE",
"637 365 CURVE",
"667 519 LINE SMOOTH",
"672.333 549 OFFCURVE",
"679 575 OFFCURVE",
"687 597 CURVE",
"689.667 605.667 OFFCURVE",
"710.667 610 OFFCURVE",
"750 610 CURVE SMOOTH",
"785 610 LINE SMOOTH",
"833 610 OFFCURVE",
"882.333 568.667 OFFCURVE",
"897 518 CURVE",
"897.667 513.333 OFFCURVE",
"901.667 511 OFFCURVE",
"909 511 CURVE SMOOTH",
"920.333 511 OFFCURVE",
"927.667 512.667 OFFCURVE",
"931 516 CURVE",
"931 573 LINE SMOOTH",
"931 613.667 OFFCURVE",
"931.667 644 OFFCURVE",
"933 664 CURVE",
"903.667 664 OFFCURVE",
"856.667 663 OFFCURVE",
"792 661 CURVE SMOOTH",
"727.333 659 OFFCURVE",
"674 658.333 OFFCURVE",
"632 659 CURVE SMOOTH",
"604 659 OFFCURVE",
"567.167 660.833 OFFCURVE",
"521.5 664.5 CURVE SMOOTH",
"475.833 668.167 OFFCURVE",
"434.667 670 OFFCURVE",
"398 670 CURVE SMOOTH",
"274 670 OFFCURVE",
"149.667 585.167 OFFCURVE",
"79 456.5 CURVE SMOOTH",
"43.667 392.167 OFFCURVE",
"26 325.333 OFFCURVE",
"26 256 CURVE SMOOTH",
"26 102.667 OFFCURVE",
"124.667 -10 OFFCURVE",
"266 -10 CURVE SMOOTH",
"284 -10 OFFCURVE",
"305.5 -8.5 OFFCURVE",
"330.5 -5.5 CURVE SMOOTH",
"355.5 -2.5 OFFCURVE",
"375.333 -0.667 OFFCURVE",
"390 0 CURVE SMOOTH",
"416.667 1.333 OFFCURVE",
"451 2 OFFCURVE",
"493 2 CURVE SMOOTH"
);
},
{
closed = 1;
nodes = (
"456.667 107 OFFCURVE",
"442.667 82.667 OFFCURVE",
"422 70 CURVE SMOOTH",
"396 54 OFFCURVE",
"352.667 46 OFFCURVE",
"292 46 CURVE SMOOTH",
"206.667 46 OFFCURVE",
"171 126 OFFCURVE",
"171 238 CURVE SMOOTH",
"171 450 OFFCURVE",
"266.333 611 OFFCURVE",
"373 611 CURVE SMOOTH",
"435.667 611 OFFCURVE",
"481.333 603.333 OFFCURVE",
"510 588 CURVE SMOOTH",
"534 574.667 OFFCURVE",
"541 543.667 OFFCURVE",
"537 521 CURVE SMOOTH",
"464 143 LINE SMOOTH"
);
}
);
width = 942;
}
);
note = OE;
unicode = 0152;
},
{
glyphname = P;
lastChange = "2018-12-17 21:49:21 +0000";
layers = (
{
background = {
paths = (
{
closed = 1;
nodes = (
"350 662 OFFCURVE",
"273 657 OFFCURVE",
"245 657 QCURVE SMOOTH",
"223 657 OFFCURVE",
"118 662 QCURVE",
"116 660 OFFCURVE",
"110 640 OFFCURVE",
"110 633 QCURVE SMOOTH",
"110 628 OFFCURVE",
"112 628 QCURVE SMOOTH",
"121 628 OFFCURVE",
"160 609 OFFCURVE",
"160 595 QCURVE SMOOTH",
"160 561 OFFCURVE",
"152 523 QCURVE SMOOTH",
"76 135 LINE SMOOTH",
"64 74 OFFCURVE",
"54 55 QCURVE",
"42 30 OFFCURVE",
"-7 30 QCURVE SMOOTH",
"-10 30 OFFCURVE",
"-13 12 QCURVE",
"-14 2 OFFCURVE",
"-12 -4 QCURVE",
"-7 -4 OFFCURVE",
"104 3 OFFCURVE",
"129 3 QCURVE SMOOTH",
"149 3 OFFCURVE",
"278 -4 QCURVE",
"280 -1 OFFCURVE",
"283 14 QCURVE SMOOTH",
"286 30 OFFCURVE",
"282 30 QCURVE SMOOTH",
"275 30 OFFCURVE",
"256 32 OFFCURVE",
"222 39 OFFCURVE",
"199 59 OFFCURVE",
"199 74 QCURVE SMOOTH",
"199 88 OFFCURVE",
"208 141 QCURVE SMOOTH",
"294 588 LINE SMOOTH",
"298 607 OFFCURVE",
"352 607 QCURVE SMOOTH",
"384 607 OFFCURVE",
"417 554 OFFCURVE",
"417 520 QCURVE SMOOTH",
"417 436 OFFCURVE",
"361 328 OFFCURVE",
"304 328 QCURVE SMOOTH",
"298 328 OFFCURVE",
"276 331 OFFCURVE",
"272 331 QCURVE SMOOTH",
"269 331 OFFCURVE",
"263 316 OFFCURVE",
"263 309 QCURVE SMOOTH",
"263 303 OFFCURVE",
"264 302 QCURVE SMOOTH",
"272 294 OFFCURVE",
"307 281 OFFCURVE",
"328 281 QCURVE SMOOTH",
"381 281 OFFCURVE",
"470 323 OFFCURVE",
"527 389 OFFCURVE",
"558 470 OFFCURVE",
"558 510 QCURVE SMOOTH",
"558 547 OFFCURVE",
"533 604 OFFCURVE",
"496 636 OFFCURVE",
"445 656 OFFCURVE",
"401 662 OFFCURVE",
"377 662 QCURVE SMOOTH"
);
}
);
};
layerId = "EE330C8E-4A1C-402A-831D-620872201BE1";
paths = (
{
closed = 1;
nodes = (
"359 662 OFFCURVE",
"337.167 661.167 OFFCURVE",
"311.5 659.5 CURVE SMOOTH",
"285.833 657.833 OFFCURVE",
"263.667 657 OFFCURVE",
"245 657 CURVE SMOOTH",
"230.333 657 OFFCURVE",
"188 658.667 OFFCURVE",
"118 662 CURVE",
"115.333 659.333 OFFCURVE",
"110 642.333 OFFCURVE",
"110 633 CURVE SMOOTH",
"110 629.667 OFFCURVE",
"110.667 628 OFFCURVE",
"112 628 CURVE SMOOTH",
"124 628 OFFCURVE",
"160 613.667 OFFCURVE",
"160 595 CURVE SMOOTH",
"160 572.333 OFFCURVE",
"157.333 548.333 OFFCURVE",
"152 523 CURVE SMOOTH",
"76 135 LINE SMOOTH",
"68 94.333 OFFCURVE",
"60.667 67.667 OFFCURVE",
"54 55 CURVE",
"46 38.333 OFFCURVE",
"25.667 30 OFFCURVE",
"-7 30 CURVE SMOOTH",
"-9 30 OFFCURVE",
"-11 24 OFFCURVE",
"-13 12 CURVE",
"-13.667 5.333 OFFCURVE",
"-13.333 0 OFFCURVE",
"-12 -4 CURVE",
"-8.667 -4 OFFCURVE",
"11.5 -2.833 OFFCURVE",
"48.5 -0.5 CURVE SMOOTH",
"85.5 1.833 OFFCURVE",
"112.333 3 OFFCURVE",
"129 3 CURVE SMOOTH",
"142.333 3 OFFCURVE",
"192 0.667 OFFCURVE",
"278 -4 CURVE",
"279.333 -2 OFFCURVE",
"281 4 OFFCURVE",
"283 14 CURVE SMOOTH",
"285 24.667 OFFCURVE",
"284.667 30 OFFCURVE",
"282 30 CURVE SMOOTH",
"260.574 30 OFFCURVE",
"199 34.749 OFFCURVE",
"199 74 CURVE SMOOTH",
"199 83.333 OFFCURVE",
"202 105.667 OFFCURVE",
"208 141 CURVE SMOOTH",
"294 588 LINE SMOOTH",
"296.667 600.667 OFFCURVE",
"316 607 OFFCURVE",
"352 607 CURVE SMOOTH",
"394.667 607 OFFCURVE",
"417 565.333 OFFCURVE",
"417 520 CURVE SMOOTH",
"417 408 OFFCURVE",
"380 328 OFFCURVE",
"304 328 CURVE SMOOTH",
"300 328 OFFCURVE",
"294.333 328.5 OFFCURVE",
"287 329.5 CURVE SMOOTH",
"279.667 330.5 OFFCURVE",
"274.667 331 OFFCURVE",
"272 331 CURVE SMOOTH",
"268 331 OFFCURVE",
"263 318.333 OFFCURVE",
"263 309 CURVE SMOOTH",
"263 305 OFFCURVE",
"263.333 302.667 OFFCURVE",
"264 302 CURVE SMOOTH",
"274.667 291.333 OFFCURVE",
"300 281 OFFCURVE",
"328 281 CURVE SMOOTH",
"465.074 281 OFFCURVE",
"558 393.926 OFFCURVE",
"558 510 CURVE SMOOTH",
"558 559.333 OFFCURVE",
"539.167 598.667 OFFCURVE",
"514.5 620 CURVE SMOOTH",
"502.167 630.667 OFFCURVE",
"487.5 639.333 OFFCURVE",
"470.5 646 CURVE SMOOTH",
"453.5 652.667 OFFCURVE",
"422.333 658 OFFCURVE",
"377 662 CURVE"
);
}
);
width = 546;
}
);
note = P;
unicode = 0050;
},
{
glyphname = Thorn;
lastChange = "2018-12-17 21:49:21 +0000";
layers = (
{
background = {
paths = (
{
closed = 1;
nodes = (
"324 141 OFFCURVE",
"409 168 OFFCURVE",
"481 220 OFFCURVE",
"525 308 OFFCURVE",
"525 363 QCURVE SMOOTH",
"525 430 OFFCURVE",
"429 520 OFFCURVE",
"354 520 QCURVE SMOOTH",
"336 520 OFFCURVE",
"304 517 OFFCURVE",
"286 514 OFFCURVE",
"285 514 QCURVE SMOOTH",
"283 514 OFFCURVE",
"283 519 QCURVE SMOOTH",
"283 525 OFFCURVE",
"298 586 OFFCURVE",
"306 604 QCURVE SMOOTH",
"309 611 OFFCURVE",
"358 628 OFFCURVE",
"366 628 QCURVE SMOOTH",
"373 628 OFFCURVE",
"373 662 QCURVE",
"259 656 OFFCURVE",
"247 656 QCURVE SMOOTH",
"245 656 OFFCURVE",
"119 662 QCURVE",
"116 653 LINE SMOOTH",
"113 644 OFFCURVE",
"111 629 OFFCURVE",
"114 628 QCURVE",
"124 628 OFFCURVE",
"159 611 OFFCURVE",
"162 603 QCURVE",
"163 601 OFFCURVE",
"163 594 QCURVE SMOOTH",
"163 592 OFFCURVE",
"154 525 QCURVE",
"78 135 LINE SMOOTH",
"69 83 OFFCURVE",
"56 55 QCURVE SMOOTH",
"44 30 OFFCURVE",
"-5 30 QCURVE SMOOTH",
"-11 30 OFFCURVE",
"-11 6 QCURVE SMOOTH",
"-11 -3 OFFCURVE",
"-10 -4 QCURVE",
"4 -3 OFFCURVE",
"96 4 OFFCURVE",
"121 4 QCURVE SMOOTH",
"145 4 OFFCURVE",
"234 -4 OFFCURVE",
"243 -4 QCURVE",
"245 0 OFFCURVE",
"250 28 OFFCURVE",
"247 30 QCURVE",
"240 30 OFFCURVE",
"201 48 OFFCURVE",
"200 55 QCURVE",
"200 62 LINE SMOOTH",
"200 93 OFFCURVE",
"209 138 QCURVE",
"209 139 OFFCURVE",
"211 143 QCURVE",
"211 145 OFFCURVE",
"214 145 QCURVE SMOOTH",
"219 145 OFFCURVE",
"262 141 OFFCURVE",
"280 141 QCURVE SMOOTH"
);
},
{
closed = 1;
nodes = (
"225 192 OFFCURVE",
"225 217 QCURVE SMOOTH",
"225 220 OFFCURVE",
"226 227 OFFCURVE",
"226 228 QCURVE",
"265 430 LINE SMOOTH",
"273 469 OFFCURVE",
"332 469 QCURVE SMOOTH",
"383 469 OFFCURVE",
"383 371 QCURVE SMOOTH",
"383 306 OFFCURVE",
"324 192 OFFCURVE",
"283 192 QCURVE SMOOTH"
);
}
);
};
layerId = "EE330C8E-4A1C-402A-831D-620872201BE1";
paths = (
{
closed = 1;
nodes = (
"407.465 141 OFFCURVE",
"525 220.197 OFFCURVE",
"525 363 CURVE SMOOTH",
"525 452.333 OFFCURVE",
"454 520 OFFCURVE",
"354 520 CURVE SMOOTH",
"330.988 520 OFFCURVE",
"288.253 514 OFFCURVE",
"285 514 CURVE SMOOTH",
"283.667 514 OFFCURVE",
"283 515.667 OFFCURVE",
"283 519 CURVE SMOOTH",
"283 527 OFFCURVE",
"295.333 580 OFFCURVE",
"306 604 CURVE SMOOTH",
"310 613.333 OFFCURVE",
"355.333 628 OFFCURVE",
"366 628 CURVE SMOOTH",
"370.667 628 OFFCURVE",
"373 639.333 OFFCURVE",
"373 662 CURVE",
"297 658 OFFCURVE",
"255 656 OFFCURVE",
"247 656 CURVE SMOOTH",
"245.667 656 OFFCURVE",
"203 658 OFFCURVE",
"119 662 CURVE",
"116 653 LINE SMOOTH",
"114 647 OFFCURVE",
"112.667 641.5 OFFCURVE",
"112 636.5 CURVE SMOOTH",
"111.333 631.5 OFFCURVE",
"112 628.667 OFFCURVE",
"114 628 CURVE",
"127.333 628 OFFCURVE",
"158 613.667 OFFCURVE",
"162 603 CURVE",
"162.667 601.667 OFFCURVE",
"163 598.667 OFFCURVE",
"163 594 CURVE SMOOTH",
"163 592.667 OFFCURVE",
"160 569.667 OFFCURVE",
"154 525 CURVE",
"78 135 LINE SMOOTH",
"72 100.333 OFFCURVE",
"64.667 73.667 OFFCURVE",
"56 55 CURVE SMOOTH",
"48 38.333 OFFCURVE",
"27.667 30 OFFCURVE",
"-5 30 CURVE SMOOTH",
"-9 30 OFFCURVE",
"-11 22 OFFCURVE",
"-11 6 CURVE SMOOTH",
"-11 0 OFFCURVE",
"-10.667 -3.333 OFFCURVE",
"-10 -4 CURVE",
"-0.667 -3.333 OFFCURVE",
"19.333 -1.833 OFFCURVE",
"50 0.5 CURVE SMOOTH",
"80.667 2.833 OFFCURVE",
"104.333 4 OFFCURVE",
"121 4 CURVE SMOOTH",
"137 4 OFFCURVE",
"159.833 2.667 OFFCURVE",
"189.5 0 CURVE SMOOTH",
"219.167 -2.667 OFFCURVE",
"237 -4 OFFCURVE",
"243 -4 CURVE",
"245.667 1.333 OFFCURVE",
"251 27.333 OFFCURVE",
"247 30 CURVE",
"237.667 30 OFFCURVE",
"201.333 45.667 OFFCURVE",
"200 55 CURVE",
"200 62 LINE SMOOTH",
"200 82.667 OFFCURVE",
"203 108 OFFCURVE",
"209 138 CURVE",
"209 138.667 OFFCURVE",
"209.667 140.333 OFFCURVE",
"211 143 CURVE",
"211 144.333 OFFCURVE",
"212 145 OFFCURVE",
"214 145 CURVE SMOOTH",
"217.333 145 OFFCURVE",
"226.167 144.333 OFFCURVE",
"240.5 143 CURVE SMOOTH",
"254.833 141.667 OFFCURVE",
"268 141 OFFCURVE",
"280 141 CURVE SMOOTH"
);
},
{
closed = 1;
nodes = (
"244.333 192 OFFCURVE",
"225 200.333 OFFCURVE",
"225 217 CURVE SMOOTH",
"225 219 OFFCURVE",
"225.167 221.167 OFFCURVE",
"225.5 223.5 CURVE SMOOTH",
"225.833 225.833 OFFCURVE",
"226 227.333 OFFCURVE",
"226 228 CURVE",
"265 430 LINE SMOOTH",
"270.333 456 OFFCURVE",
"292.667 469 OFFCURVE",
"332 469 CURVE SMOOTH",
"366 469 OFFCURVE",
"383 436.333 OFFCURVE",
"383 371 CURVE SMOOTH",
"383 284.333 OFFCURVE",
"337.667 192 OFFCURVE",
"283 192 CURVE SMOOTH"
);
}
);
width = 537;
}
);
note = Thorn;
unicode = 00DE;
},
{
glyphname = Q;
lastChange = "2018-12-17 21:49:21 +0000";
layers = (
{
background = {
paths = (
{
closed = 1;
nodes = (
"481 611 OFFCURVE",
"481 435 QCURVE SMOOTH",
"481 395 OFFCURVE",
"467 298 OFFCURVE",
"436 190 OFFCURVE",
"391 103 OFFCURVE",
"320 46 OFFCURVE",
"278 46 QCURVE SMOOTH",
"245 46 OFFCURVE",
"196 77 OFFCURVE",
"169 133 OFFCURVE",
"157 199 OFFCURVE",
"157 238 QCURVE SMOOTH",
"157 397 OFFCURVE",
"278 611 OFFCURVE",
"359 611 QCURVE SMOOTH"
);
},
{
closed = 1;
nodes = (
"314 667 OFFCURVE",
"178 598 OFFCURVE",
"76 486 OFFCURVE",
"12 334 OFFCURVE",
"12 256 QCURVE SMOOTH",
"12 152 OFFCURVE",
"124 6 OFFCURVE",
"215 -7 QCURVE",
"120 -13 OFFCURVE",
"54 -27 QCURVE",
"49 -29 OFFCURVE",
"32 -52 OFFCURVE",
"32 -56 QCURVE",
"118 -77 OFFCURVE",
"327 -154 OFFCURVE",
"478 -200 OFFCURVE",
"544 -200 QCURVE SMOOTH",
"608 -200 OFFCURVE",
"741 -113 OFFCURVE",
"762 -85 QCURVE",
"762 -78 OFFCURVE",
"743 -66 OFFCURVE",
"737 -65 QCURVE",
"717 -82 OFFCURVE",
"643 -114 OFFCURVE",
"606 -114 QCURVE SMOOTH",
"538 -114 OFFCURVE",
"288 -31 OFFCURVE",
"262 -27 QCURVE",
"290 -21 OFFCURVE",
"392 24 OFFCURVE",
"422 43 QCURVE SMOOTH",
"510 98 OFFCURVE",
"624 293 OFFCURVE",
"624 400 QCURVE SMOOTH",
"624 516 OFFCURVE",
"489 667 OFFCURVE",
"383 667 QCURVE SMOOTH"
);
}
);
};
layerId = "EE330C8E-4A1C-402A-831D-620872201BE1";
paths = (
{
closed = 1;
nodes = (
"440.333 611 OFFCURVE",
"481 552.333 OFFCURVE",
"481 435 CURVE SMOOTH",
"481 381.667 OFFCURVE",
"472.167 316 OFFCURVE",
"451.5 244 CURVE SMOOTH",
"430.833 172 OFFCURVE",
"428.667 122 OFFCURVE",
"278 46 CURVE",
"187.798 46 OFFCURVE",
"157 134.053 OFFCURVE",
"157 238 CURVE SMOOTH",
"157 450 OFFCURVE",
"251 611 OFFCURVE",
"359 611 CURVE SMOOTH"
);
},
{
closed = 1;
nodes = (
"291 667 OFFCURVE",
"195 616.667 OFFCURVE",
"127 542 CURVE SMOOTH",
"59 467.333 OFFCURVE",
"12 360 OFFCURVE",
"12 256 CURVE SMOOTH",
"12 117.333 OFFCURVE",
"93.667 10.333 OFFCURVE",
"215 -7 CURVE",
"151.667 -11 OFFCURVE",
"98 -17.667 OFFCURVE",
"54 -27 CURVE",
"47.333 -29.667 OFFCURVE",
"32 -50.667 OFFCURVE",
"32 -56 CURVE",
"141.953 -82.849 OFFCURVE",
"303.566 -146.861 OFFCURVE",
"402.5 -177 CURVE SMOOTH",
"452.833 -192.333 OFFCURVE",
"500 -200 OFFCURVE",
"544 -200 CURVE SMOOTH",
"629.333 -200 OFFCURVE",
"734 -122.333 OFFCURVE",
"762 -85 CURVE",
"762 -75.667 OFFCURVE",
"745 -66.333 OFFCURVE",
"737 -65 CURVE",
"710.333 -87.667 OFFCURVE",
"655.333 -114 OFFCURVE",
"606 -114 CURVE SMOOTH",
"560.667 -114 OFFCURVE",
"496.333 -100.167 OFFCURVE",
"413 -72.5 CURVE SMOOTH",
"329.667 -44.833 OFFCURVE",
"279.333 -29.667 OFFCURVE",
"262 -27 CURVE",
"299.333 -19 OFFCURVE",
"382 17.667 OFFCURVE",
"422 43 CURVE SMOOTH",
"539.333 116.333 OFFCURVE",
"624 257.333 OFFCURVE",
"624 400 CURVE SMOOTH",
"624 554.667 OFFCURVE",
"524.333 667 OFFCURVE",
"383 667 CURVE SMOOTH"
);
}
);
width = 624;
}
);
note = Q;
unicode = 0051;
},
{
glyphname = R;
lastChange = "2018-12-17 21:49:21 +0000";
layers = (
{
background = {
paths = (
{
closed = 1;
nodes = (
"349 662 OFFCURVE",
"273 657 OFFCURVE",
"246 657 QCURVE SMOOTH",
"224 657 OFFCURVE",
"119 662 QCURVE",
"117 660 OFFCURVE",
"111 640 OFFCURVE",
"111 633 QCURVE SMOOTH",
"111 628 OFFCURVE",
"113 628 QCURVE SMOOTH",
"125 628 OFFCURVE",
"162 609 OFFCURVE",
"162 594 QCURVE SMOOTH",
"162 574 OFFCURVE",
"153 523 QCURVE SMOOTH",
"77 135 LINE",
"68 78 OFFCURVE",
"52 52 QCURVE",
"47 43 OFFCURVE",
"4 30 OFFCURVE",
"-7 30 QCURVE SMOOTH",
"-9 30 OFFCURVE",
"-13 9 OFFCURVE",
"-13 2 QCURVE SMOOTH",
"-13 -3 OFFCURVE",
"-12 -4 QCURVE",
"0 -3 OFFCURVE",
"89 3 OFFCURVE",
"114 3 QCURVE SMOOTH",
"132 3 OFFCURVE",
"177 1 OFFCURVE",
"229 -3 OFFCURVE",
"241 -4 QCURVE",
"248 6 OFFCURVE",
"248 25 QCURVE SMOOTH",
"248 30 OFFCURVE",
"246 30 QCURVE SMOOTH",
"237 30 OFFCURVE",
"198 49 OFFCURVE",
"198 59 QCURVE SMOOTH",
"198 87 OFFCURVE",
"208 139 QCURVE SMOOTH",
"235 277 LINE",
"236 285 OFFCURVE",
"243 292 OFFCURVE",
"246 293 OFFCURVE",
"251 293 QCURVE SMOOTH",
"270 293 OFFCURVE",
"283 279 QCURVE SMOOTH",
"298 263 OFFCURVE",
"346 160 QCURVE",
"348 155 OFFCURVE",
"365 119 OFFCURVE",
"371 107 OFFCURVE",
"389 74 OFFCURVE",
"400 62 OFFCURVE",
"422 35 OFFCURVE",
"441 24 OFFCURVE",
"472 7 OFFCURVE",
"503 0 OFFCURVE",
"545 -6 OFFCURVE",
"568 -6 QCURVE SMOOTH",
"590 -6 OFFCURVE",
"604 -4 QCURVE",
"614 11 OFFCURVE",
"614 29 QCURVE",
"568 29 OFFCURVE",
"520 90 QCURVE SMOOTH",
"458 168 OFFCURVE",
"411 307 QCURVE SMOOTH",
"408 315 OFFCURVE",
"413 317 QCURVE",
"475 338 OFFCURVE",
"563 461 OFFCURVE",
"563 523 QCURVE SMOOTH",
"563 560 OFFCURVE",
"525 617 OFFCURVE",
"466 647 OFFCURVE",
"406 662 OFFCURVE",
"377 662 QCURVE SMOOTH"
);
},
{
closed = 1;
nodes = (
"385 607 OFFCURVE",
"419 566 OFFCURVE",
"419 525 QCURVE SMOOTH",
"419 484 OFFCURVE",
"398 406 OFFCURVE",
"349 348 OFFCURVE",
"316 348 QCURVE SMOOTH",
"281 348 OFFCURVE",
"253 355 OFFCURVE",
"253 368 QCURVE SMOOTH",
"253 372 OFFCURVE",
"254 375 QCURVE",
"294 582 LINE SMOOTH",
"297 598 OFFCURVE",
"319 607 OFFCURVE",
"356 607 QCURVE SMOOTH"
);
}
);
};
layerId = "EE330C8E-4A1C-402A-831D-620872201BE1";
paths = (
{
closed = 1;
nodes = (
"358.333 662 OFFCURVE",
"336.333 661.167 OFFCURVE",
"311 659.5 CURVE SMOOTH",
"285.667 657.833 OFFCURVE",
"264 657 OFFCURVE",
"246 657 CURVE SMOOTH",
"231.333 657 OFFCURVE",
"189 658.667 OFFCURVE",
"119 662 CURVE",
"116.333 659.333 OFFCURVE",
"111 642.333 OFFCURVE",
"111 633 CURVE SMOOTH",
"111 629.667 OFFCURVE",
"111.667 628 OFFCURVE",
"113 628 CURVE SMOOTH",
"129 628 OFFCURVE",
"162 614 OFFCURVE",
"162 594 CURVE SMOOTH",
"162 580.667 OFFCURVE",
"159 557 OFFCURVE",
"153 523 CURVE SMOOTH",
"77 135 LINE",
"71 97 OFFCURVE",
"62.667 69.333 OFFCURVE",
"52 52 CURVE",
"45.333 40 OFFCURVE",
"7.667 30 OFFCURVE",
"-7 30 CURVE SMOOTH",
"-9.667 30 OFFCURVE",
"-13 11.333 OFFCURVE",
"-13 2 CURVE SMOOTH",
"-13 -1.333 OFFCURVE",
"-12.667 -3.333 OFFCURVE",
"-12 -4 CURVE",
"4 -2.667 OFFCURVE",
"80.667 3 OFFCURVE",
"114 3 CURVE SMOOTH",
"139.237 3 OFFCURVE",
"213.324 -1.694 OFFCURVE",
"241 -4 CURVE",
"245.667 2.667 OFFCURVE",
"248 12.333 OFFCURVE",
"248 25 CURVE SMOOTH",
"248 28.333 OFFCURVE",
"247.333 30 OFFCURVE",
"246 30 CURVE SMOOTH",
"234 30 OFFCURVE",
"198 45.667 OFFCURVE",
"198 59 CURVE SMOOTH",
"198 77.667 OFFCURVE",
"201.333 104.333 OFFCURVE",
"208 139 CURVE SMOOTH",
"235 277 LINE",
"236.536 289.291 OFFCURVE",
"242.494 293 OFFCURVE",
"251 293 CURVE SMOOTH",
"263.667 293 OFFCURVE",
"274.333 288.333 OFFCURVE",
"283 279 CURVE SMOOTH",
"293 268.333 OFFCURVE",
"314 228.667 OFFCURVE",
"346 160 CURVE",
"351.772 145.571 OFFCURVE",
"369.441 109.858 OFFCURVE",
"380 90.5 CURVE SMOOTH",
"393.095 66.493 OFFCURVE",
"418.04 37.218 OFFCURVE",
"447 21 CURVE",
"442.543 23.229 OFFCURVE",
"532.333 -2.708 OFFCURVE",
"568 -6 CURVE",
"582.667 -6 OFFCURVE",
"594.667 -5.333 OFFCURVE",
"604 -4 CURVE",
"610.667 6 OFFCURVE",
"614 17 OFFCURVE",
"614 29 CURVE",
"583.333 29 OFFCURVE",
"552 49.333 OFFCURVE",
"520 90 CURVE SMOOTH",
"478.667 142 OFFCURVE",
"442.333 214.333 OFFCURVE",
"411 307 CURVE SMOOTH",
"409 312.333 OFFCURVE",
"409.667 315.667 OFFCURVE",
"413 317 CURVE",
"495.667 345 OFFCURVE",
"563 440.333 OFFCURVE",
"563 523 CURVE SMOOTH",
"563 619.149 OFFCURVE",
"460.819 662 OFFCURVE",
"377 662 CURVE SMOOTH"
);
},
{
closed = 1;
nodes = (
"394.667 607 OFFCURVE",
"419 579.667 OFFCURVE",
"419 525 CURVE SMOOTH",
"419 468.522 OFFCURVE",
"373.304 348 OFFCURVE",
"316 348 CURVE SMOOTH",
"292.667 348 OFFCURVE",
"276.333 349.167 OFFCURVE",
"267 351.5 CURVE SMOOTH",
"257.667 353.833 OFFCURVE",
"253 359.333 OFFCURVE",
"253 368 CURVE SMOOTH",
"253 370.667 OFFCURVE",
"253.333 373 OFFCURVE",
"254 375 CURVE",
"294 582 LINE SMOOTH",
"296 592.667 OFFCURVE",
"300.667 599.5 OFFCURVE",
"308 602.5 CURVE SMOOTH",
"315.333 605.5 OFFCURVE",
"331.333 607 OFFCURVE",
"356 607 CURVE SMOOTH"
);
}
);
width = 632;
}
);
note = R;
unicode = 0052;
},
{
glyphname = S;
lastChange = "2018-12-17 21:49:21 +0000";
layers = (
{
background = {
paths = (
{
closed = 1;
nodes = (
"268 670 OFFCURVE",
"186 638 OFFCURVE",
"114 583 OFFCURVE",
"68 498 OFFCURVE",
"68 450 QCURVE SMOOTH",
"68 437 OFFCURVE",
"71 415 OFFCURVE",
"80 393 OFFCURVE",
"86 377 OFFCURVE",
"103 357 OFFCURVE",
"110 347 OFFCURVE",
"133 326 OFFCURVE",
"140 320 OFFCURVE",
"167 297 OFFCURVE",
"170 295 QCURVE",
"175 291 OFFCURVE",
"226 250 OFFCURVE",
"249 228 OFFCURVE",
"274 188 OFFCURVE",
"274 169 QCURVE SMOOTH",
"274 162 OFFCURVE",
"270 138 OFFCURVE",
"255 101 OFFCURVE",
"232 70 OFFCURVE",
"188 47 OFFCURVE",
"160 47 QCURVE SMOOTH",
"114 47 OFFCURVE",
"54 136 OFFCURVE",
"54 182 QCURVE",
"52 185 OFFCURVE",
"34 190 OFFCURVE",
"30 190 QCURVE SMOOTH",
"6 190 OFFCURVE",
"6 182 QCURVE",
"6 182 OFFCURVE",
"7 120 OFFCURVE",
"7 104 QCURVE SMOOTH",
"7 59 OFFCURVE",
"2 16 QCURVE",
"101 -10 OFFCURVE",
"167 -10 QCURVE SMOOTH",
"207 -10 OFFCURVE",
"290 20 OFFCURVE",
"364 76 OFFCURVE",
"411 171 OFFCURVE",
"411 228 QCURVE SMOOTH",
"411 253 OFFCURVE",
"401 293 OFFCURVE",
"374 325 OFFCURVE",
"357 341 OFFCURVE",
"316 372 OFFCURVE",
"309 377 QCURVE SMOOTH",
"305 380 OFFCURVE",
"280 400 OFFCURVE",
"271 408 OFFCURVE",
"249 426 OFFCURVE",
"239 437 OFFCURVE",
"222 454 OFFCURVE",
"214 468 OFFCURVE",
"205 485 OFFCURVE",
"201 502 OFFCURVE",
"201 511 QCURVE SMOOTH",
"201 523 OFFCURVE",
"210 554 OFFCURVE",
"230 590 OFFCURVE",
"269 614 OFFCURVE",
"295 614 QCURVE SMOOTH",
"320 614 OFFCURVE",
"360 584 OFFCURVE",
"381 540 OFFCURVE",
"391 498 OFFCURVE",
"391 482 QCURVE SMOOTH",
"391 474 OFFCURVE",
"398 467 OFFCURVE",
"406 465 OFFCURVE",
"413 465 QCURVE SMOOTH",
"427 465 LINE SMOOTH",
"431 465 OFFCURVE",
"456 642 QCURVE",
"435 646 OFFCURVE",
"376 661 OFFCURVE",
"330 670 OFFCURVE",
"305 670 QCURVE SMOOTH"
);
}
);
};
layerId = "EE330C8E-4A1C-402A-831D-620872201BE1";
paths = (
{
closed = 1;
nodes = (
"195.897 670 OFFCURVE",
"68 574.42 OFFCURVE",
"68 450 CURVE SMOOTH",
"68 426.935 OFFCURVE",
"75.077 389.85 OFFCURVE",
"94.5 367 CURVE SMOOTH",
"130.073 325.149 OFFCURVE",
"134.968 324.194 OFFCURVE",
"170 295 CURVE SMOOTH",
"213.348 260.322 OFFCURVE",
"274 218.854 OFFCURVE",
"274 169 CURVE SMOOTH",
"274 159.667 OFFCURVE",
"272.5 144.167 OFFCURVE",
"262.5 119.5 CURVE SMOOTH",
"257.5 107.167 OFFCURVE",
"251.167 95.833 OFFCURVE",
"243.5 85.5 CURVE SMOOTH",
"235.833 75.167 OFFCURVE",
"208 62.333 OFFCURVE",
"160 47 CURVE",
"98.667 47 OFFCURVE",
"54 120.667 OFFCURVE",
"54 182 CURVE",
"51.333 186 OFFCURVE",
"35.333 190 OFFCURVE",
"30 190 CURVE SMOOTH",
"14 190 OFFCURVE",
"6 187.333 OFFCURVE",
"6 182 CURVE",
"6 182 OFFCURVE",
"7 125.333 OFFCURVE",
"7 104 CURVE SMOOTH",
"7 74 OFFCURVE",
"5.333 44.667 OFFCURVE",
"2 16 CURVE",
"68 -1.333 OFFCURVE",
"123 -10 OFFCURVE",
"167 -10 CURVE SMOOTH",
"286.901 -10 OFFCURVE",
"411 82.079 OFFCURVE",
"411 228 CURVE SMOOTH",
"411 261.333 OFFCURVE",
"405.5 287.667 OFFCURVE",
"387.5 309 CURVE SMOOTH",
"378.5 319.667 OFFCURVE",
"371.167 327.667 OFFCURVE",
"365.5 333 CURVE SMOOTH",
"359.833 338.333 OFFCURVE",
"341 353 OFFCURVE",
"309 377 CURVE SMOOTH",
"302.367 381.975 OFFCURVE",
"252.544 422.101 OFFCURVE",
"244 431.5 CURVE SMOOTH",
"219.41 458.549 OFFCURVE",
"207.853 466.457 OFFCURVE",
"201 511 CURVE",
"201 551.395 OFFCURVE",
"230.503 614 OFFCURVE",
"295 614 CURVE SMOOTH",
"359.999 614 OFFCURVE",
"391 533.755 OFFCURVE",
"391 482 CURVE SMOOTH",
"391 467.436 OFFCURVE",
"401.28 465 OFFCURVE",
"413 465 CURVE SMOOTH",
"427 465 LINE SMOOTH",
"429.667 465 OFFCURVE",
"439.333 524 OFFCURVE",
"456 642 CURVE",
"405.48 651.623 OFFCURVE",
"350.516 670 OFFCURVE",
"305 670 CURVE SMOOTH"
);
}
);
width = 449;
}
);
note = S;
unicode = 0053;
},
{
glyphname = T;
lastChange = "2018-12-17 21:49:21 +0000";
layers = (
{
background = {
paths = (
{
closed = 1;
nodes = (
"135 78 OFFCURVE",
"120 52 QCURVE SMOOTH",
"115 43 OFFCURVE",
"72 30 OFFCURVE",
"61 30 QCURVE SMOOTH",
"59 30 OFFCURVE",
"55 9 OFFCURVE",
"55 2 QCURVE SMOOTH",
"55 -3 OFFCURVE",
"56 -4 QCURVE",
"67 -3 OFFCURVE",
"159 3 OFFCURVE",
"184 3 QCURVE SMOOTH",
"202 3 OFFCURVE",
"246 1 OFFCURVE",
"297 -3 OFFCURVE",
"309 -4 QCURVE",
"316 6 OFFCURVE",
"316 25 QCURVE SMOOTH",
"316 30 OFFCURVE",
"314 30 QCURVE SMOOTH",
"305 30 OFFCURVE",
"266 49 OFFCURVE",
"266 59 QCURVE SMOOTH",
"266 87 OFFCURVE",
"276 139 QCURVE SMOOTH",
"346 500 LINE SMOOTH",
"357 558 OFFCURVE",
"371 589 QCURVE",
"373 594 OFFCURVE",
"381 601 OFFCURVE",
"419 607 OFFCURVE",
"453 607 QCURVE SMOOTH",
"490 607 OFFCURVE",
"532 561 OFFCURVE",
"534 508 QCURVE",
"534 503 OFFCURVE",
"542 503 QCURVE SMOOTH",
"548 503 OFFCURVE",
"568 508 OFFCURVE",
"570 510 QCURVE",
"585 674 LINE",
"541 663 OFFCURVE",
"518 663 QCURVE SMOOTH",
"479 663 OFFCURVE",
"351 657 OFFCURVE",
"273 657 OFFCURVE",
"149 663 OFFCURVE",
"110 663 QCURVE SMOOTH",
"86 663 OFFCURVE",
"48 674 QCURVE",
"-1 511 LINE",
"0 509 OFFCURVE",
"18 504 OFFCURVE",
"24 504 QCURVE SMOOTH",
"31 504 OFFCURVE",
"34 509 QCURVE",
"57 562 OFFCURVE",
"115 607 OFFCURVE",
"153 607 QCURVE SMOOTH",
"202 607 OFFCURVE",
"228 597 OFFCURVE",
"228 577 QCURVE SMOOTH",
"228 564 OFFCURVE",
"215 497 QCURVE SMOOTH",
"145 135 LINE SMOOTH"
);
}
);
};
layerId = "EE330C8E-4A1C-402A-831D-620872201BE1";
paths = (
{
closed = 1;
nodes = (
"138.333 97 OFFCURVE",
"130 69.333 OFFCURVE",
"120 52 CURVE SMOOTH",
"113.333 40 OFFCURVE",
"75.667 30 OFFCURVE",
"61 30 CURVE SMOOTH",
"58.333 30 OFFCURVE",
"55 11.333 OFFCURVE",
"55 2 CURVE SMOOTH",
"55 -1.333 OFFCURVE",
"55.333 -3.333 OFFCURVE",
"56 -4 CURVE",
"70.667 -2.667 OFFCURVE",
"150.667 3 OFFCURVE",
"184 3 CURVE SMOOTH",
"209.042 3 OFFCURVE",
"281.6 -1.717 OFFCURVE",
"309 -4 CURVE",
"313.667 2.667 OFFCURVE",
"316 12.333 OFFCURVE",
"316 25 CURVE SMOOTH",
"316 28.333 OFFCURVE",
"315.333 30 OFFCURVE",
"314 30 CURVE SMOOTH",
"302 30 OFFCURVE",
"266 45.667 OFFCURVE",
"266 59 CURVE SMOOTH",
"266 77.667 OFFCURVE",
"269.333 104.333 OFFCURVE",
"276 139 CURVE SMOOTH",
"346 500 LINE SMOOTH",
"353.333 538.667 OFFCURVE",
"361.667 568.333 OFFCURVE",
"371 589 CURVE",
"377.765 605.913 OFFCURVE",
"411.431 607 OFFCURVE",
"453 607 CURVE SMOOTH",
"502.333 607 OFFCURVE",
"531.333 578.667 OFFCURVE",
"534 508 CURVE",
"534 504.667 OFFCURVE",
"536.667 503 OFFCURVE",
"542 503 CURVE SMOOTH",
"550 503 OFFCURVE",
"567.333 507.333 OFFCURVE",
"570 510 CURVE",
"585 674 LINE",
"555.667 666.667 OFFCURVE",
"533.333 663 OFFCURVE",
"518 663 CURVE SMOOTH",
"459.271 663 OFFCURVE",
"370.729 657 OFFCURVE",
"312 657 CURVE SMOOTH",
"253.974 657 OFFCURVE",
"168.026 663 OFFCURVE",
"110 663 CURVE SMOOTH",
"94 663 OFFCURVE",
"73.333 666.667 OFFCURVE",
"48 674 CURVE",
"-1 511 LINE",
"0.333 508.333 OFFCURVE",
"16 504 OFFCURVE",
"24 504 CURVE SMOOTH",
"28.667 504 OFFCURVE",
"32 505.667 OFFCURVE",
"34 509 CURVE",
"64.667 579.667 OFFCURVE",
"102.333 607 OFFCURVE",
"153 607 CURVE SMOOTH",
"185.667 607 OFFCURVE",
"206.333 605.333 OFFCURVE",
"215 602 CURVE SMOOTH",
"223.667 598.667 OFFCURVE",
"228 590.333 OFFCURVE",
"228 577 CURVE SMOOTH",
"228 568.333 OFFCURVE",
"223.667 541.667 OFFCURVE",
"215 497 CURVE SMOOTH",
"145 135 LINE SMOOTH"
);
}
);
width = 573;
}
);
note = T;
unicode = 0054;
},
{
glyphname = Tbar;
lastChange = "2018-12-17 21:49:21 +0000";
layers = (
{
background = {
paths = (
{
closed = 1;
nodes = (
"194 663 OFFCURVE",
"156 674 QCURVE",
"107 511 LINE",
"112 504 OFFCURVE",
"132 504 QCURVE SMOOTH",
"140 504 OFFCURVE",
"142 509 QCURVE SMOOTH",
"184 607 OFFCURVE",
"261 607 QCURVE SMOOTH",
"295 607 OFFCURVE",
"329 600 OFFCURVE",
"332 595 OFFCURVE",
"334 589 QCURVE",
"339 576 OFFCURVE",
"323 497 QCURVE SMOOTH",
"298 364 LINE",
"212 364 LINE",
"210 364 LINE SMOOTH",
"209 364 OFFCURVE",
"205 362 OFFCURVE",
"204 359 QCURVE",
"200 351 OFFCURVE",
"194 332 OFFCURVE",
"192 319 OFFCURVE",
"190 307 OFFCURVE",
"190 306 QCURVE",
"193 296 LINE",
"284 296 LINE",
"253 135 LINE SMOOTH",
"245 88 OFFCURVE",
"232 58 QCURVE",
"227 50 OFFCURVE",
"175 30 OFFCURVE",
"165 30 QCURVE SMOOTH",
"161 30 OFFCURVE",
"158 12 QCURVE SMOOTH",
"156 2 OFFCURVE",
"159 -4 QCURVE",
"167 -4 OFFCURVE",
"270 3 OFFCURVE",
"295 3 QCURVE SMOOTH",
"313 3 OFFCURVE",
"358 1 OFFCURVE",
"411 -3 OFFCURVE",
"423 -4 QCURVE",
"426 1 OFFCURVE",
"429 14 QCURVE",
"432 30 OFFCURVE",
"428 30 QCURVE SMOOTH",
"421 30 OFFCURVE",
"377 51 OFFCURVE",
"376 58 QCURVE",
"375 91 OFFCURVE",
"384 139 QCURVE SMOOTH",
"414 296 LINE",
"503 296 LINE",
"504 296 LINE SMOOTH",
"506 296 OFFCURVE",
"510 299 OFFCURVE",
"511 302 QCURVE",
"518 318 OFFCURVE",
"527 357 QCURVE",
"528 364 OFFCURVE",
"521 364 QCURVE SMOOTH",
"428 364 LINE",
"454 500 LINE SMOOTH",
"465 558 OFFCURVE",
"479 589 QCURVE",
"486 607 OFFCURVE",
"561 607 QCURVE SMOOTH",
"638 607 OFFCURVE",
"642 508 QCURVE",
"642 503 OFFCURVE",
"650 503 QCURVE SMOOTH",
"671 503 OFFCURVE",
"678 510 QCURVE",
"693 674 LINE",
"649 663 OFFCURVE",
"626 663 QCURVE SMOOTH",
"587 663 OFFCURVE",
"459 657 OFFCURVE",
"381 657 OFFCURVE",
"257 663 OFFCURVE",
"218 663 QCURVE SMOOTH"
);
}
);
};
layerId = "EE330C8E-4A1C-402A-831D-620872201BE1";
paths = (
{
closed = 1;
nodes = (
"202 663 OFFCURVE",
"181.333 666.667 OFFCURVE",
"156 674 CURVE",
"107 511 LINE",
"110.333 506.333 OFFCURVE",
"118.667 504 OFFCURVE",
"132 504 CURVE SMOOTH",
"137.333 504 OFFCURVE",
"140.667 505.667 OFFCURVE",
"142 509 CURVE SMOOTH",
"170 574.333 OFFCURVE",
"209.667 607 OFFCURVE",
"261 607 CURVE SMOOTH",
"302.619 607 OFFCURVE",
"328.162 606.514 OFFCURVE",
"334 589 CURVE",
"337.333 580.333 OFFCURVE",
"333.667 549.667 OFFCURVE",
"323 497 CURVE SMOOTH",
"298 364 LINE",
"212 364 LINE",
"210 364 LINE SMOOTH",
"208.667 364 OFFCURVE",
"205.333 363 OFFCURVE",
"204 359 CURVE",
"196.275 343.551 OFFCURVE",
"190 311.953 OFFCURVE",
"190 306 CURVE",
"193 296 LINE",
"284 296 LINE",
"253 135 LINE SMOOTH",
"247.667 103.667 OFFCURVE",
"240.667 78 OFFCURVE",
"232 58 CURVE",
"225.333 47.333 OFFCURVE",
"178.333 30 OFFCURVE",
"165 30 CURVE SMOOTH",
"162.333 30 OFFCURVE",
"160 24 OFFCURVE",
"158 12 CURVE SMOOTH",
"156.667 5.333 OFFCURVE",
"157 0 OFFCURVE",
"159 -4 CURVE",
"164.333 -4 OFFCURVE",
"184.167 -2.833 OFFCURVE",
"218.5 -0.5 CURVE SMOOTH",
"252.833 1.833 OFFCURVE",
"278.333 3 OFFCURVE",
"295 3 CURVE SMOOTH",
"319.862 3 OFFCURVE",
"395.005 -1.667 OFFCURVE",
"423 -4 CURVE",
"425 -0.667 OFFCURVE",
"427 5.333 OFFCURVE",
"429 14 CURVE",
"431 24.667 OFFCURVE",
"430.667 30 OFFCURVE",
"428 30 CURVE SMOOTH",
"418.667 30 OFFCURVE",
"377.333 48.667 OFFCURVE",
"376 58 CURVE",
"375.333 80 OFFCURVE",
"378 107 OFFCURVE",
"384 139 CURVE SMOOTH",
"414 296 LINE",
"503 296 LINE",
"504 296 LINE SMOOTH",
"506.667 296 OFFCURVE",
"509.667 298 OFFCURVE",
"511 302 CURVE",
"515.667 312.667 OFFCURVE",
"521 331 OFFCURVE",
"527 357 CURVE",
"527.667 361.667 OFFCURVE",
"525.667 364 OFFCURVE",
"521 364 CURVE SMOOTH",
"428 364 LINE",
"454 500 LINE SMOOTH",
"461.333 538.667 OFFCURVE",
"469.667 568.333 OFFCURVE",
"479 589 CURVE",
"483.667 601 OFFCURVE",
"511 607 OFFCURVE",
"561 607 CURVE SMOOTH",
"612.333 607 OFFCURVE",
"639.333 574 OFFCURVE",
"642 508 CURVE",
"642 504.667 OFFCURVE",
"644.667 503 OFFCURVE",
"650 503 CURVE SMOOTH",
"664 503 OFFCURVE",
"673.333 505.333 OFFCURVE",
"678 510 CURVE",
"693 674 LINE",
"663.667 666.667 OFFCURVE",
"641.333 663 OFFCURVE",
"626 663 CURVE SMOOTH",
"567.931 663 OFFCURVE",
"478.069 657 OFFCURVE",
"420 657 CURVE SMOOTH",
"362.634 657 OFFCURVE",
"275.366 663 OFFCURVE",
"218 663 CURVE SMOOTH"
);
}
);
width = 610;
}
);
note = Tbar;
unicode = 0166;
},
{
glyphname = U;
lastChange = "2018-12-17 21:49:21 +0000";
layers = (
{
background = {
paths = (
{
closed = 1;
nodes = (
"44 311 LINE SMOOTH",
"29 224 OFFCURVE",
"41 104 OFFCURVE",
"98 29 OFFCURVE",
"179 -5 OFFCURVE",
"234 -5 QCURVE SMOOTH",
"340 -5 OFFCURVE",
"502 145 OFFCURVE",
"530 291 QCURVE SMOOTH",
"575 519 LINE SMOOTH",
"586 576 OFFCURVE",
"602 592 QCURVE",
"615 606 OFFCURVE",
"656 622 OFFCURVE",
"677 625 OFFCURVE",
"685 625 QCURVE SMOOTH",
"687 625 OFFCURVE",
"693 639 OFFCURVE",
"694 644 QCURVE SMOOTH",
"696 654 OFFCURVE",
"694 662 QCURVE",
"682 661 OFFCURVE",
"600 654 OFFCURVE",
"577 654 QCURVE SMOOTH",
"540 654 OFFCURVE",
"456 662 QCURVE",
"453 660 OFFCURVE",
"449 641 OFFCURVE",
"448 626 OFFCURVE",
"451 625 QCURVE",
"462 625 OFFCURVE",
"511 607 OFFCURVE",
"518 596 QCURVE SMOOTH",
"521 591 OFFCURVE",
"523 577 OFFCURVE",
"522 558 OFFCURVE",
"520 546 OFFCURVE",
"516 525 OFFCURVE",
"516 524 QCURVE",
"470 286 LINE SMOOTH",
"458 227 OFFCURVE",
"416 142 OFFCURVE",
"361 96 OFFCURVE",
"304 75 OFFCURVE",
"272 75 QCURVE SMOOTH",
"206 75 OFFCURVE",
"150 187 OFFCURVE",
"168 279 QCURVE SMOOTH",
"214 516 LINE SMOOTH",
"224 572 OFFCURVE",
"237 601 QCURVE SMOOTH",
"240 608 OFFCURVE",
"294 625 OFFCURVE",
"302 625 QCURVE SMOOTH",
"307 625 OFFCURVE",
"310 644 QCURVE",
"310 662 LINE",
"196 656 OFFCURVE",
"179 656 QCURVE SMOOTH",
"171 656 OFFCURVE",
"45 662 QCURVE",
"43 660 OFFCURVE",
"40 642 QCURVE SMOOTH",
"37 625 OFFCURVE",
"40 625 QCURVE SMOOTH",
"50 625 OFFCURVE",
"90 608 OFFCURVE",
"93 600 QCURVE",
"96 590 OFFCURVE",
"85 522 QCURVE SMOOTH"
);
}
);
};
layerId = "EE330C8E-4A1C-402A-831D-620872201BE1";
paths = (
{
closed = 1;
nodes = (
"44 311 LINE SMOOTH",
"24 195 OFFCURVE",
"31.5 116.5 OFFCURVE",
"69.5 66.5 CURVE SMOOTH",
"107.5 16.5 OFFCURVE",
"160.667 -5 OFFCURVE",
"234 -5 CURVE SMOOTH",
"375.333 -5 OFFCURVE",
"492.667 96.333 OFFCURVE",
"530 291 CURVE SMOOTH",
"575 519 LINE SMOOTH",
"582.333 557 OFFCURVE",
"591.333 581.333 OFFCURVE",
"602 592 CURVE",
"623.458 615.109 OFFCURVE",
"665.384 625 OFFCURVE",
"685 625 CURVE SMOOTH",
"687.667 625 OFFCURVE",
"692.667 637.333 OFFCURVE",
"694 644 CURVE SMOOTH",
"695.333 650.667 OFFCURVE",
"695.333 656.667 OFFCURVE",
"694 662 CURVE",
"686 661.333 OFFCURVE",
"668.333 659.833 OFFCURVE",
"641 657.5 CURVE SMOOTH",
"613.667 655.167 OFFCURVE",
"592.333 654 OFFCURVE",
"577 654 CURVE SMOOTH",
"552.333 654 OFFCURVE",
"512 656.667 OFFCURVE",
"456 662 CURVE",
"451.41 658.94 OFFCURVE",
"444.807 627.064 OFFCURVE",
"451 625 CURVE",
"465.667 625 OFFCURVE",
"508.667 610.667 OFFCURVE",
"518 596 CURVE SMOOTH",
"522 589.333 OFFCURVE",
"523.167 580.167 OFFCURVE",
"522.5 567.5 CURVE SMOOTH",
"522.167 561.167 OFFCURVE",
"521.667 556 OFFCURVE",
"521 552 CURVE SMOOTH",
"520.333 548 OFFCURVE",
"518.667 538.667 OFFCURVE",
"516 524 CURVE SMOOTH",
"470 286 LINE SMOOTH",
"440.997 143.404 OFFCURVE",
"369.523 75 OFFCURVE",
"272 75 CURVE SMOOTH",
"184 75 OFFCURVE",
"144 156.333 OFFCURVE",
"168 279 CURVE SMOOTH",
"214 516 LINE SMOOTH",
"220.667 553.333 OFFCURVE",
"228.333 581.667 OFFCURVE",
"237 601 CURVE SMOOTH",
"241 610.333 OFFCURVE",
"291.333 625 OFFCURVE",
"302 625 CURVE SMOOTH",
"305.333 625 OFFCURVE",
"308 631.333 OFFCURVE",
"310 644 CURVE",
"310 662 LINE",
"234 658 OFFCURVE",
"190.333 656 OFFCURVE",
"179 656 CURVE SMOOTH",
"173.667 656 OFFCURVE",
"129 658 OFFCURVE",
"45 662 CURVE",
"43.667 660.667 OFFCURVE",
"42 654 OFFCURVE",
"40 642 CURVE SMOOTH",
"38 630.667 OFFCURVE",
"38 625 OFFCURVE",
"40 625 CURVE SMOOTH",
"53.333 625 OFFCURVE",
"89 610.667 OFFCURVE",
"93 600 CURVE",
"95 593.333 OFFCURVE",
"92.333 567.333 OFFCURVE",
"85 522 CURVE SMOOTH"
);
}
);
width = 679;
}
);
note = U;
unicode = 0055;
},
{
glyphname = Uogonek;
lastChange = "2018-12-17 21:49:21 +0000";
layers = (
{
background = {
paths = (
{
closed = 1;
nodes = (
"274 -85 OFFCURVE",
"361 5 OFFCURVE",
"410 40 QCURVE SMOOTH",
"507 107 OFFCURVE",
"540 276 QCURVE SMOOTH",
"587 514 LINE SMOOTH",
"604 599 OFFCURVE",
"609 612 QCURVE",
"612 619 OFFCURVE",
"677 628 OFFCURVE",
"691 628 QCURVE SMOOTH",
"699 628 OFFCURVE",
"699 662 QCURVE",
"604 657 OFFCURVE",
"590 657 QCURVE SMOOTH",
"578 657 OFFCURVE",
"473 662 QCURVE",
"465 654 OFFCURVE",
"465 634 QCURVE SMOOTH",
"465 628 OFFCURVE",
"466 628 QCURVE SMOOTH",
"482 628 OFFCURVE",
"539 616 OFFCURVE",
"540 606 QCURVE",
"542 594 OFFCURVE",
"527 513 QCURVE SMOOTH",
"480 271 LINE SMOOTH",
"468 209 OFFCURVE",
"430 128 OFFCURVE",
"376 89 OFFCURVE",
"323 75 OFFCURVE",
"285 75 QCURVE SMOOTH",
"225 75 OFFCURVE",
"172 132 OFFCURVE",
"172 192 QCURVE SMOOTH",
"172 236 OFFCURVE",
"184 296 QCURVE SMOOTH",
"228 519 LINE SMOOTH",
"238 579 OFFCURVE",
"252 604 QCURVE SMOOTH",
"256 611 OFFCURVE",
"303 628 OFFCURVE",
"311 628 QCURVE SMOOTH",
"314 628 OFFCURVE",
"319 649 OFFCURVE",
"319 657 QCURVE SMOOTH",
"319 662 LINE",
"205 656 OFFCURVE",
"187 656 QCURVE SMOOTH",
"168 656 OFFCURVE",
"128 658 OFFCURVE",
"80 661 OFFCURVE",
"65 662 QCURVE",
"59 656 OFFCURVE",
"59 632 QCURVE SMOOTH",
"59 628 OFFCURVE",
"60 628 QCURVE SMOOTH",
"71 628 OFFCURVE",
"107 611 OFFCURVE",
"107 596 QCURVE SMOOTH",
"107 571 OFFCURVE",
"98 523 QCURVE SMOOTH",
"54 296 LINE SMOOTH",
"44 246 OFFCURVE",
"44 201 QCURVE SMOOTH",
"44 96 OFFCURVE",
"154 -5 OFFCURVE",
"247 -5 QCURVE SMOOTH",
"276 -5 OFFCURVE",
"291 -3 QCURVE",
"256 -36 OFFCURVE",
"198 -127 OFFCURVE",
"198 -157 QCURVE SMOOTH",
"198 -183 OFFCURVE",
"232 -216 OFFCURVE",
"255 -216 QCURVE SMOOTH",
"284 -216 OFFCURVE",
"352 -177 OFFCURVE",
"374 -152 QCURVE",
"377 -149 OFFCURVE",
"384 -118 OFFCURVE",
"379 -117 QCURVE",
"378 -117 OFFCURVE",
"358 -130 OFFCURVE",
"323 -144 OFFCURVE",
"302 -144 QCURVE SMOOTH",
"274 -144 OFFCURVE",
"274 -118 QCURVE SMOOTH"
);
}
);
};
layerId = "EE330C8E-4A1C-402A-831D-620872201BE1";
paths = (
{
closed = 1;
nodes = (
"274 -74 OFFCURVE",
"344.667 -6.667 OFFCURVE",
"410 40 CURVE SMOOTH",
"474.667 84.667 OFFCURVE",
"518 163.333 OFFCURVE",
"540 276 CURVE SMOOTH",
"587 514 LINE SMOOTH",
"598.333 570.667 OFFCURVE",
"605.667 603.333 OFFCURVE",
"609 612 CURVE",
"613 621.333 OFFCURVE",
"672.333 628 OFFCURVE",
"691 628 CURVE SMOOTH",
"696.333 628 OFFCURVE",
"699 639.333 OFFCURVE",
"699 662 CURVE",
"635.667 658.667 OFFCURVE",
"599.333 657 OFFCURVE",
"590 657 CURVE SMOOTH",
"582 657 OFFCURVE",
"543 658.667 OFFCURVE",
"473 662 CURVE",
"467.667 656.667 OFFCURVE",
"465 647.333 OFFCURVE",
"465 634 CURVE SMOOTH",
"465 630 OFFCURVE",
"465.333 628 OFFCURVE",
"466 628 CURVE SMOOTH",
"487.333 628 OFFCURVE",
"538.667 619.333 OFFCURVE",
"540 606 CURVE",
"541.333 598 OFFCURVE",
"537 567 OFFCURVE",
"527 513 CURVE SMOOTH",
"480 271 LINE SMOOTH",
"450.848 120.379 OFFCURVE",
"393.547 75 OFFCURVE",
"285 75 CURVE SMOOTH",
"205 75 OFFCURVE",
"172 112 OFFCURVE",
"172 192 CURVE SMOOTH",
"172 221.333 OFFCURVE",
"176 256 OFFCURVE",
"184 296 CURVE SMOOTH",
"228 519 LINE SMOOTH",
"234.667 559 OFFCURVE",
"242.667 587.333 OFFCURVE",
"252 604 CURVE SMOOTH",
"257.333 613.333 OFFCURVE",
"300.333 628 OFFCURVE",
"311 628 CURVE SMOOTH",
"315 628 OFFCURVE",
"319 646.333 OFFCURVE",
"319 657 CURVE SMOOTH",
"319 662 LINE",
"243 658 OFFCURVE",
"199 656 OFFCURVE",
"187 656 CURVE SMOOTH",
"161.689 656 OFFCURVE",
"94.792 660.014 OFFCURVE",
"65 662 CURVE",
"61 658 OFFCURVE",
"59 648 OFFCURVE",
"59 632 CURVE SMOOTH",
"59 629.333 OFFCURVE",
"59.333 628 OFFCURVE",
"60 628 CURVE SMOOTH",
"74.667 628 OFFCURVE",
"107 616 OFFCURVE",
"107 596 CURVE SMOOTH",
"107 579.333 OFFCURVE",
"104 555 OFFCURVE",
"98 523 CURVE SMOOTH",
"54 296 LINE SMOOTH",
"47.333 262.667 OFFCURVE",
"44 231 OFFCURVE",
"44 201 CURVE SMOOTH",
"44 61 OFFCURVE",
"123 -5 OFFCURVE",
"247 -5 CURVE SMOOTH",
"266.333 -5 OFFCURVE",
"281 -4.333 OFFCURVE",
"291 -3 CURVE",
"244.333 -47 OFFCURVE",
"198 -117 OFFCURVE",
"198 -157 CURVE SMOOTH",
"198 -191.667 OFFCURVE",
"224.333 -216 OFFCURVE",
"255 -216 CURVE SMOOTH",
"293.667 -216 OFFCURVE",
"344.667 -185.333 OFFCURVE",
"374 -152 CURVE",
"378 -148 OFFCURVE",
"385.667 -118.333 OFFCURVE",
"379 -117 CURVE",
"373.845 -117 OFFCURVE",
"327.861 -144 OFFCURVE",
"302 -144 CURVE SMOOTH",
"283.333 -144 OFFCURVE",
"274 -135.333 OFFCURVE",
"274 -118 CURVE SMOOTH"
);
}
);
width = 695;
}
);
note = Uogonek;
unicode = 0172;
},
{
glyphname = V;
lastChange = "2018-12-17 21:49:21 +0000";
layers = (
{
background = {
paths = (
{
closed = 1;
nodes = (
"129 656 OFFCURVE",
"18 662 QCURVE",
"10 650 OFFCURVE",
"10 634 QCURVE SMOOTH",
"10 625 OFFCURVE",
"13 625 QCURVE SMOOTH",
"26 625 OFFCURVE",
"71 609 OFFCURVE",
"74 592 QCURVE",
"75 580 OFFCURVE",
"87 522 OFFCURVE",
"89 510 QCURVE SMOOTH",
"181 3 LINE",
"186 -10 OFFCURVE",
"200 -10 QCURVE SMOOTH",
"209 -10 OFFCURVE",
"236 10 OFFCURVE",
"247 27 QCURVE SMOOTH",
"572 568 LINE SMOOTH",
"583 587 OFFCURVE",
"614 613 OFFCURVE",
"644 623 OFFCURVE",
"662 626 OFFCURVE",
"669 626 QCURVE SMOOTH",
"671 626 OFFCURVE",
"675 647 QCURVE",
"676 657 OFFCURVE",
"674 662 QCURVE",
"566 657 OFFCURVE",
"564 657 QCURVE SMOOTH",
"550 657 OFFCURVE",
"458 662 QCURVE",
"452 650 OFFCURVE",
"452 632 QCURVE SMOOTH",
"452 625 OFFCURVE",
"454 625 QCURVE SMOOTH",
"482 625 OFFCURVE",
"516 605 OFFCURVE",
"513 590 QCURVE SMOOTH",
"508 568 OFFCURVE",
"481 522 QCURVE SMOOTH",
"286 193 LINE",
"225 523 LINE SMOOTH",
"214 579 OFFCURVE",
"217 589 QCURVE",
"220 607 OFFCURVE",
"269 625 OFFCURVE",
"285 625 QCURVE SMOOTH",
"288 625 OFFCURVE",
"293 647 OFFCURVE",
"293 656 QCURVE SMOOTH",
"293 660 OFFCURVE",
"292 662 QCURVE",
"190 656 OFFCURVE",
"150 656 QCURVE SMOOTH"
);
}
);
};
layerId = "EE330C8E-4A1C-402A-831D-620872201BE1";
paths = (
{
closed = 1;
nodes = (
"136 656 OFFCURVE",
"92 658 OFFCURVE",
"18 662 CURVE",
"12.667 654 OFFCURVE",
"10 644.667 OFFCURVE",
"10 634 CURVE SMOOTH",
"10 628 OFFCURVE",
"11 625 OFFCURVE",
"13 625 CURVE SMOOTH",
"30.333 625 OFFCURVE",
"70 614.667 OFFCURVE",
"74 592 CURVE",
"74.667 584 OFFCURVE",
"77 570.333 OFFCURVE",
"81 551 CURVE SMOOTH",
"85 531.667 OFFCURVE",
"87.667 518 OFFCURVE",
"89 510 CURVE SMOOTH",
"181 3 LINE",
"184.333 -5.667 OFFCURVE",
"190.667 -10 OFFCURVE",
"200 -10 CURVE SMOOTH",
"212 -10 OFFCURVE",
"232.333 4.333 OFFCURVE",
"247 27 CURVE SMOOTH",
"572 568 LINE SMOOTH",
"599.654 615.767 OFFCURVE",
"646.324 626 OFFCURVE",
"669 626 CURVE SMOOTH",
"670.333 626 OFFCURVE",
"672.333 633 OFFCURVE",
"675 647 CURVE",
"675.667 653.667 OFFCURVE",
"675.333 658.667 OFFCURVE",
"674 662 CURVE",
"602 658.667 OFFCURVE",
"565.333 657 OFFCURVE",
"564 657 CURVE SMOOTH",
"554.667 657 OFFCURVE",
"519.333 658.667 OFFCURVE",
"458 662 CURVE",
"454 654 OFFCURVE",
"452 644 OFFCURVE",
"452 632 CURVE SMOOTH",
"452 627.333 OFFCURVE",
"452.667 625 OFFCURVE",
"454 625 CURVE SMOOTH",
"491.333 625 OFFCURVE",
"517 610 OFFCURVE",
"513 590 CURVE SMOOTH",
"509.667 575.333 OFFCURVE",
"499 552.667 OFFCURVE",
"481 522 CURVE SMOOTH",
"286 193 LINE",
"225 523 LINE SMOOTH",
"217.667 560.333 OFFCURVE",
"215 582.333 OFFCURVE",
"217 589 CURVE",
"221 613 OFFCURVE",
"263.667 625 OFFCURVE",
"285 625 CURVE SMOOTH",
"289 625 OFFCURVE",
"293 644 OFFCURVE",
"293 656 CURVE SMOOTH",
"293 658.667 OFFCURVE",
"292.667 660.667 OFFCURVE",
"292 662 CURVE",
"224 658 OFFCURVE",
"176.667 656 OFFCURVE",
"150 656 CURVE SMOOTH"
);
}
);
width = 548;
}
);
note = V;
unicode = 0056;
},
{
glyphname = W;
lastChange = "2018-12-17 21:49:21 +0000";
layers = (
{
background = {
paths = (
{
closed = 1;
nodes = (
"144 656 OFFCURVE",
"18 662 QCURVE",
"16 660 OFFCURVE",
"13 644 QCURVE SMOOTH",
"10 625 OFFCURVE",
"13 625 QCURVE SMOOTH",
"25 625 OFFCURVE",
"60 614 OFFCURVE",
"65 604 QCURVE SMOOTH",
"78 580 OFFCURVE",
"93 527 QCURVE SMOOTH",
"241 -8 LINE",
"243 -13 OFFCURVE",
"248 -13 QCURVE SMOOTH",
"254 -13 OFFCURVE",
"276 5 OFFCURVE",
"286 19 QCURVE SMOOTH",
"439 233 LINE",
"507 -8 LINE",
"509 -13 OFFCURVE",
"516 -13 QCURVE SMOOTH",
"522 -13 OFFCURVE",
"544 4 OFFCURVE",
"554 19 QCURVE SMOOTH",
"879 510 LINE SMOOTH",
"919 569 OFFCURVE",
"950 598 QCURVE SMOOTH",
"961 608 OFFCURVE",
"1007 626 OFFCURVE",
"1021 626 QCURVE SMOOTH",
"1028 626 OFFCURVE",
"1028 662 QCURVE",
"1016 661 OFFCURVE",
"971 658 OFFCURVE",
"932 656 OFFCURVE",
"911 656 QCURVE SMOOTH",
"888 656 OFFCURVE",
"801 662 QCURVE",
"793 656 OFFCURVE",
"793 639 QCURVE SMOOTH",
"793 626 OFFCURVE",
"795 626 QCURVE SMOOTH",
"803 626 OFFCURVE",
"829 622 OFFCURVE",
"857 606 OFFCURVE",
"855 594 QCURVE SMOOTH",
"852 579 OFFCURVE",
"829 544 QCURVE SMOOTH",
"788 482 OFFCURVE",
"597 198 OFFCURVE",
"595 197 QCURVE",
"543 372 LINE",
"635 510 LINE SMOOTH",
"672 565 OFFCURVE",
"704 596 QCURVE SMOOTH",
"715 606 OFFCURVE",
"764 626 OFFCURVE",
"778 626 QCURVE SMOOTH",
"781 626 OFFCURVE",
"786 656 OFFCURVE",
"785 662 QCURVE",
"671 656 OFFCURVE",
"667 656 QCURVE SMOOTH",
"645 656 OFFCURVE",
"558 662 QCURVE",
"550 656 OFFCURVE",
"550 637 QCURVE SMOOTH",
"550 626 OFFCURVE",
"552 626 QCURVE SMOOTH",
"558 626 OFFCURVE",
"576 624 OFFCURVE",
"600 618 OFFCURVE",
"616 604 OFFCURVE",
"614 594 QCURVE SMOOTH",
"612 584 OFFCURVE",
"585 542 QCURVE SMOOTH",
"523 447 LINE",
"491 562 LINE SMOOTH",
"485 585 OFFCURVE",
"486 593 QCURVE",
"489 610 OFFCURVE",
"520 625 OFFCURVE",
"535 625 QCURVE SMOOTH",
"538 625 OFFCURVE",
"542 647 OFFCURVE",
"542 656 QCURVE SMOOTH",
"542 661 OFFCURVE",
"542 662 QCURVE",
"428 656 OFFCURVE",
"418 656 QCURVE SMOOTH",
"416 656 OFFCURVE",
"290 662 QCURVE",
"288 660 OFFCURVE",
"285 644 QCURVE SMOOTH",
"282 625 OFFCURVE",
"285 625 QCURVE SMOOTH",
"316 625 OFFCURVE",
"334 600 QCURVE",
"341 591 OFFCURVE",
"359 527 QCURVE SMOOTH",
"419 310 LINE",
"397 280 LINE SMOOTH",
"376 251 OFFCURVE",
"330 191 OFFCURVE",
"329 192 QCURVE",
"328 192 OFFCURVE",
"225 560 QCURVE SMOOTH",
"219 583 OFFCURVE",
"220 591 QCURVE",
"226 625 OFFCURVE",
"270 625 QCURVE SMOOTH",
"273 625 OFFCURVE",
"277 648 OFFCURVE",
"277 657 QCURVE SMOOTH",
"277 661 OFFCURVE",
"277 662 QCURVE",
"163 656 OFFCURVE",
"149 656 QCURVE SMOOTH"
);
}
);
};
layerId = "EE330C8E-4A1C-402A-831D-620872201BE1";
paths = (
{
closed = 1;
nodes = (
"145.667 656 OFFCURVE",
"102 658 OFFCURVE",
"18 662 CURVE",
"16.667 660.667 OFFCURVE",
"15 654.667 OFFCURVE",
"13 644 CURVE SMOOTH",
"11 631.333 OFFCURVE",
"11 625 OFFCURVE",
"13 625 CURVE SMOOTH",
"29 625 OFFCURVE",
"58.333 617.333 OFFCURVE",
"65 604 CURVE SMOOTH",
"73.667 588 OFFCURVE",
"83 562.333 OFFCURVE",
"93 527 CURVE SMOOTH",
"241 -8 LINE",
"242.333 -11.333 OFFCURVE",
"244.667 -13 OFFCURVE",
"248 -13 CURVE SMOOTH",
"256 -13 OFFCURVE",
"272.667 0.333 OFFCURVE",
"286 19 CURVE SMOOTH",
"439 233 LINE",
"507 -8 LINE",
"508.333 -11.333 OFFCURVE",
"511.333 -13 OFFCURVE",
"516 -13 CURVE SMOOTH",
"524 -13 OFFCURVE",
"540.667 -1 OFFCURVE",
"554 19 CURVE SMOOTH",
"879 510 LINE SMOOTH",
"905.667 549.333 OFFCURVE",
"929.333 578.667 OFFCURVE",
"950 598 CURVE SMOOTH",
"964.667 611.333 OFFCURVE",
"1002.333 626 OFFCURVE",
"1021 626 CURVE SMOOTH",
"1025.667 626 OFFCURVE",
"1028 638 OFFCURVE",
"1028 662 CURVE",
"1002.362 659.864 OFFCURVE",
"937.879 656 OFFCURVE",
"911 656 CURVE SMOOTH",
"895.667 656 OFFCURVE",
"859 658 OFFCURVE",
"801 662 CURVE",
"795.667 658 OFFCURVE",
"793 650.333 OFFCURVE",
"793 639 CURVE SMOOTH",
"793 630.333 OFFCURVE",
"793.667 626 OFFCURVE",
"795 626 CURVE SMOOTH",
"812.263 626 OFFCURVE",
"858.973 617.837 OFFCURVE",
"855 594 CURVE SMOOTH",
"853 584 OFFCURVE",
"844.333 567.333 OFFCURVE",
"829 544 CURVE SMOOTH",
"774.333 461.333 OFFCURVE",
"597.667 198.333 OFFCURVE",
"595 197 CURVE",
"543 372 LINE",
"635 510 LINE SMOOTH",
"659.667 546.667 OFFCURVE",
"682.667 575.333 OFFCURVE",
"704 596 CURVE SMOOTH",
"718.667 609.333 OFFCURVE",
"759.333 626 OFFCURVE",
"778 626 CURVE SMOOTH",
"782 626 OFFCURVE",
"786.333 654 OFFCURVE",
"785 662 CURVE",
"709 658 OFFCURVE",
"669.667 656 OFFCURVE",
"667 656 CURVE SMOOTH",
"652.333 656 OFFCURVE",
"616 658 OFFCURVE",
"558 662 CURVE",
"552.667 658 OFFCURVE",
"550 649.667 OFFCURVE",
"550 637 CURVE SMOOTH",
"550 629.667 OFFCURVE",
"550.667 626 OFFCURVE",
"552 626 CURVE SMOOTH",
"569.918 626 OFFCURVE",
"619.212 620.061 OFFCURVE",
"614 594 CURVE SMOOTH",
"612.667 587.333 OFFCURVE",
"603 570 OFFCURVE",
"585 542 CURVE SMOOTH",
"523 447 LINE",
"491 562 LINE SMOOTH",
"487 577.333 OFFCURVE",
"485.333 587.667 OFFCURVE",
"486 593 CURVE",
"490 615.667 OFFCURVE",
"515 625 OFFCURVE",
"535 625 CURVE SMOOTH",
"539 625 OFFCURVE",
"542 644 OFFCURVE",
"542 656 CURVE SMOOTH",
"542 659.333 OFFCURVE",
"542 661.333 OFFCURVE",
"542 662 CURVE",
"466 658 OFFCURVE",
"424.667 656 OFFCURVE",
"418 656 CURVE SMOOTH",
"416.667 656 OFFCURVE",
"374 658 OFFCURVE",
"290 662 CURVE",
"288.667 660.667 OFFCURVE",
"287 654.667 OFFCURVE",
"285 644 CURVE SMOOTH",
"283 631.333 OFFCURVE",
"283 625 OFFCURVE",
"285 625 CURVE SMOOTH",
"305.667 625 OFFCURVE",
"322 616.667 OFFCURVE",
"334 600 CURVE",
"338.667 594 OFFCURVE",
"347 569.667 OFFCURVE",
"359 527 CURVE SMOOTH",
"419 310 LINE",
"397 280 LINE SMOOTH",
"383 260.667 OFFCURVE",
"368.333 241 OFFCURVE",
"353 221 CURVE SMOOTH",
"337.667 201 OFFCURVE",
"329.667 191.333 OFFCURVE",
"329 192 CURVE",
"328.333 192 OFFCURVE",
"293.667 314.667 OFFCURVE",
"225 560 CURVE SMOOTH",
"221 575.333 OFFCURVE",
"219.333 585.667 OFFCURVE",
"220 591 CURVE",
"224 613.667 OFFCURVE",
"240.667 625 OFFCURVE",
"270 625 CURVE SMOOTH",
"274 625 OFFCURVE",
"277 645 OFFCURVE",
"277 657 CURVE SMOOTH",
"277 659.667 OFFCURVE",
"277 661.333 OFFCURVE",
"277 662 CURVE",
"201 658 OFFCURVE",
"158.333 656 OFFCURVE",
"149 656 CURVE SMOOTH"
);
}
);
width = 1015;
}
);
note = W;
unicode = 0057;
},
{
glyphname = X;
lastChange = "2018-12-17 21:49:21 +0000";
layers = (
{
background = {
paths = (
{
closed = 1;
nodes = (
"257 656 OFFCURVE",
"159 662 OFFCURVE",
"154 662 QCURVE",
"146 655 OFFCURVE",
"146 637 QCURVE SMOOTH",
"146 625 OFFCURVE",
"147 625 QCURVE SMOOTH",
"177 625 OFFCURVE",
"193 610 QCURVE SMOOTH",
"202 602 OFFCURVE",
"229 537 QCURVE SMOOTH",
"314 332 LINE",
"83 67 LINE SMOOTH",
"70 52 OFFCURVE",
"7 33 OFFCURVE",
"-5 33 QCURVE SMOOTH",
"-9 33 OFFCURVE",
"-13 10 QCURVE",
"-13 7 OFFCURVE",
"-12 -4 OFFCURVE",
"-12 -4 QCURVE",
"102 2 OFFCURVE",
"108 2 QCURVE SMOOTH",
"139 2 OFFCURVE",
"229 -4 QCURVE",
"233 4 OFFCURVE",
"234 12 QCURVE SMOOTH",
"237 33 OFFCURVE",
"234 33 QCURVE SMOOTH",
"210 33 OFFCURVE",
"168 51 OFFCURVE",
"171 66 QCURVE SMOOTH",
"172 71 OFFCURVE",
"203 110 OFFCURVE",
"251 167 OFFCURVE",
"294 215 OFFCURVE",
"339 267 OFFCURVE",
"341 269 QCURVE",
"424 72 LINE",
"426 66 OFFCURVE",
"424 61 QCURVE",
"422 49 OFFCURVE",
"379 33 OFFCURVE",
"367 33 QCURVE SMOOTH",
"364 33 OFFCURVE",
"357 13 OFFCURVE",
"357 5 QCURVE SMOOTH",
"357 -3 OFFCURVE",
"358 -4 QCURVE",
"377 -3 OFFCURVE",
"435 0 OFFCURVE",
"483 2 OFFCURVE",
"529 2 OFFCURVE",
"640 -4 QCURVE",
"645 6 OFFCURVE",
"646 11 QCURVE",
"646 12 OFFCURVE",
"649 27 OFFCURVE",
"649 31 OFFCURVE",
"648 33 QCURVE",
"636 33 OFFCURVE",
"590 54 OFFCURVE",
"577 76 QCURVE SMOOTH",
"567 94 OFFCURVE",
"455 356 QCURVE",
"673 586 LINE SMOOTH",
"693 606 OFFCURVE",
"751 625 OFFCURVE",
"764 625 QCURVE SMOOTH",
"767 625 OFFCURVE",
"773 646 OFFCURVE",
"773 655 QCURVE SMOOTH",
"773 661 OFFCURVE",
"772 662 QCURVE",
"658 656 OFFCURVE",
"647 656 QCURVE SMOOTH",
"635 656 OFFCURVE",
"533 662 QCURVE",
"525 655 OFFCURVE",
"525 636 QCURVE SMOOTH",
"525 625 OFFCURVE",
"526 625 QCURVE SMOOTH",
"551 625 OFFCURVE",
"591 606 OFFCURVE",
"589 594 QCURVE SMOOTH",
"588 587 OFFCURVE",
"567 559 OFFCURVE",
"530 518 OFFCURVE",
"494 480 OFFCURVE",
"445 429 OFFCURVE",
"431 414 QCURVE",
"360 582 LINE",
"355 592 OFFCURVE",
"357 604 QCURVE",
"360 614 OFFCURVE",
"396 625 OFFCURVE",
"410 625 QCURVE SMOOTH",
"413 625 OFFCURVE",
"419 645 OFFCURVE",
"419 654 QCURVE SMOOTH",
"419 656 OFFCURVE",
"419 661 OFFCURVE",
"419 662 QCURVE",
"305 656 OFFCURVE",
"284 656 QCURVE SMOOTH"
);
}
);
};
layerId = "EE330C8E-4A1C-402A-831D-620872201BE1";
paths = (
{
closed = 1;
nodes = (
"266 656 OFFCURVE",
"240.667 657 OFFCURVE",
"208 659 CURVE SMOOTH",
"175.333 661 OFFCURVE",
"157.333 662 OFFCURVE",
"154 662 CURVE",
"148.667 657.333 OFFCURVE",
"146 649 OFFCURVE",
"146 637 CURVE SMOOTH",
"146 629 OFFCURVE",
"146.333 625 OFFCURVE",
"147 625 CURVE SMOOTH",
"167 625 OFFCURVE",
"182.333 620 OFFCURVE",
"193 610 CURVE SMOOTH",
"199 604.667 OFFCURVE",
"211 580.333 OFFCURVE",
"229 537 CURVE SMOOTH",
"314 332 LINE",
"83 67 LINE SMOOTH",
"65.667 47 OFFCURVE",
"11 33 OFFCURVE",
"-5 33 CURVE SMOOTH",
"-7.667 33 OFFCURVE",
"-10.333 25.333 OFFCURVE",
"-13 10 CURVE",
"-13 8 OFFCURVE",
"-12.833 5.167 OFFCURVE",
"-12.5 1.5 CURVE SMOOTH",
"-12.167 -2.167 OFFCURVE",
"-12 -4 OFFCURVE",
"-12 -4 CURVE",
"64 0 OFFCURVE",
"104 2 OFFCURVE",
"108 2 CURVE SMOOTH",
"128.667 2 OFFCURVE",
"169 0 OFFCURVE",
"229 -4 CURVE",
"231.667 1.333 OFFCURVE",
"233.333 6.667 OFFCURVE",
"234 12 CURVE SMOOTH",
"236 26 OFFCURVE",
"236 33 OFFCURVE",
"234 33 CURVE SMOOTH",
"202 33 OFFCURVE",
"167 46 OFFCURVE",
"171 66 CURVE SMOOTH",
"171.667 69.333 OFFCURVE",
"177.167 77.5 OFFCURVE",
"187.5 90.5 CURVE SMOOTH",
"197.833 103.5 OFFCURVE",
"211 119.5 OFFCURVE",
"227 138.5 CURVE SMOOTH",
"243 157.5 OFFCURVE",
"258.167 175 OFFCURVE",
"272.5 191 CURVE SMOOTH",
"286.833 207 OFFCURVE",
"309.667 233 OFFCURVE",
"341 269 CURVE",
"424 72 LINE",
"425.333 68 OFFCURVE",
"425.333 64.333 OFFCURVE",
"424 61 CURVE",
"421.333 45 OFFCURVE",
"383 33 OFFCURVE",
"367 33 CURVE SMOOTH",
"363 33 OFFCURVE",
"357 15.667 OFFCURVE",
"357 5 CURVE SMOOTH",
"357 -0.333 OFFCURVE",
"357.333 -3.333 OFFCURVE",
"358 -4 CURVE",
"383.333 -2.667 OFFCURVE",
"427 -0.333 OFFCURVE",
"459 1 CURVE SMOOTH",
"475 1.667 OFFCURVE",
"490.667 2 OFFCURVE",
"506 2 CURVE SMOOTH",
"521.333 2 OFFCURVE",
"566 0 OFFCURVE",
"640 -4 CURVE",
"643.333 2.667 OFFCURVE",
"645.333 7.667 OFFCURVE",
"646 11 CURVE",
"646 15.484 OFFCURVE",
"650.678 27.644 OFFCURVE",
"648 33 CURVE",
"632 33 OFFCURVE",
"594.333 46.667 OFFCURVE",
"577 76 CURVE SMOOTH",
"570.333 88 OFFCURVE",
"529.667 181.333 OFFCURVE",
"455 356 CURVE",
"673 586 LINE SMOOTH",
"699.667 612.667 OFFCURVE",
"746.667 625 OFFCURVE",
"764 625 CURVE SMOOTH",
"768 625 OFFCURVE",
"773 643 OFFCURVE",
"773 655 CURVE SMOOTH",
"773 659 OFFCURVE",
"772.667 661.333 OFFCURVE",
"772 662 CURVE",
"696 658 OFFCURVE",
"654.333 656 OFFCURVE",
"647 656 CURVE SMOOTH",
"639 656 OFFCURVE",
"601 658 OFFCURVE",
"533 662 CURVE",
"527.667 657.333 OFFCURVE",
"525 648.667 OFFCURVE",
"525 636 CURVE SMOOTH",
"525 628.667 OFFCURVE",
"525.333 625 OFFCURVE",
"526 625 CURVE SMOOTH",
"559.333 625 OFFCURVE",
"591.667 610 OFFCURVE",
"589 594 CURVE SMOOTH",
"588.333 589.333 OFFCURVE",
"584.5 582.333 OFFCURVE",
"577.5 573 CURVE SMOOTH",
"570.5 563.667 OFFCURVE",
"560.833 552.167 OFFCURVE",
"548.5 538.5 CURVE SMOOTH",
"536.167 524.833 OFFCURVE",
"524 511.667 OFFCURVE",
"512 499 CURVE SMOOTH",
"500 486.333 OFFCURVE",
"473 458 OFFCURVE",
"431 414 CURVE",
"360 582 LINE",
"356.667 588.667 OFFCURVE",
"355.667 596 OFFCURVE",
"357 604 CURVE",
"361 617.333 OFFCURVE",
"391.333 625 OFFCURVE",
"410 625 CURVE SMOOTH",
"414 625 OFFCURVE",
"419 642 OFFCURVE",
"419 654 CURVE SMOOTH",
"419 655.333 OFFCURVE",
"419 656.833 OFFCURVE",
"419 658.5 CURVE SMOOTH",
"419 660.167 OFFCURVE",
"419 661.333 OFFCURVE",
"419 662 CURVE",
"343 658 OFFCURVE",
"298 656 OFFCURVE",
"284 656 CURVE SMOOTH"
);
}
);
width = 761;
}
);
note = X;
unicode = 0058;
},
{
glyphname = Y;
lastChange = "2018-12-17 21:49:21 +0000";
layers = (
{
background = {
paths = (
{
closed = 1;
nodes = (
"123 656 OFFCURVE",
"26 662 OFFCURVE",
"21 662 QCURVE",
"17 659 OFFCURVE",
"11 641 OFFCURVE",
"11 634 QCURVE SMOOTH",
"11 625 OFFCURVE",
"13 625 QCURVE SMOOTH",
"22 625 OFFCURVE",
"51 616 OFFCURVE",
"60 610 QCURVE",
"77 597 OFFCURVE",
"96 537 QCURVE SMOOTH",
"114 483 LINE SMOOTH",
"133 430 OFFCURVE",
"169 316 OFFCURVE",
"168 309 QCURVE",
"135 139 LINE SMOOTH",
"123 85 OFFCURVE",
"112 58 QCURVE",
"107 50 OFFCURVE",
"56 33 OFFCURVE",
"46 33 QCURVE SMOOTH",
"42 33 OFFCURVE",
"39 12 QCURVE",
"37 2 OFFCURVE",
"40 -4 QCURVE",
"52 -3 OFFCURVE",
"151 4 OFFCURVE",
"176 4 QCURVE SMOOTH",
"200 4 OFFCURVE",
"297 -4 OFFCURVE",
"304 -4 QCURVE",
"306 -1 OFFCURVE",
"309 14 QCURVE",
"312 33 OFFCURVE",
"309 33 QCURVE SMOOTH",
"301 33 OFFCURVE",
"257 51 OFFCURVE",
"257 58 QCURVE",
"255 93 OFFCURVE",
"266 145 QCURVE SMOOTH",
"297 304 LINE",
"299 317 OFFCURVE",
"485 556 OFFCURVE",
"515 590 QCURVE SMOOTH",
"531 608 OFFCURVE",
"578 626 OFFCURVE",
"595 626 QCURVE SMOOTH",
"599 626 OFFCURVE",
"602 644 QCURVE SMOOTH",
"603 649 OFFCURVE",
"603 662 QCURVE",
"522 656 OFFCURVE",
"497 656 QCURVE SMOOTH",
"469 656 OFFCURVE",
"385 662 QCURVE",
"377 655 OFFCURVE",
"377 634 QCURVE SMOOTH",
"377 625 OFFCURVE",
"379 625 QCURVE SMOOTH",
"407 625 OFFCURVE",
"436 613 OFFCURVE",
"434 603 QCURVE SMOOTH",
"429 581 OFFCURVE",
"289 403 QCURVE",
"226 582 LINE",
"221 594 OFFCURVE",
"223 604 QCURVE SMOOTH",
"225 614 OFFCURVE",
"263 625 OFFCURVE",
"277 625 QCURVE SMOOTH",
"279 625 OFFCURVE",
"285 644 OFFCURVE",
"285 653 QCURVE SMOOTH",
"285 660 OFFCURVE",
"284 662 QCURVE",
"170 656 OFFCURVE",
"151 656 QCURVE SMOOTH"
);
}
);
};
layerId = "EE330C8E-4A1C-402A-831D-620872201BE1";
paths = (
{
closed = 1;
nodes = (
"132.333 656 OFFCURVE",
"106.833 657 OFFCURVE",
"74.5 659 CURVE SMOOTH",
"42.167 661 OFFCURVE",
"24.333 662 OFFCURVE",
"21 662 CURVE",
"15.667 658 OFFCURVE",
"11 643.333 OFFCURVE",
"11 634 CURVE SMOOTH",
"11 628 OFFCURVE",
"11.667 625 OFFCURVE",
"13 625 CURVE SMOOTH",
"25 625 OFFCURVE",
"48 618 OFFCURVE",
"60 610 CURVE",
"71.333 601.333 OFFCURVE",
"83.333 577 OFFCURVE",
"96 537 CURVE SMOOTH",
"114 483 LINE SMOOTH",
"126.667 447.667 OFFCURVE",
"139 411 OFFCURVE",
"151 373 CURVE SMOOTH",
"163 335 OFFCURVE",
"168.667 313.667 OFFCURVE",
"168 309 CURVE",
"135 139 LINE SMOOTH",
"127 103 OFFCURVE",
"119.333 76 OFFCURVE",
"112 58 CURVE",
"105.333 47.333 OFFCURVE",
"59.333 33 OFFCURVE",
"46 33 CURVE SMOOTH",
"43.333 33 OFFCURVE",
"41 26 OFFCURVE",
"39 12 CURVE",
"37.667 5.333 OFFCURVE",
"38 0 OFFCURVE",
"40 -4 CURVE",
"56 -2.667 OFFCURVE",
"142.667 4 OFFCURVE",
"176 4 CURVE SMOOTH",
"192 4 OFFCURVE",
"216.167 2.667 OFFCURVE",
"248.5 0 CURVE SMOOTH",
"280.833 -2.667 OFFCURVE",
"299.333 -4 OFFCURVE",
"304 -4 CURVE",
"305.333 -2 OFFCURVE",
"307 4 OFFCURVE",
"309 14 CURVE",
"311 26.667 OFFCURVE",
"311 33 OFFCURVE",
"309 33 CURVE SMOOTH",
"298.333 33 OFFCURVE",
"257 48.667 OFFCURVE",
"257 58 CURVE",
"255.667 81.333 OFFCURVE",
"258.667 110.333 OFFCURVE",
"266 145 CURVE SMOOTH",
"297 304 LINE",
"299.667 321.333 OFFCURVE",
"475 544.667 OFFCURVE",
"515 590 CURVE SMOOTH",
"536.333 614 OFFCURVE",
"572.333 626 OFFCURVE",
"595 626 CURVE SMOOTH",
"597.667 626 OFFCURVE",
"600 632 OFFCURVE",
"602 644 CURVE SMOOTH",
"602.667 647.333 OFFCURVE",
"603 653.333 OFFCURVE",
"603 662 CURVE",
"549 658 OFFCURVE",
"513.667 656 OFFCURVE",
"497 656 CURVE SMOOTH",
"478.333 656 OFFCURVE",
"441 658 OFFCURVE",
"385 662 CURVE",
"379.667 657.333 OFFCURVE",
"377 648 OFFCURVE",
"377 634 CURVE SMOOTH",
"377 628 OFFCURVE",
"377.667 625 OFFCURVE",
"379 625 CURVE SMOOTH",
"397.667 625 OFFCURVE",
"411.833 623 OFFCURVE",
"421.5 619 CURVE SMOOTH",
"431.167 615 OFFCURVE",
"435.333 609.667 OFFCURVE",
"434 603 CURVE SMOOTH",
"430.667 588.333 OFFCURVE",
"382.333 521.667 OFFCURVE",
"289 403 CURVE",
"226 582 LINE",
"222.667 590 OFFCURVE",
"221.667 597.333 OFFCURVE",
"223 604 CURVE SMOOTH",
"225.667 617.333 OFFCURVE",
"258.333 625 OFFCURVE",
"277 625 CURVE SMOOTH",
"278.333 625 OFFCURVE",
"280 628.167 OFFCURVE",
"282 634.5 CURVE SMOOTH",
"284 640.833 OFFCURVE",
"285 647 OFFCURVE",
"285 653 CURVE SMOOTH",
"285 657.667 OFFCURVE",
"284.667 660.667 OFFCURVE",
"284 662 CURVE",
"208 658 OFFCURVE",
"163.667 656 OFFCURVE",
"151 656 CURVE SMOOTH"
);
}
);
width = 590;
}
);
note = Y;
unicode = 0059;
},
{
glyphname = Z;
lastChange = "2018-12-17 21:49:21 +0000";
layers = (
{
background = {
paths = (
{
closed = 1;
nodes = (
"176 656 OFFCURVE",
"155 662 QCURVE",
"135 594 OFFCURVE",
"92 482 QCURVE",
"95 478 OFFCURVE",
"122 478 QCURVE SMOOTH",
"131 478 OFFCURVE",
"135 484 QCURVE",
"137 488 OFFCURVE",
"141 495 QCURVE SMOOTH",
"156 523 OFFCURVE",
"173 550 OFFCURVE",
"207 584 OFFCURVE",
"255 599 OFFCURVE",
"288 599 QCURVE SMOOTH",
"447 599 LINE",
"-4 43 LINE",
"-9 38 OFFCURVE",
"-11 26 QCURVE",
"-15 12 OFFCURVE",
"-8 0 QCURVE",
"473 0 LINE",
"480 21 OFFCURVE",
"504 72 OFFCURVE",
"549 157 OFFCURVE",
"557 174 QCURVE",
"552 180 OFFCURVE",
"529 180 QCURVE SMOOTH",
"519 180 OFFCURVE",
"516 174 QCURVE SMOOTH",
"491 125 OFFCURVE",
"394 57 OFFCURVE",
"329 57 QCURVE SMOOTH",
"181 57 LINE SMOOTH",
"175 57 OFFCURVE",
"169 62 OFFCURVE",
"170 67 QCURVE",
"171 71 OFFCURVE",
"180 82 QCURVE SMOOTH",
"291 218 LINE SMOOTH",
"402 354 OFFCURVE",
"625 629 OFFCURVE",
"626 633 QCURVE SMOOTH",
"628 640 OFFCURVE",
"626 665 OFFCURVE",
"623 666 QCURVE",
"491 656 OFFCURVE",
"406 656 QCURVE SMOOTH",
"304 656 LINE SMOOTH"
);
}
);
};
layerId = "EE330C8E-4A1C-402A-831D-620872201BE1";
paths = (
{
closed = 1;
nodes = (
"218.667 656 OFFCURVE",
"169 658 OFFCURVE",
"155 662 CURVE",
"141.667 616.667 OFFCURVE",
"120.667 556.667 OFFCURVE",
"92 482 CURVE",
"94 479.333 OFFCURVE",
"104 478 OFFCURVE",
"122 478 CURVE SMOOTH",
"128 478 OFFCURVE",
"132.333 480 OFFCURVE",
"135 484 CURVE",
"136.333 486.667 OFFCURVE",
"138.333 490.333 OFFCURVE",
"141 495 CURVE SMOOTH",
"173.796 556.219 OFFCURVE",
"198.118 599 OFFCURVE",
"288 599 CURVE SMOOTH",
"447 599 LINE",
"-4 43 LINE",
"-7.333 39.667 OFFCURVE",
"-9.667 34 OFFCURVE",
"-11 26 CURVE",
"-13.667 16.667 OFFCURVE",
"-12.667 8 OFFCURVE",
"-8 0 CURVE",
"473 0 LINE",
"489.142 48.427 OFFCURVE",
"533.005 123.011 OFFCURVE",
"557 174 CURVE",
"553.667 178 OFFCURVE",
"544.333 180 OFFCURVE",
"529 180 CURVE SMOOTH",
"522.333 180 OFFCURVE",
"518 178 OFFCURVE",
"516 174 CURVE SMOOTH",
"482.667 108.667 OFFCURVE",
"415.667 57 OFFCURVE",
"329 57 CURVE SMOOTH",
"181 57 LINE SMOOTH",
"173 57 OFFCURVE",
"168.667 60.333 OFFCURVE",
"170 67 CURVE",
"170.667 69.667 OFFCURVE",
"174 74.667 OFFCURVE",
"180 82 CURVE SMOOTH",
"291 218 LINE SMOOTH",
"365 308.667 OFFCURVE",
"439.167 399.833 OFFCURVE",
"513.5 491.5 CURVE SMOOTH",
"587.833 583.167 OFFCURVE",
"625.333 630.333 OFFCURVE",
"626 633 CURVE SMOOTH",
"628.667 642.333 OFFCURVE",
"627 664.667 OFFCURVE",
"623 666 CURVE",
"535 659.333 OFFCURVE",
"462.667 656 OFFCURVE",
"406 656 CURVE SMOOTH",
"304 656 LINE SMOOTH"
);
}
);
width = 615;
}
);
note = Z;
unicode = 005A;
},
{
glyphname = a;
lastChange = "2018-12-17 21:49:21 +0000";
layers = (
{
background = {
paths = (
{
closed = 1;
nodes = (
"258 449 OFFCURVE",
"138 391 OFFCURVE",
"57 300 OFFCURVE",
"8 191 OFFCURVE",
"8 140 QCURVE SMOOTH",
"8 74 OFFCURVE",
"70 -8 OFFCURVE",
"125 -8 QCURVE SMOOTH",
"187 -8 OFFCURVE",
"234 76 QCURVE",
"233 71 OFFCURVE",
"232 59 QCURVE",
"232 53 OFFCURVE",
"232 46 QCURVE SMOOTH",
"232 21 OFFCURVE",
"262 -8 OFFCURVE",
"285 -8 QCURVE SMOOTH",
"327 -8 OFFCURVE",
"448 83 OFFCURVE",
"459 110 QCURVE",
"459 114 OFFCURVE",
"442 134 OFFCURVE",
"440 134 QCURVE",
"431 123 OFFCURVE",
"381 81 OFFCURVE",
"367 81 QCURVE SMOOTH",
"357 81 OFFCURVE",
"357 105 QCURVE SMOOTH",
"357 122 OFFCURVE",
"359 128 QCURVE",
"417 427 LINE",
"406 435 OFFCURVE",
"355 449 OFFCURVE",
"323 449 QCURVE SMOOTH"
);
},
{
closed = 1;
nodes = (
"285 385 OFFCURVE",
"292 378 QCURVE",
"274 288 LINE SMOOTH",
"258 207 OFFCURVE",
"194 68 OFFCURVE",
"162 68 QCURVE SMOOTH",
"131 68 OFFCURVE",
"131 124 QCURVE SMOOTH",
"131 153 OFFCURVE",
"149 238 OFFCURVE",
"182 324 OFFCURVE",
"235 385 OFFCURVE",
"265 385 QCURVE SMOOTH"
);
}
);
};
layerId = "EE330C8E-4A1C-402A-831D-620872201BE1";
paths = (
{
closed = 1;
nodes = (
"236.333 449 OFFCURVE",
"151.5 406.167 OFFCURVE",
"97.5 345.5 CURVE SMOOTH",
"43.5 284.833 OFFCURVE",
"8 208 OFFCURVE",
"8 140 CURVE SMOOTH",
"8 52 OFFCURVE",
"51.667 -8 OFFCURVE",
"125 -8 CURVE SMOOTH",
"166.333 -8 OFFCURVE",
"202.667 20 OFFCURVE",
"234 76 CURVE",
"233.333 72.667 OFFCURVE",
"232.667 67 OFFCURVE",
"232 59 CURVE",
"232 55 OFFCURVE",
"232 50.667 OFFCURVE",
"232 46 CURVE SMOOTH",
"232 12.667 OFFCURVE",
"254.333 -8 OFFCURVE",
"285 -8 CURVE SMOOTH",
"341 -8 OFFCURVE",
"444.333 74 OFFCURVE",
"459 110 CURVE",
"459 115.333 OFFCURVE",
"442.667 134 OFFCURVE",
"440 134 CURVE",
"428 119.333 OFFCURVE",
"385.667 81 OFFCURVE",
"367 81 CURVE SMOOTH",
"360.333 81 OFFCURVE",
"357 89 OFFCURVE",
"357 105 CURVE SMOOTH",
"357 116.333 OFFCURVE",
"357.667 124 OFFCURVE",
"359 128 CURVE",
"417 427 LINE",
"402.333 437.667 OFFCURVE",
"365.667 449 OFFCURVE",
"323 449 CURVE SMOOTH"
);
},
{
closed = 1;
nodes = (
"278.333 385 OFFCURVE",
"287.333 382.667 OFFCURVE",
"292 378 CURVE",
"274 288 LINE SMOOTH",
"252.667 180 OFFCURVE",
"204.667 68 OFFCURVE",
"162 68 CURVE SMOOTH",
"141.333 68 OFFCURVE",
"131 86.667 OFFCURVE",
"131 124 CURVE SMOOTH",
"131 206.072 OFFCURVE",
"183.524 385 OFFCURVE",
"265 385 CURVE SMOOTH"
);
}
);
width = 462;
}
);
note = a;
unicode = 0061;
},
{
glyphname = aogonek;
lastChange = "2018-12-17 21:49:21 +0000";
layers = (
{
background = {
paths = (
{
closed = 1;
nodes = (
"295 387 OFFCURVE",
"295 370 QCURVE SMOOTH",
"295 358 OFFCURVE",
"292 346 QCURVE",
"278 261 LINE SMOOTH",
"268 197 OFFCURVE",
"195 68 OFFCURVE",
"164 68 QCURVE SMOOTH",
"140 68 OFFCURVE",
"140 128 QCURVE SMOOTH",
"140 171 OFFCURVE",
"188 295 OFFCURVE",
"253 387 OFFCURVE",
"275 387 QCURVE SMOOTH"
);
},
{
closed = 1;
nodes = (
"250 449 OFFCURVE",
"108 327 OFFCURVE",
"17 162 OFFCURVE",
"17 98 QCURVE SMOOTH",
"17 46 OFFCURVE",
"62 -8 OFFCURVE",
"115 -8 QCURVE SMOOTH",
"141 -8 OFFCURVE",
"195 22 OFFCURVE",
"222 49 OFFCURVE",
"243 72 QCURVE",
"245 74 LINE",
"246 74 OFFCURVE",
"246 72 QCURVE SMOOTH",
"246 62 OFFCURVE",
"250 48 QCURVE",
"265 4 OFFCURVE",
"296 -5 QCURVE",
"214 -95 OFFCURVE",
"214 -157 QCURVE SMOOTH",
"214 -183 OFFCURVE",
"248 -216 OFFCURVE",
"271 -216 QCURVE SMOOTH",
"300 -216 OFFCURVE",
"368 -177 OFFCURVE",
"390 -152 QCURVE",
"393 -149 OFFCURVE",
"400 -118 OFFCURVE",
"395 -117 QCURVE",
"394 -117 OFFCURVE",
"374 -130 OFFCURVE",
"339 -144 OFFCURVE",
"318 -144 QCURVE SMOOTH",
"290 -144 OFFCURVE",
"290 -118 QCURVE SMOOTH",
"290 -104 OFFCURVE",
"300 -77 OFFCURVE",
"324 -49 OFFCURVE",
"340 -32 OFFCURVE",
"380 3 OFFCURVE",
"387 10 QCURVE SMOOTH",
"451 70 OFFCURVE",
"467 110 QCURVE",
"464 120 OFFCURVE",
"442 139 OFFCURVE",
"436 139 QCURVE SMOOTH",
"435 139 OFFCURVE",
"417 110 OFFCURVE",
"392 82 OFFCURVE",
"385 82 QCURVE SMOOTH",
"365 82 OFFCURVE",
"365 108 QCURVE SMOOTH",
"365 114 OFFCURVE",
"368 129 QCURVE SMOOTH",
"424 427 LINE",
"414 434 OFFCURVE",
"347 449 OFFCURVE",
"314 449 QCURVE SMOOTH"
);
}
);
};
layerId = "EE330C8E-4A1C-402A-831D-620872201BE1";
paths = (
{
closed = 1;
nodes = (
"288.333 387 OFFCURVE",
"295 381.333 OFFCURVE",
"295 370 CURVE SMOOTH",
"295 362 OFFCURVE",
"294 354 OFFCURVE",
"292 346 CURVE",
"278 261 LINE SMOOTH",
"264.667 175.667 OFFCURVE",
"205.333 68 OFFCURVE",
"164 68 CURVE SMOOTH",
"148 68 OFFCURVE",
"140 88 OFFCURVE",
"140 128 CURVE SMOOTH",
"140 185.333 OFFCURVE",
"177.167 279.667 OFFCURVE",
"220.5 341 CURVE SMOOTH",
"242.167 371.667 OFFCURVE",
"260.333 387 OFFCURVE",
"275 387 CURVE SMOOTH"
);
},
{
closed = 1;
nodes = (
"228.667 449 OFFCURVE",
"123.167 354.5 OFFCURVE",
"62.5 244.5 CURVE SMOOTH",
"32.167 189.5 OFFCURVE",
"17 140.667 OFFCURVE",
"17 98 CURVE SMOOTH",
"17 28.667 OFFCURVE",
"44.333 -8 OFFCURVE",
"115 -8 CURVE SMOOTH",
"169.091 -8 OFFCURVE",
"210.833 36.769 OFFCURVE",
"243 72 CURVE",
"245 74 LINE",
"245.667 74 OFFCURVE",
"246 73.333 OFFCURVE",
"246 72 CURVE SMOOTH",
"246 65.333 OFFCURVE",
"247.333 57.333 OFFCURVE",
"250 48 CURVE",
"260 18.667 OFFCURVE",
"275.333 1 OFFCURVE",
"296 -5 CURVE",
"241.333 -65 OFFCURVE",
"214 -115.667 OFFCURVE",
"214 -157 CURVE SMOOTH",
"214 -191.667 OFFCURVE",
"240.333 -216 OFFCURVE",
"271 -216 CURVE SMOOTH",
"309.667 -216 OFFCURVE",
"360.667 -185.333 OFFCURVE",
"390 -152 CURVE",
"394 -148 OFFCURVE",
"401.667 -118.333 OFFCURVE",
"395 -117 CURVE",
"389.845 -117 OFFCURVE",
"343.861 -144 OFFCURVE",
"318 -144 CURVE SMOOTH",
"299.333 -144 OFFCURVE",
"290 -135.333 OFFCURVE",
"290 -118 CURVE SMOOTH",
"290 -99.333 OFFCURVE",
"296 -81.667 OFFCURVE",
"312 -63 CURVE SMOOTH",
"320 -53.667 OFFCURVE",
"326.667 -46.167 OFFCURVE",
"332 -40.5 CURVE SMOOTH",
"337.333 -34.833 OFFCURVE",
"355.667 -18 OFFCURVE",
"387 10 CURVE SMOOTH",
"429.667 50 OFFCURVE",
"456.333 83.333 OFFCURVE",
"467 110 CURVE",
"463 123.333 OFFCURVE",
"444 139 OFFCURVE",
"436 139 CURVE SMOOTH",
"429.206 139 OFFCURVE",
"395.121 82 OFFCURVE",
"385 82 CURVE SMOOTH",
"371.667 82 OFFCURVE",
"365 90.667 OFFCURVE",
"365 108 CURVE SMOOTH",
"365 112 OFFCURVE",
"366 119 OFFCURVE",
"368 129 CURVE SMOOTH",
"424 427 LINE",
"410.667 436.333 OFFCURVE",
"358 449 OFFCURVE",
"314 449 CURVE SMOOTH"
);
}
);
width = 490;
}
);
note = aogonek;
unicode = 0105;
},
{
glyphname = ae;
lastChange = "2018-12-17 21:49:21 +0000";
layers = (
{
background = {
paths = (
{
closed = 1;
nodes = (
"427 449 OFFCURVE",
"366 406 QCURVE",
"338 449 OFFCURVE",
"274 449 QCURVE SMOOTH",
"206 449 OFFCURVE",
"73 362 OFFCURVE",
"73 317 QCURVE SMOOTH",
"73 278 OFFCURVE",
"116 278 QCURVE SMOOTH",
"135 278 OFFCURVE",
"170 296 OFFCURVE",
"172 306 QCURVE SMOOTH",
"178 342 OFFCURVE",
"223 389 OFFCURVE",
"245 389 QCURVE SMOOTH",
"271 389 OFFCURVE",
"271 342 QCURVE SMOOTH",
"271 325 OFFCURVE",
"268 307 QCURVE SMOOTH",
"259 259 LINE SMOOTH",
"257 248 OFFCURVE",
"249 245 QCURVE",
"233 240 OFFCURVE",
"163 225 OFFCURVE",
"109 209 OFFCURVE",
"52 182 OFFCURVE",
"20 134 OFFCURVE",
"20 101 QCURVE SMOOTH",
"20 54 OFFCURVE",
"88 -8 OFFCURVE",
"146 -8 QCURVE SMOOTH",
"235 -8 OFFCURVE",
"278 61 QCURVE",
"320 -7 OFFCURVE",
"405 -7 QCURVE SMOOTH",
"460 -7 OFFCURVE",
"552 74 OFFCURVE",
"561 98 QCURVE",
"561 101 OFFCURVE",
"548 126 OFFCURVE",
"545 127 QCURVE",
"543 127 OFFCURVE",
"513 92 OFFCURVE",
"471 58 OFFCURVE",
"453 58 QCURVE SMOOTH",
"423 58 OFFCURVE",
"374 120 OFFCURVE",
"374 190 QCURVE SMOOTH",
"374 200 OFFCURVE",
"378 200 QCURVE SMOOTH",
"411 200 OFFCURVE",
"513 230 OFFCURVE",
"610 305 OFFCURVE",
"610 354 QCURVE SMOOTH",
"610 397 OFFCURVE",
"543 449 OFFCURVE",
"495 449 QCURVE SMOOTH"
);
},
{
closed = 1;
nodes = (
"228 91 OFFCURVE",
"196 67 OFFCURVE",
"177 67 QCURVE SMOOTH",
"161 67 OFFCURVE",
"139 88 OFFCURVE",
"139 108 QCURVE SMOOTH",
"139 121 OFFCURVE",
"145 142 OFFCURVE",
"160 157 OFFCURVE",
"171 167 OFFCURVE",
"198 176 OFFCURVE",
"210 179 OFFCURVE",
"242 186 OFFCURVE",
"246 187 QCURVE",
"232 110 LINE SMOOTH"
);
},
{
closed = 1;
nodes = (
"496 394 OFFCURVE",
"496 318 OFFCURVE",
"432 253 OFFCURVE",
"383 253 QCURVE SMOOTH",
"379 253 OFFCURVE",
"379 257 QCURVE SMOOTH",
"379 296 OFFCURVE",
"397 334 QCURVE SMOOTH",
"410 361 OFFCURVE",
"454 394 OFFCURVE",
"472 394 QCURVE SMOOTH"
);
}
);
};
layerId = "EE330C8E-4A1C-402A-831D-620872201BE1";
paths = (
{
closed = 1;
nodes = (
"449.667 449 OFFCURVE",
"406.667 434.667 OFFCURVE",
"366 406 CURVE",
"347.333 434.667 OFFCURVE",
"316.667 449 OFFCURVE",
"274 449 CURVE SMOOTH",
"183.333 449 OFFCURVE",
"73 377 OFFCURVE",
"73 317 CURVE SMOOTH",
"73 291 OFFCURVE",
"87.333 278 OFFCURVE",
"116 278 CURVE SMOOTH",
"141.333 278 OFFCURVE",
"169.333 292.667 OFFCURVE",
"172 306 CURVE SMOOTH",
"180 354 OFFCURVE",
"215.667 389 OFFCURVE",
"245 389 CURVE SMOOTH",
"262.333 389 OFFCURVE",
"271 373.333 OFFCURVE",
"271 342 CURVE SMOOTH",
"271 330.667 OFFCURVE",
"270 319 OFFCURVE",
"268 307 CURVE SMOOTH",
"259 259 LINE SMOOTH",
"257.667 251.667 OFFCURVE",
"254.333 247 OFFCURVE",
"249 245 CURVE",
"238.333 241.667 OFFCURVE",
"221.333 237.5 OFFCURVE",
"198 232.5 CURVE SMOOTH",
"174.667 227.5 OFFCURVE",
"154 222.333 OFFCURVE",
"136 217 CURVE SMOOTH",
"118 211.667 OFFCURVE",
"99.5 204.5 OFFCURVE",
"80.5 195.5 CURVE SMOOTH",
"61.5 186.5 OFFCURVE",
"41.333 155 OFFCURVE",
"20 101 CURVE",
"20 38.333 OFFCURVE",
"68.667 -8 OFFCURVE",
"146 -8 CURVE SMOOTH",
"205.333 -8 OFFCURVE",
"249.333 15 OFFCURVE",
"278 61 CURVE",
"306 15.667 OFFCURVE",
"348.333 -7 OFFCURVE",
"405 -7 CURVE SMOOTH",
"478.333 -7 OFFCURVE",
"549 66 OFFCURVE",
"561 98 CURVE",
"561 102 OFFCURVE",
"549 125.667 OFFCURVE",
"545 127 CURVE",
"533.099 127 OFFCURVE",
"476.363 58 OFFCURVE",
"453 58 CURVE SMOOTH",
"413 58 OFFCURVE",
"374 96.667 OFFCURVE",
"374 190 CURVE SMOOTH",
"374 196.667 OFFCURVE",
"375.333 200 OFFCURVE",
"378 200 CURVE SMOOTH",
"422 200 OFFCURVE",
"496.833 217.5 OFFCURVE",
"561.5 267.5 CURVE SMOOTH",
"593.833 292.5 OFFCURVE",
"610 321.333 OFFCURVE",
"610 354 CURVE SMOOTH",
"610 411.333 OFFCURVE",
"559 449 OFFCURVE",
"495 449 CURVE SMOOTH"
);
},
{
closed = 1;
nodes = (
"226.667 84.667 OFFCURVE",
"202.333 67 OFFCURVE",
"177 67 CURVE SMOOTH",
"155.667 67 OFFCURVE",
"139 81.333 OFFCURVE",
"139 108 CURVE SMOOTH",
"139 136.109 OFFCURVE",
"148.731 146.756 OFFCURVE",
"165.5 162 CURVE SMOOTH",
"176.619 172.108 OFFCURVE",
"220.226 181.272 OFFCURVE",
"246 187 CURVE",
"232 110 LINE SMOOTH"
);
},
{
closed = 1;
nodes = (
"526.753 394 OFFCURVE",
"457.664 253 OFFCURVE",
"383 253 CURVE SMOOTH",
"380.333 253 OFFCURVE",
"379 254.333 OFFCURVE",
"379 257 CURVE SMOOTH",
"379 283 OFFCURVE",
"385 308.667 OFFCURVE",
"397 334 CURVE SMOOTH",
"414.333 370 OFFCURVE",
"448 394 OFFCURVE",
"472 394 CURVE SMOOTH"
);
}
);
width = 621;
}
);
note = ae;
unicode = 00E6;
},
{
glyphname = b;
lastChange = "2018-12-17 21:49:21 +0000";
layers = (
{
background = {
paths = (
{
closed = 1;
nodes = (
"277 449 OFFCURVE",
"237 429 OFFCURVE",
"202 393 OFFCURVE",
"184 369 OFFCURVE",
"173 352 QCURVE",
"170 348 OFFCURVE",
"169 346 QCURVE",
"215 584 LINE SMOOTH",
"232 660 OFFCURVE",
"232 673 QCURVE SMOOTH",
"232 690 OFFCURVE",
"222 695 QCURVE",
"196 684 OFFCURVE",
"81 656 OFFCURVE",
"57 656 QCURVE",
"48 647 OFFCURVE",
"48 633 QCURVE SMOOTH",
"48 625 OFFCURVE",
"51 625 QCURVE SMOOTH",
"100 625 OFFCURVE",
"100 603 QCURVE SMOOTH",
"100 590 OFFCURVE",
"91 544 QCURVE SMOOTH",
"17 162 LINE SMOOTH",
"11 130 OFFCURVE",
"11 107 QCURVE SMOOTH",
"11 56 OFFCURVE",
"76 -10 OFFCURVE",
"124 -10 QCURVE SMOOTH",
"167 -10 OFFCURVE",
"263 37 OFFCURVE",
"346 116 OFFCURVE",
"401 237 OFFCURVE",
"401 303 QCURVE SMOOTH",
"401 449 OFFCURVE",
"299 449 QCURVE SMOOTH"
);
},
{
closed = 1;
nodes = (
"279 363 OFFCURVE",
"279 296 QCURVE SMOOTH",
"279 247 OFFCURVE",
"246 132 OFFCURVE",
"189 47 OFFCURVE",
"159 47 QCURVE SMOOTH",
"134 47 OFFCURVE",
"123 125 OFFCURVE",
"134 167 QCURVE",
"147 238 OFFCURVE",
"217 363 OFFCURVE",
"249 363 QCURVE SMOOTH"
);
}
);
};
layerId = "EE330C8E-4A1C-402A-831D-620872201BE1";
paths = (
{
closed = 1;
nodes = (
"238.291 449 OFFCURVE",
"195.762 387.177 OFFCURVE",
"173 352 CURVE",
"171 349.333 OFFCURVE",
"169.667 347.333 OFFCURVE",
"169 346 CURVE",
"215 584 LINE SMOOTH",
"226.333 634.667 OFFCURVE",
"232 664.333 OFFCURVE",
"232 673 CURVE SMOOTH",
"232 684.333 OFFCURVE",
"228.667 691.667 OFFCURVE",
"222 695 CURVE",
"187.333 680.333 OFFCURVE",
"89 656 OFFCURVE",
"57 656 CURVE",
"51 650 OFFCURVE",
"48 642.333 OFFCURVE",
"48 633 CURVE SMOOTH",
"48 627.667 OFFCURVE",
"49 625 OFFCURVE",
"51 625 CURVE SMOOTH",
"83.667 625 OFFCURVE",
"100 617.667 OFFCURVE",
"100 603 CURVE SMOOTH",
"100 594.333 OFFCURVE",
"97 574.667 OFFCURVE",
"91 544 CURVE SMOOTH",
"17 162 LINE SMOOTH",
"13 140.667 OFFCURVE",
"11 122.333 OFFCURVE",
"11 107 CURVE SMOOTH",
"11 39 OFFCURVE",
"60 -10 OFFCURVE",
"124 -10 CURVE SMOOTH",
"181.333 -10 OFFCURVE",
"249.167 23.833 OFFCURVE",
"304.5 76.5 CURVE SMOOTH",
"359.833 129.167 OFFCURVE",
"401 215 OFFCURVE",
"401 303 CURVE SMOOTH",
"401 400.333 OFFCURVE",
"367 449 OFFCURVE",
"299 449 CURVE SMOOTH"
);
},
{
closed = 1;
nodes = (
"269 363 OFFCURVE",
"279 340.667 OFFCURVE",
"279 296 CURVE SMOOTH",
"279 230.667 OFFCURVE",
"255.5 146.167 OFFCURVE",
"217.5 89.5 CURVE SMOOTH",
"198.5 61.167 OFFCURVE",
"179 47 OFFCURVE",
"159 47 CURVE SMOOTH",
"125.667 47 OFFCURVE",
"119.333 111 OFFCURVE",
"134 167 CURVE",
"151.333 261.667 OFFCURVE",
"206.333 363 OFFCURVE",
"249 363 CURVE SMOOTH"
);
}
);
width = 410;
}
);
note = b;
unicode = 0062;
},
{
glyphname = c;
lastChange = "2018-12-17 21:49:21 +0000";
layers = (
{
background = {
paths = (
{
closed = 1;
nodes = (
"190 449 OFFCURVE",
"77 367 OFFCURVE",
"9 230 OFFCURVE",
"9 156 QCURVE SMOOTH",
"9 81 OFFCURVE",
"80 -6 OFFCURVE",
"154 -6 QCURVE SMOOTH",
"201 -6 OFFCURVE",
"307 74 OFFCURVE",
"319 102 QCURVE",
"319 106 OFFCURVE",
"302 126 OFFCURVE",
"300 126 QCURVE",
"289 111 OFFCURVE",
"229 68 OFFCURVE",
"199 68 QCURVE SMOOTH",
"135 68 OFFCURVE",
"135 169 QCURVE SMOOTH",
"135 218 OFFCURVE",
"164 322 OFFCURVE",
"214 394 OFFCURVE",
"241 394 QCURVE SMOOTH",
"256 394 OFFCURVE",
"276 368 OFFCURVE",
"285 336 OFFCURVE",
"307 310 OFFCURVE",
"324 310 QCURVE SMOOTH",
"345 310 OFFCURVE",
"371 346 OFFCURVE",
"371 371 QCURVE SMOOTH",
"371 383 OFFCURVE",
"364 404 QCURVE",
"324 449 OFFCURVE",
"252 449 QCURVE SMOOTH"
);
}
);
};
layerId = "EE330C8E-4A1C-402A-831D-620872201BE1";
paths = (
{
closed = 1;
nodes = (
"169.333 449 OFFCURVE",
"88.333 389.833 OFFCURVE",
"43 298.5 CURVE SMOOTH",
"20.333 252.833 OFFCURVE",
"9 205.333 OFFCURVE",
"9 156 CURVE SMOOTH",
"9 56 OFFCURVE",
"55.333 -6 OFFCURVE",
"154 -6 CURVE SMOOTH",
"216.667 -6 OFFCURVE",
"303 64.667 OFFCURVE",
"319 102 CURVE",
"319 107.333 OFFCURVE",
"302.667 126 OFFCURVE",
"300 126 CURVE",
"285.333 106 OFFCURVE",
"239 68 OFFCURVE",
"199 68 CURVE SMOOTH",
"156.333 68 OFFCURVE",
"135 101.667 OFFCURVE",
"135 169 CURVE SMOOTH",
"135 243.777 OFFCURVE",
"184.475 394 OFFCURVE",
"241 394 CURVE SMOOTH",
"287.915 394 OFFCURVE",
"274.248 310 OFFCURVE",
"324 310 CURVE SMOOTH",
"352 310 OFFCURVE",
"371 337.667 OFFCURVE",
"371 371 CURVE SMOOTH",
"371 379 OFFCURVE",
"368.667 390 OFFCURVE",
"364 404 CURVE",
"337.333 434 OFFCURVE",
"300 449 OFFCURVE",
"252 449 CURVE SMOOTH"
);
}
);
width = 371;
}
);
note = c;
unicode = 0063;
},
{
glyphname = d;
lastChange = "2018-12-17 21:49:21 +0000";
layers = (
{
background = {
paths = (
{
closed = 1;
nodes = (
"236 444 OFFCURVE",
"125 383 OFFCURVE",
"49 295 OFFCURVE",
"5 190 OFFCURVE",
"5 140 QCURVE SMOOTH",
"5 74 OFFCURVE",
"68 -8 OFFCURVE",
"122 -8 QCURVE SMOOTH",
"184 -8 OFFCURVE",
"232 76 QCURVE",
"231 71 OFFCURVE",
"230 61 QCURVE",
"229 54 OFFCURVE",
"229 46 QCURVE SMOOTH",
"229 21 OFFCURVE",
"260 -8 OFFCURVE",
"282 -8 QCURVE SMOOTH",
"325 -8 OFFCURVE",
"446 83 OFFCURVE",
"456 110 QCURVE",
"456 114 OFFCURVE",
"440 134 OFFCURVE",
"437 134 QCURVE",
"429 123 OFFCURVE",
"379 81 OFFCURVE",
"364 81 QCURVE SMOOTH",
"354 81 OFFCURVE",
"354 105 QCURVE SMOOTH",
"354 122 OFFCURVE",
"356 128 QCURVE",
"445 586 LINE SMOOTH",
"446 592 OFFCURVE",
"455 632 OFFCURVE",
"462 667 OFFCURVE",
"462 673 QCURVE SMOOTH",
"462 690 OFFCURVE",
"452 695 QCURVE",
"427 684 OFFCURVE",
"312 656 OFFCURVE",
"287 656 QCURVE",
"278 647 OFFCURVE",
"278 633 QCURVE SMOOTH",
"278 625 OFFCURVE",
"281 625 QCURVE SMOOTH",
"330 625 OFFCURVE",
"330 603 QCURVE SMOOTH",
"330 595 OFFCURVE",
"321 541 QCURVE",
"302 448 LINE",
"300 448 OFFCURVE",
"297 448 QCURVE"
);
},
{
closed = 1;
nodes = (
"272 288 LINE SMOOTH",
"254 203 OFFCURVE",
"192 68 OFFCURVE",
"159 68 QCURVE SMOOTH",
"128 68 OFFCURVE",
"128 124 QCURVE SMOOTH",
"128 153 OFFCURVE",
"147 238 OFFCURVE",
"179 324 OFFCURVE",
"233 385 OFFCURVE",
"262 385 QCURVE SMOOTH",
"272 385 OFFCURVE",
"288 373 OFFCURVE",
"286 360 QCURVE"
);
}
);
};
layerId = "EE330C8E-4A1C-402A-831D-620872201BE1";
paths = (
{
closed = 1;
nodes = (
"215.667 442.667 OFFCURVE",
"137.667 397.667 OFFCURVE",
"87 339 CURVE SMOOTH",
"36.333 280.333 OFFCURVE",
"5 206.667 OFFCURVE",
"5 140 CURVE SMOOTH",
"5 52 OFFCURVE",
"50 -8 OFFCURVE",
"122 -8 CURVE SMOOTH",
"163.333 -8 OFFCURVE",
"200 20 OFFCURVE",
"232 76 CURVE",
"231.333 72.667 OFFCURVE",
"230.667 67.667 OFFCURVE",
"230 61 CURVE",
"229.333 56.333 OFFCURVE",
"229 51.333 OFFCURVE",
"229 46 CURVE SMOOTH",
"229 12.667 OFFCURVE",
"252.667 -8 OFFCURVE",
"282 -8 CURVE SMOOTH",
"339.333 -8 OFFCURVE",
"442.667 74 OFFCURVE",
"456 110 CURVE",
"456 115.333 OFFCURVE",
"441 134 OFFCURVE",
"437 134 CURVE",
"426.333 119.333 OFFCURVE",
"384 81 OFFCURVE",
"364 81 CURVE SMOOTH",
"357.333 81 OFFCURVE",
"354 89 OFFCURVE",
"354 105 CURVE SMOOTH",
"354 116.333 OFFCURVE",
"354.667 124 OFFCURVE",
"356 128 CURVE",
"445 586 LINE SMOOTH",
"448.269 605.611 OFFCURVE",
"462 656.909 OFFCURVE",
"462 673 CURVE SMOOTH",
"462 684.333 OFFCURVE",
"458.667 691.667 OFFCURVE",
"452 695 CURVE",
"418.667 680.333 OFFCURVE",
"320.333 656 OFFCURVE",
"287 656 CURVE",
"281 650 OFFCURVE",
"278 642.333 OFFCURVE",
"278 633 CURVE SMOOTH",
"278 627.667 OFFCURVE",
"279 625 OFFCURVE",
"281 625 CURVE SMOOTH",
"313.667 625 OFFCURVE",
"330 617.667 OFFCURVE",
"330 603 CURVE SMOOTH",
"330 597.667 OFFCURVE",
"327 577 OFFCURVE",
"321 541 CURVE",
"302 448 LINE",
"300.667 448 OFFCURVE",
"299 448 OFFCURVE",
"297 448 CURVE"
);
},
{
closed = 1;
nodes = (
"272 288 LINE SMOOTH",
"248 174.667 OFFCURVE",
"203 68 OFFCURVE",
"159 68 CURVE SMOOTH",
"138.333 68 OFFCURVE",
"128 86.667 OFFCURVE",
"128 124 CURVE SMOOTH",
"128 206.449 OFFCURVE",
"181.742 385 OFFCURVE",
"262 385 CURVE SMOOTH",
"275.333 385 OFFCURVE",
"288.667 377.333 OFFCURVE",
"286 360 CURVE"
);
}
);
width = 465;
}
);
note = d;
unicode = 0064;
},
{
glyphname = eth;
lastChange = "2018-12-17 21:49:21 +0000";
layers = (
{
background = {
paths = (
{
closed = 1;
nodes = (
"270 342 OFFCURVE",
"291 327 OFFCURVE",
"291 312 QCURVE SMOOTH",
"291 288 OFFCURVE",
"276 207 QCURVE SMOOTH",
"246 50 OFFCURVE",
"177 50 QCURVE SMOOTH",
"138 50 OFFCURVE",
"138 106 QCURVE SMOOTH",
"138 206 OFFCURVE",
"210 342 OFFCURVE",
"257 342 QCURVE SMOOTH"
);
},
{
closed = 1;
nodes = (
"157 399 OFFCURVE",
"20 253 OFFCURVE",
"20 161 QCURVE SMOOTH",
"20 91 OFFCURVE",
"103 -6 OFFCURVE",
"166 -6 QCURVE SMOOTH",
"207 -6 OFFCURVE",
"292 34 OFFCURVE",
"367 108 OFFCURVE",
"414 233 OFFCURVE",
"414 309 QCURVE SMOOTH",
"414 485 OFFCURVE",
"277 613 QCURVE",
"364 713 LINE",
"367 718 OFFCURVE",
"367 722 QCURVE SMOOTH",
"367 727 OFFCURVE",
"351 741 OFFCURVE",
"335 751 OFFCURVE",
"334 750 QCURVE",
"241 644 LINE",
"207 670 OFFCURVE",
"161 695 QCURVE",
"151 693 OFFCURVE",
"137 669 OFFCURVE",
"137 658 QCURVE",
"174 638 OFFCURVE",
"207 605 QCURVE",
"114 501 LINE",
"112 499 OFFCURVE",
"112 495 QCURVE SMOOTH",
"112 489 OFFCURVE",
"137 466 OFFCURVE",
"146 466 QCURVE",
"238 569 LINE",
"296 490 OFFCURVE",
"296 409 QCURVE SMOOTH",
"296 386 OFFCURVE",
"291 386 QCURVE",
"289 387 LINE SMOOTH",
"266 399 OFFCURVE",
"235 399 QCURVE SMOOTH"
);
}
);
};
layerId = "EE330C8E-4A1C-402A-831D-620872201BE1";
paths = (
{
closed = 1;
nodes = (
"274.333 342 OFFCURVE",
"291 332 OFFCURVE",
"291 312 CURVE SMOOTH",
"291 296 OFFCURVE",
"286 261 OFFCURVE",
"276 207 CURVE SMOOTH",
"256 102.333 OFFCURVE",
"223 50 OFFCURVE",
"177 50 CURVE SMOOTH",
"151 50 OFFCURVE",
"138 68.667 OFFCURVE",
"138 106 CURVE SMOOTH",
"138 239.333 OFFCURVE",
"194.333 342 OFFCURVE",
"257 342 CURVE SMOOTH"
);
},
{
closed = 1;
nodes = (
"131 399 OFFCURVE",
"20 283.667 OFFCURVE",
"20 161 CURVE SMOOTH",
"20 67.667 OFFCURVE",
"82 -6 OFFCURVE",
"166 -6 CURVE SMOOTH",
"220.667 -6 OFFCURVE",
"279.5 21.667 OFFCURVE",
"329.5 71 CURVE SMOOTH",
"379.5 120.333 OFFCURVE",
"414 207.667 OFFCURVE",
"414 309 CURVE SMOOTH",
"414 426.333 OFFCURVE",
"368.333 527.667 OFFCURVE",
"277 613 CURVE",
"364 713 LINE",
"366 716.333 OFFCURVE",
"367 719.333 OFFCURVE",
"367 722 CURVE SMOOTH",
"367 728.63 OFFCURVE",
"337.457 753.457 OFFCURVE",
"334 750 CURVE",
"241 644 LINE",
"218.333 661.333 OFFCURVE",
"191.667 678.333 OFFCURVE",
"161 695 CURVE",
"147.667 692.333 OFFCURVE",
"137 672.667 OFFCURVE",
"137 658 CURVE",
"161.667 644.667 OFFCURVE",
"185 627 OFFCURVE",
"207 605 CURVE",
"114 501 LINE",
"112.667 499.667 OFFCURVE",
"112 497.667 OFFCURVE",
"112 495 CURVE SMOOTH",
"112 487 OFFCURVE",
"134 466 OFFCURVE",
"146 466 CURVE",
"238 569 LINE",
"276.667 516.333 OFFCURVE",
"296 463 OFFCURVE",
"296 409 CURVE SMOOTH",
"296 393.667 OFFCURVE",
"294.333 386 OFFCURVE",
"291 386 CURVE",
"289 387 LINE SMOOTH",
"273.667 395 OFFCURVE",
"255.667 399 OFFCURVE",
"235 399 CURVE SMOOTH"
);
}
);
width = 431;
}
);
note = eth;
unicode = 00F0;
},
{
glyphname = dcroat;
lastChange = "2018-12-17 21:49:21 +0000";
layers = (
{
background = {
paths = (
{
closed = 1;
nodes = (
"324 391 OFFCURVE",
"324 331 QCURVE SMOOTH",
"324 312 OFFCURVE",
"318 291 QCURVE SMOOTH",
"306 247 LINE SMOOTH",
"291 187 OFFCURVE",
"218 69 OFFCURVE",
"178 69 QCURVE SMOOTH",
"154 69 OFFCURVE",
"154 126 QCURVE SMOOTH",
"154 186 OFFCURVE",
"195 311 OFFCURVE",
"257 391 OFFCURVE",
"284 391 QCURVE SMOOTH"
);
},
{
closed = 1;
nodes = (
"225 444 OFFCURVE",
"94 336 OFFCURVE",
"17 180 OFFCURVE",
"17 108 QCURVE SMOOTH",
"17 56 OFFCURVE",
"77 -8 OFFCURVE",
"126 -8 QCURVE SMOOTH",
"165 -8 OFFCURVE",
"259 46 OFFCURVE",
"275 66 QCURVE",
"277 70 LINE",
"279 70 OFFCURVE",
"279 62 OFFCURVE",
"283 48 QCURVE",
"304 -9 OFFCURVE",
"351 -9 QCURVE SMOOTH",
"404 -9 OFFCURVE",
"482 73 OFFCURVE",
"497 110 QCURVE",
"494 120 OFFCURVE",
"472 139 OFFCURVE",
"466 139 QCURVE SMOOTH",
"465 139 OFFCURVE",
"447 110 OFFCURVE",
"422 82 OFFCURVE",
"415 82 QCURVE SMOOTH",
"395 82 OFFCURVE",
"395 108 QCURVE SMOOTH",
"395 114 OFFCURVE",
"398 129 QCURVE SMOOTH",
"469 489 LINE",
"471 494 OFFCURVE",
"474 494 QCURVE SMOOTH",
"534 494 LINE",
"535 494 LINE SMOOTH",
"536 494 OFFCURVE",
"540 497 OFFCURVE",
"541 500 QCURVE",
"545 510 OFFCURVE",
"550 532 OFFCURVE",
"553 553 OFFCURVE",
"553 555 QCURVE",
"554 562 OFFCURVE",
"548 562 QCURVE SMOOTH",
"488 562 LINE SMOOTH",
"485 562 OFFCURVE",
"485 567 QCURVE SMOOTH",
"485 571 OFFCURVE",
"488 584 QCURVE",
"498 640 OFFCURVE",
"517 678 QCURVE",
"517 682 OFFCURVE",
"511 695 OFFCURVE",
"508 695 QCURVE SMOOTH",
"503 695 LINE",
"486 687 OFFCURVE",
"355 656 OFFCURVE",
"330 656 QCURVE SMOOTH",
"328 656 OFFCURVE",
"321 640 OFFCURVE",
"321 633 QCURVE SMOOTH",
"321 625 OFFCURVE",
"324 625 QCURVE SMOOTH",
"373 625 OFFCURVE",
"373 603 QCURVE SMOOTH",
"373 590 OFFCURVE",
"368 567 QCURVE",
"368 562 OFFCURVE",
"365 562 QCURVE SMOOTH",
"269 562 LINE",
"268 562 LINE SMOOTH",
"267 562 OFFCURVE",
"263 560 OFFCURVE",
"262 557 QCURVE",
"258 549 OFFCURVE",
"252 530 OFFCURVE",
"250 517 OFFCURVE",
"248 505 OFFCURVE",
"248 504 QCURVE",
"251 494 LINE",
"351 494 LINE SMOOTH",
"354 494 OFFCURVE",
"354 489 QCURVE SMOOTH",
"354 487 OFFCURVE",
"343 436 QCURVE",
"343 432 OFFCURVE",
"339 432 OFFCURVE",
"337 434 QCURVE",
"315 445 OFFCURVE",
"294 445 QCURVE SMOOTH"
);
}
);
};
layerId = "EE330C8E-4A1C-402A-831D-620872201BE1";
paths = (
{
closed = 1;
nodes = (
"310.667 391 OFFCURVE",
"324 371 OFFCURVE",
"324 331 CURVE SMOOTH",
"324 318.333 OFFCURVE",
"322 305 OFFCURVE",
"318 291 CURVE SMOOTH",
"306 247 LINE SMOOTH",
"286 167 OFFCURVE",
"231.333 69 OFFCURVE",
"178 69 CURVE SMOOTH",
"162 69 OFFCURVE",
"154 88 OFFCURVE",
"154 126 CURVE SMOOTH",
"154 206 OFFCURVE",
"184.667 297.667 OFFCURVE",
"226 351 CURVE SMOOTH",
"246.667 377.667 OFFCURVE",
"266 391 OFFCURVE",
"284 391 CURVE SMOOTH"
);
},
{
closed = 1;
nodes = (
"202 443.667 OFFCURVE",
"106.833 362 OFFCURVE",
"55.5 258 CURVE SMOOTH",
"29.833 206 OFFCURVE",
"17 156 OFFCURVE",
"17 108 CURVE SMOOTH",
"17 38.667 OFFCURVE",
"60.667 -8 OFFCURVE",
"126 -8 CURVE SMOOTH",
"178 -8 OFFCURVE",
"253.667 39.333 OFFCURVE",
"275 66 CURVE",
"277 70 LINE",
"278.333 70 OFFCURVE",
"279 68.667 OFFCURVE",
"279 66 CURVE SMOOTH",
"279 63.333 OFFCURVE",
"280.333 57.333 OFFCURVE",
"283 48 CURVE",
"297 10 OFFCURVE",
"319.667 -9 OFFCURVE",
"351 -9 CURVE SMOOTH",
"421.667 -9 OFFCURVE",
"477 60.667 OFFCURVE",
"497 110 CURVE",
"493 123.333 OFFCURVE",
"474 139 OFFCURVE",
"466 139 CURVE SMOOTH",
"459.206 139 OFFCURVE",
"425.121 82 OFFCURVE",
"415 82 CURVE SMOOTH",
"401.667 82 OFFCURVE",
"395 90.667 OFFCURVE",
"395 108 CURVE SMOOTH",
"395 112 OFFCURVE",
"396 119 OFFCURVE",
"398 129 CURVE SMOOTH",
"469 489 LINE",
"470.333 492.333 OFFCURVE",
"472 494 OFFCURVE",
"474 494 CURVE SMOOTH",
"534 494 LINE",
"535 494 LINE SMOOTH",
"536.333 494 OFFCURVE",
"539.667 496 OFFCURVE",
"541 500 CURVE",
"546.454 513.635 OFFCURVE",
"553 545.389 OFFCURVE",
"553 555 CURVE",
"553.667 559.667 OFFCURVE",
"552 562 OFFCURVE",
"548 562 CURVE SMOOTH",
"488 562 LINE SMOOTH",
"486 562 OFFCURVE",
"485 563.667 OFFCURVE",
"485 567 CURVE SMOOTH",
"485 569.667 OFFCURVE",
"486 575.333 OFFCURVE",
"488 584 CURVE",
"494.667 621.333 OFFCURVE",
"504.333 652.667 OFFCURVE",
"517 678 CURVE",
"517 683.333 OFFCURVE",
"512 695 OFFCURVE",
"508 695 CURVE SMOOTH",
"503 695 LINE",
"480.333 684.333 OFFCURVE",
"363.333 656 OFFCURVE",
"330 656 CURVE SMOOTH",
"327.333 656 OFFCURVE",
"321 642.333 OFFCURVE",
"321 633 CURVE SMOOTH",
"321 627.667 OFFCURVE",
"322 625 OFFCURVE",
"324 625 CURVE SMOOTH",
"356.667 625 OFFCURVE",
"373 617.667 OFFCURVE",
"373 603 CURVE SMOOTH",
"373 594.333 OFFCURVE",
"371.333 582.333 OFFCURVE",
"368 567 CURVE",
"368 563.667 OFFCURVE",
"367 562 OFFCURVE",
"365 562 CURVE SMOOTH",
"269 562 LINE",
"268 562 LINE SMOOTH",
"266.667 562 OFFCURVE",
"263.333 561 OFFCURVE",
"262 557 CURVE",
"254.275 541.551 OFFCURVE",
"248 509.953 OFFCURVE",
"248 504 CURVE",
"251 494 LINE",
"351 494 LINE SMOOTH",
"353 494 OFFCURVE",
"354 492.333 OFFCURVE",
"354 489 CURVE SMOOTH",
"354 487.667 OFFCURVE",
"350.333 470 OFFCURVE",
"343 436 CURVE",
"343 433.333 OFFCURVE",
"342.333 432 OFFCURVE",
"341 432 CURVE SMOOTH",
"339.667 432 OFFCURVE",
"338.333 432.667 OFFCURVE",
"337 434 CURVE",
"322.333 441.333 OFFCURVE",
"308 445 OFFCURVE",
"294 445 CURVE SMOOTH"
);
}
);
width = 527;
}
);
note = dcroat;
unicode = 0111;
},
{
glyphname = e;
lastChange = "2018-12-17 21:49:21 +0000";
layers = (
{
background = {
paths = (
{
closed = 1;
nodes = (
"189 449 OFFCURVE",
"76 365 OFFCURVE",
"9 229 OFFCURVE",
"9 157 QCURVE SMOOTH",
"9 79 OFFCURVE",
"82 -6 OFFCURVE",
"154 -6 QCURVE SMOOTH",
"201 -6 OFFCURVE",
"307 74 OFFCURVE",
"319 102 QCURVE",
"319 106 OFFCURVE",
"302 126 OFFCURVE",
"300 126 QCURVE",
"289 111 OFFCURVE",
"229 68 OFFCURVE",
"199 68 QCURVE SMOOTH",
"170 68 OFFCURVE",
"135 110 OFFCURVE",
"135 169 QCURVE SMOOTH",
"135 179 OFFCURVE",
"139 179 QCURVE SMOOTH",
"160 179 OFFCURVE",
"237 205 OFFCURVE",
"319 249 OFFCURVE",
"379 319 OFFCURVE",
"379 356 QCURVE SMOOTH",
"379 399 OFFCURVE",
"303 449 OFFCURVE",
"251 449 QCURVE SMOOTH"
);
},
{
closed = 1;
nodes = (
"265 395 OFFCURVE",
"265 356 QCURVE SMOOTH",
"265 315 OFFCURVE",
"197 229 OFFCURVE",
"150 229 QCURVE SMOOTH",
"146 229 OFFCURVE",
"146 233 QCURVE SMOOTH",
"146 286 OFFCURVE",
"215 395 OFFCURVE",
"241 395 QCURVE SMOOTH"
);
}
);
};
layerId = "EE330C8E-4A1C-402A-831D-620872201BE1";
paths = (
{
closed = 1;
nodes = (
"168.333 449 OFFCURVE",
"87.167 387.667 OFFCURVE",
"42.5 297 CURVE SMOOTH",
"20.167 251.667 OFFCURVE",
"9 205 OFFCURVE",
"9 157 CURVE SMOOTH",
"9 53 OFFCURVE",
"58 -6 OFFCURVE",
"154 -6 CURVE SMOOTH",
"216.667 -6 OFFCURVE",
"303 64.667 OFFCURVE",
"319 102 CURVE",
"319 107.333 OFFCURVE",
"302.667 126 OFFCURVE",
"300 126 CURVE",
"285.333 106 OFFCURVE",
"239 68 OFFCURVE",
"199 68 CURVE SMOOTH",
"160.333 68 OFFCURVE",
"135 90.333 OFFCURVE",
"135 169 CURVE SMOOTH",
"135 175.667 OFFCURVE",
"136.333 179 OFFCURVE",
"139 179 CURVE SMOOTH",
"209.19 179 OFFCURVE",
"379 260.278 OFFCURVE",
"379 356 CURVE SMOOTH",
"379 413.333 OFFCURVE",
"320.333 449 OFFCURVE",
"251 449 CURVE SMOOTH"
);
},
{
closed = 1;
nodes = (
"257 395 OFFCURVE",
"265 382 OFFCURVE",
"265 356 CURVE SMOOTH",
"265 301.333 OFFCURVE",
"212.667 229 OFFCURVE",
"150 229 CURVE SMOOTH",
"147.333 229 OFFCURVE",
"146 230.333 OFFCURVE",
"146 233 CURVE SMOOTH",
"146 303.667 OFFCURVE",
"206.333 395 OFFCURVE",
"241 395 CURVE SMOOTH"
);
}
);
width = 393;
}
);
note = e;
unicode = 0065;
},
{
glyphname = eogonek;
lastChange = "2018-12-17 21:49:21 +0000";
layers = (
{
background = {
paths = (
{
closed = 1;
nodes = (
"267 394 OFFCURVE",
"267 356 QCURVE SMOOTH",
"267 315 OFFCURVE",
"201 232 OFFCURVE",
"154 232 QCURVE SMOOTH",
"150 232 OFFCURVE",
"150 236 QCURVE SMOOTH",
"150 247 OFFCURVE",
"167 307 OFFCURVE",
"175 322 QCURVE SMOOTH",
"213 394 OFFCURVE",
"243 394 QCURVE SMOOTH"
);
},
{
closed = 1;
nodes = (
"174 449 OFFCURVE",
"23 291 OFFCURVE",
"23 170 QCURVE SMOOTH",
"23 100 OFFCURVE",
"99 -3 OFFCURVE",
"166 -7 QCURVE",
"130 -38 OFFCURVE",
"76 -125 OFFCURVE",
"76 -157 QCURVE SMOOTH",
"76 -183 OFFCURVE",
"110 -216 OFFCURVE",
"133 -216 QCURVE SMOOTH",
"162 -216 OFFCURVE",
"230 -177 OFFCURVE",
"252 -152 QCURVE",
"255 -149 OFFCURVE",
"262 -118 OFFCURVE",
"257 -117 QCURVE",
"256 -117 OFFCURVE",
"236 -130 OFFCURVE",
"201 -144 OFFCURVE",
"180 -144 QCURVE SMOOTH",
"152 -144 OFFCURVE",
"152 -118 QCURVE SMOOTH",
"152 -84 OFFCURVE",
"217 -9 OFFCURVE",
"256 18 QCURVE SMOOTH",
"283 36 OFFCURVE",
"332 90 OFFCURVE",
"332 106 OFFCURVE",
"317 124 OFFCURVE",
"312 124 QCURVE SMOOTH",
"310 124 OFFCURVE",
"282 91 OFFCURVE",
"242 58 OFFCURVE",
"224 58 QCURVE SMOOTH",
"194 58 OFFCURVE",
"145 111 OFFCURVE",
"145 169 QCURVE SMOOTH",
"145 179 OFFCURVE",
"149 179 QCURVE SMOOTH",
"180 179 OFFCURVE",
"285 220 OFFCURVE",
"381 305 OFFCURVE",
"381 354 QCURVE SMOOTH",
"381 397 OFFCURVE",
"314 449 OFFCURVE",
"266 449 QCURVE SMOOTH"
);
}
);
};
layerId = "EE330C8E-4A1C-402A-831D-620872201BE1";
paths = (
{
closed = 1;
nodes = (
"259 394 OFFCURVE",
"267 381.333 OFFCURVE",
"267 356 CURVE SMOOTH",
"267 301.333 OFFCURVE",
"216.667 232 OFFCURVE",
"154 232 CURVE SMOOTH",
"151.333 232 OFFCURVE",
"150 233.333 OFFCURVE",
"150 236 CURVE SMOOTH",
"150 250.667 OFFCURVE",
"164.333 302 OFFCURVE",
"175 322 CURVE SMOOTH",
"200.333 370 OFFCURVE",
"223 394 OFFCURVE",
"243 394 CURVE SMOOTH"
);
},
{
closed = 1;
nodes = (
"143.333 449 OFFCURVE",
"23 331.333 OFFCURVE",
"23 170 CURVE SMOOTH",
"23 76.667 OFFCURVE",
"76.667 -1.667 OFFCURVE",
"166 -7 CURVE",
"118 -48.333 OFFCURVE",
"76 -114.333 OFFCURVE",
"76 -157 CURVE SMOOTH",
"76 -191.667 OFFCURVE",
"102.333 -216 OFFCURVE",
"133 -216 CURVE SMOOTH",
"171.667 -216 OFFCURVE",
"222.667 -185.333 OFFCURVE",
"252 -152 CURVE",
"256 -148 OFFCURVE",
"263.667 -118.333 OFFCURVE",
"257 -117 CURVE",
"251.845 -117 OFFCURVE",
"205.861 -144 OFFCURVE",
"180 -144 CURVE SMOOTH",
"161.333 -144 OFFCURVE",
"152 -135.333 OFFCURVE",
"152 -118 CURVE SMOOTH",
"152 -72.667 OFFCURVE",
"204 -18 OFFCURVE",
"256 18 CURVE SMOOTH",
"312.968 55.979 OFFCURVE",
"357.503 124 OFFCURVE",
"312 124 CURVE SMOOTH",
"300.581 124 OFFCURVE",
"247.493 58 OFFCURVE",
"224 58 CURVE SMOOTH",
"184 58 OFFCURVE",
"145 91.667 OFFCURVE",
"145 169 CURVE SMOOTH",
"145 175.667 OFFCURVE",
"146.333 179 OFFCURVE",
"149 179 CURVE SMOOTH",
"190.333 179 OFFCURVE",
"269 205.833 OFFCURVE",
"333 262.5 CURVE SMOOTH",
"365 290.833 OFFCURVE",
"381 321.333 OFFCURVE",
"381 354 CURVE SMOOTH",
"381 411.333 OFFCURVE",
"330 449 OFFCURVE",
"266 449 CURVE SMOOTH"
);
}
);
width = 398;
}
);
note = eogonek;
unicode = 0119;
},
